<svg id="Layer_1" xmlns:rdf="http://www.w3.org/1999/02/22-rdf-syntax-ns#" xmlns="http://www.w3.org/2000/svg" xml:space="preserve" height="100" viewBox="0 0 100 100" width="100" version="1.1" xmlns:cc="http://creativecommons.org/ns#" xmlns:dc="http://purl.org/dc/elements/1.1/"><path id="path4150" d="m21.498 99.537c-.86010-.31297-1.9815-1.6258-2.1483-2.515-.11147-.59421.000567-1.2777.32004-1.9508.42044-.88599.87754-1.2164 3.156-2.2811 3.6973-1.7277 6.1842-3.4531 8.5171-5.9091 5.7228-6.0246 6.9973-13.66 3.851-23.071-1.866-5.579-5.175-10.715-10.379-16.11-2.971-3.08-9.702-9.164-10.416-9.414-.71912-.25183-.02373.83750 2.6795 4.1974 5.5024 6.8391 9.5876 12.99 11.199 16.861 1.0508 2.5241 2.2019 6.7164 2.4526 8.9323l.18278 1.6155-1.9748.18354c-6.36.592-12.907-2.089-18.209-7.458-4.8846-4.945-8.1908-11.477-10.064-19.884-.62578-2.806-.88891-12.007-.44102-15.411 1.0597-8.056 3.5779-14.984 7.7513-21.328 2.5457-3.8697 4.3257-5.7849 5.2727-5.6749.60970.07076.78236.28496.98298 1.2194 1.2327 5.7419 3.0554 9.915 6.0651 13.887 2.5072 3.3084 5.3349 5.5569 11.025 8.7667 6.3414 3.5772 8.9777 5.3607 11.538 7.8055 3.5534 3.3936 5.884 7.1055 7.3074 11.638.94722 3.0164.95018 8.0457.0064 10.899-1.0227 3.0916-2.706 5.6787-5.4584 8.3889l-2.4754 2.4375.40249 1.8135c.60344 2.719.81446 7.7434.42027 10.007-.18520 1.0635-.25827 2.012-.16240 2.1079.29549.29549 5.2761.13846 7.2222-.22772 2.6114-.49132 6.4988-1.8247 9.6234-3.3008 4.3737-2.0662 7.9837-4.6513 11.809-8.4561 3.3327-3.3152 4.3048-4.5203 3.8624-4.7879-.11732-.07096-1.5524.69571-3.189 1.7037-6.5253 4.019-15.59 8.0591-19.661 8.7632l-1.0982.18993.11676-2.6695c.10308-2.3569.23884-2.9266 1.1593-4.8648 4.5372-9.5541 16.395-15.508 28.601-14.36 6.5792.61870 11.293 2.3028 15.577 5.5653 1.7883 1.3618 3.0785 2.7755 3.0785 3.3733 0 0.677-1.1941 1.1859-3.1848 1.3572-3.8368.33022-7.8073 2.208-10.656 5.0398-2.108 2.0953-3.1782 3.9378-4.6756 8.0504-1.6785 4.6099-2.5362 6.2023-4.28 7.9461-4.5885 4.5885-12.112 5.4208-17.836 1.973l-1.6655-1.0032-2.2637.7151c-3.915 1.239-6.997 1.64-11.317 1.475l-3.8735-.14746-1.0753 1.7421c-2.586 4.1896-8.2311 8.8535-13.62 11.252-2.4195 1.0771-3.1633 1.246-4.0561.92109z"/></svg>
