<svg id="Layer_1" xmlns:rdf="http://www.w3.org/1999/02/22-rdf-syntax-ns#" xmlns="http://www.w3.org/2000/svg" xml:space="preserve" height="100" viewBox="0 0 100 100" width="100" version="1.1" xmlns:cc="http://creativecommons.org/ns#" xmlns:dc="http://purl.org/dc/elements/1.1/"><g id="g3" transform="matrix(3.125 0 0 3.125 2250 450)"><path id="path5" d="m-700.43-135c.473 0 .854.383.854.856s-.383.856-.854.856h-8.574c-.473 0-.855-.385-.855-.856 0-.476.385-.856.855-.856h8.574zm-9.069-.857h9.563s3.787-3.308 2.074-4.753c-1.715-1.446-5.52 1.606-6.856 1.501-1.338.105-5.145-2.947-6.856-1.501-1.714 1.445 2.076 4.753 2.075 4.753zm7.497 17.286v-2c0-.805-.551-.986-1-1h-1v4h1c.449-.012 1-.194 1-1zm2.066-13.86h-9.563c-4.247 3.099-7.219 9.665-7.219 13.831 0 5.506 5.178 5.031 11.636 5.014-.512-.043-.921-.461-.921-.984v-1h-3c-.551 0-1-.447-1-1 0-.551.449-1 1-1h3v-4h-1c-1.207 0-3-.799-3-3v-2c0-2.2 1.793-3 3-3h1v-1c0-.551.449-1 1-1s1 .449 1 1v1h3c.552 0 1 .449 1 1 0 .552-.448 1-1 1h-3v4h1c1.207 0 3 .801 3 3v2c0 2.201-1.793 3-3 3h-1v1c0 .521-.407.939-.918.982h.203c6.628 0 12 .598 12-5.012 0-4.166-2.974-10.732-7.219-13.831h.0010zm-8.067 5.86v2c0 .807.551.988 1 1h1v-4h-1c-.448.013-1 .195-1 1zm-5.573-10.86c-.395 0-.713.319-.713.716 0 .395.318.715.713.715h1.172c-.349-.431-.685-.914-.964-1.431h-.208zm17.84-.711h1.719s3.156-2.756 1.729-3.961c-.883-.746-2.428-.061-3.744.553.395.539.611 1.18.617 1.867.004.52-.125 1.039-.321 1.541zm2.019 1.427c0-.396-.318-.716-.713-.716h-1.641c-.277.517-.613 1-.963 1.431h2.604c.395 0 .713-.321.713-.715zm-.301 1.429h-3.643c-.037.039-.076.084-.113.121.123.317.197.66.197 1.021 0 .338-.066.656-.178.955 3.924 3.434 6.465 9.024 6.938 13.231 1.738-.475 2.813-1.52 2.813-3.807 0-3.473-2.477-8.942-6.016-11.523v.002h.002zm-19.97-2.856h.288c-.195-.502-.325-1.02-.32-1.541.008-.896.377-1.703 1.02-2.313-1.027-.412-2.058-.664-2.717-.105-1.428 1.203 1.73 3.959 1.729 3.959zm2.304 4.957c-.107-.302-.178-.619-.178-.957 0-.36.074-.703.197-1.021-.036-.039-.075-.082-.113-.121h-2.21c-3.539 2.58-6.016 8.052-6.016 11.525 0 1.605.539 2.594 1.459 3.209.635-4.129 3.122-9.366 6.858-12.635h.003z"/></g></svg>
