<svg id="Layer_1" xmlns:rdf="http://www.w3.org/1999/02/22-rdf-syntax-ns#" xmlns="http://www.w3.org/2000/svg" xml:space="preserve" height="100" viewBox="0 0 100 100" width="100" version="1.1" xmlns:cc="http://creativecommons.org/ns#" xmlns:dc="http://purl.org/dc/elements/1.1/"><path id="path4163" d="m62.214 90.067c-8.0897-.8292-15.496-4.3034-21.082-9.889-5.431-5.4311-8.771-12.043-9.9437-19.686-.38078-2.4816-.37547-7.3043.0109-9.8829 1.9635-13.105 10.913-23.791 23.389-27.927 1.7525-.58104 5.5133-1.4895 6.1661-1.4895.0911 0 .21563.22731.27665.50513.1703.77539 1.5698 2.083 2.593 2.4229 1.1635.38644 3.3099.28419 4.2501-.20247.90407-.46796 1.7576-1.3815 1.9779-2.117.10029-.33474.23879-.60861.30778-.60861.55458 0 3.8974.77231 5.5832 1.2899 5.0102 1.5383 9.7929 4.3624 13.652 8.061 5.659 5.4242 9.3825 12.824 10.416 20.7.28267 2.1538.24195 6.9475-.078 9.1807-1.409 9.8355-6.9543 18.565-15.318 24.112-4.3573 2.8903-9.9142 4.8792-15.303 5.477-1.3327.14786-5.6502.18121-6.8982.0533zm8.1009-7.3343c10.138-1.7331 18.818-9.5624 21.634-19.513.80016-2.8277.943-3.9886.94682-7.6948.003-3.0066-.046-3.7334-.35543-5.2593-1.6242-8.0098-6.6106-14.88-13.681-18.848-2.8543-1.602-6.6428-2.8504-9.874-3.2535-2.1984-.27432-7.0115-.11231-9.0311.30399-13.447 2.7718-22.912 15.163-22.002 28.804.45987 6.8957 3.2226 12.996 8.0794 17.841 4.4708 4.4598 10.182 7.1963 16.517 7.9134 1.8815.21298 5.6287.0708 7.7668-.29475zm-6.1955-23.592c-2.6489-1.396-2.4313-5.3169.35381-6.3758l.43415-.16506.0409-9.5588.0409-9.5588h.7136.71361l.0409 9.5408.0409 9.5408.71256.34494c3.2173 1.5574 2.2782 6.2978-1.3096 6.6106-.78829.0687-1.0298.0174-1.7816-.37885zm6.5046-6.8585c-.31701-.49402-.79712-.97305-1.2288-1.226l-.7085-.41522 2.9852-2.9883 2.9852-2.9883 1.1523 1.1446c.63378.62955 1.1523 1.2185 1.1523 1.3088s-1.3089 1.4717-2.9088 3.0697l-2.9088 2.9056-.52031-.81082zm-54.206 29.542c-2.0396-1.0137-1.7675-4.0585.41527-4.6463.45404-.12226 3.1687-.16298 8.7865-.13179 9.0197.0501 8.8159.0262 9.4749 1.1099.721 1.1856.43808 2.6922-.65149 3.4693l-.53537.38184-8.484.0382c-7.5855.0342-8.5392.0107-9.0059-.22122zm-9.6422-12.404c-.69663-.4276-1.1324-1.0406-1.2548-1.765-.14117-.83561.12388-1.57.80485-2.2302l.56078-.54359 10.136-.0431 10.136-.0431.6374.57586c1.1804 1.0664 1.2438 2.4543.16497 3.611l-.61243.65663-10.042.041c-9.6192.0393-10.062.0284-10.531-.25962zm-5.219-12.611c-1.9643-.88573-2.1022-3.5571-.23524-4.5583.51817-.2779 1.1532-.2936 11.874-.2936h11.327l.66726.39104c1.5842.92839 1.5959 3.1068.023 4.2724-.44331.32853-.55729.33208-11.814.36734-9.2718.029-11.454-.004-11.842-.17891zm5.784-12.665c-1.6727-.42537-2.4041-2.6327-1.3052-3.9387.81728-.97128.37927-.93444 11.11-.93444h9.8163l.52425.3568c.73699.5016 1.1176 1.0719 1.2188 1.8265.1181.88055-.40915 1.9631-1.1916 2.4467l-.58308.36037-9.5191.0115c-5.2355.006-9.767-.0516-10.07-.12867zm8.9497-12.626c-1.9603-1.1954-1.565-4.0001.64838-4.6007.78297-.21248 15.725-.23393 16.63-.0239 1.7393.40354 2.5336 2.6532 1.4088 3.99-.81056.9633-.51002.9345-9.7457.93385-7.9982-.00063-8.4785-.0166-8.942-.29927zm47.9-8.749c-.58317-.16963-1.1515-.67594-1.3527-1.205-.0819-.21535-.14887-1.3503-.14887-2.522v-2.1305h2.7866 2.7866l-.0511 2.3687-.0511 2.3687-.46672.48668c-.70982.74018-2.2057 1.0107-3.5027.63341zm-5.7017-7.3114c-.63384-.49857-.87438-1.2208-.8741-2.6245.00031-1.3927.27361-2.1153 1.0024-2.65.43594-.31982.62155-.32843 7.0847-.32843 6.4631 0 6.6488.009 7.0848.32843.72892.53464 1.0023 1.2572 1.0026 2.65.00032 1.4037-.24027 2.1259-.8741 2.6245-.43285.34048-.50224.34379-7.2132.34379-6.7109 0-6.7803-.003-7.2132-.34379z"/></svg>
