G75*
%MOIN*%
%OFA0B0*%
%FSLAX25Y25*%
%IPPOS*%
%LPD*%
%AMOC8*
5,1,8,0,0,1.08239X$1,22.5*
%
%ADD10C,0.00700*%
%ADD11R,0.08661X0.02362*%
%ADD12C,0.12598*%
%ADD13R,0.04724X0.05512*%
%ADD14C,0.19685*%
%ADD15R,0.07087X0.06299*%
%ADD16R,0.06299X0.07087*%
%ADD17C,0.01600*%
%ADD18C,0.07874*%
%ADD19C,0.01000*%
D10*
X0037854Y0158407D02*
X0040623Y0161176D01*
X0040623Y0166714D01*
X0043372Y0165330D02*
X0043372Y0159792D01*
X0044756Y0158407D01*
X0047525Y0158407D01*
X0048910Y0159792D01*
X0048910Y0165330D01*
X0047525Y0166714D01*
X0044756Y0166714D01*
X0043372Y0165330D01*
X0035085Y0166714D02*
X0035085Y0161176D01*
X0037854Y0158407D01*
X0051659Y0158407D02*
X0057197Y0158407D01*
X0062715Y0158407D02*
X0062715Y0166714D01*
X0059946Y0166714D02*
X0065484Y0166714D01*
X0068233Y0166714D02*
X0068233Y0158407D01*
X0073771Y0158407D01*
X0076520Y0158407D02*
X0076520Y0166714D01*
X0080674Y0166714D01*
X0082058Y0165330D01*
X0082058Y0162561D01*
X0080674Y0161176D01*
X0076520Y0161176D01*
X0079289Y0161176D02*
X0082058Y0158407D01*
X0084807Y0158407D02*
X0084807Y0163945D01*
X0087576Y0166714D01*
X0090345Y0163945D01*
X0090345Y0158407D01*
X0090345Y0162561D02*
X0084807Y0162561D01*
X0073771Y0166714D02*
X0068233Y0166714D01*
X0068233Y0162561D02*
X0071002Y0162561D01*
X0051659Y0166714D02*
X0051659Y0158407D01*
X0101381Y0158407D02*
X0101381Y0166714D01*
X0105535Y0166714D01*
X0106919Y0165330D01*
X0106919Y0162561D01*
X0105535Y0161176D01*
X0101381Y0161176D01*
X0109668Y0159792D02*
X0111053Y0158407D01*
X0113822Y0158407D01*
X0115207Y0159792D01*
X0115207Y0166714D01*
X0117956Y0166714D02*
X0123494Y0158407D01*
X0123494Y0166714D01*
X0126243Y0166714D02*
X0126243Y0158407D01*
X0126243Y0161176D02*
X0131781Y0166714D01*
X0127627Y0162561D02*
X0131781Y0158407D01*
X0142817Y0159792D02*
X0144201Y0158407D01*
X0146970Y0158407D01*
X0148355Y0159792D01*
X0151104Y0159792D02*
X0152488Y0158407D01*
X0155257Y0158407D01*
X0156642Y0159792D01*
X0156642Y0165330D01*
X0155257Y0166714D01*
X0152488Y0166714D01*
X0151104Y0165330D01*
X0151104Y0159792D01*
X0148355Y0165330D02*
X0146970Y0166714D01*
X0144201Y0166714D01*
X0142817Y0165330D01*
X0142817Y0159792D01*
X0159391Y0158407D02*
X0159391Y0166714D01*
X0164929Y0158407D01*
X0164929Y0166714D01*
X0167678Y0165330D02*
X0167678Y0163945D01*
X0169063Y0162561D01*
X0171832Y0162561D01*
X0173216Y0161176D01*
X0173216Y0159792D01*
X0171832Y0158407D01*
X0169063Y0158407D01*
X0167678Y0159792D01*
X0167678Y0165330D02*
X0169063Y0166714D01*
X0171832Y0166714D01*
X0173216Y0165330D01*
X0175965Y0165330D02*
X0175965Y0159792D01*
X0177350Y0158407D01*
X0180119Y0158407D01*
X0181503Y0159792D01*
X0181503Y0165330D01*
X0180119Y0166714D01*
X0177350Y0166714D01*
X0175965Y0165330D01*
X0184252Y0166714D02*
X0184252Y0158407D01*
X0189790Y0158407D01*
X0192539Y0158407D02*
X0198077Y0158407D01*
X0195308Y0162561D02*
X0192539Y0162561D01*
X0192539Y0166714D02*
X0192539Y0158407D01*
X0192539Y0166714D02*
X0198077Y0166714D01*
X0117956Y0166714D02*
X0117956Y0158407D01*
X0109668Y0159792D02*
X0109668Y0166714D01*
D11*
X0106264Y0087707D03*
X0106264Y0082707D03*
X0106264Y0077707D03*
X0106264Y0072707D03*
X0106264Y0067707D03*
X0106264Y0062707D03*
X0106264Y0057707D03*
X0126736Y0057707D03*
X0126736Y0062707D03*
X0126736Y0067707D03*
X0126736Y0072707D03*
X0126736Y0077707D03*
X0126736Y0082707D03*
X0126736Y0087707D03*
D12*
X0181500Y0078258D03*
X0201500Y0078258D03*
X0191500Y0118258D03*
X0125949Y0025266D03*
X0106264Y0025266D03*
X0051500Y0078258D03*
X0031500Y0078258D03*
X0041500Y0118258D03*
D13*
X0110594Y0109852D03*
X0122406Y0109852D03*
D14*
X0141500Y0142707D03*
X0091500Y0142707D03*
D15*
X0066500Y0108219D03*
X0066500Y0097195D03*
X0166500Y0097195D03*
X0166500Y0108219D03*
D16*
X0122012Y0122707D03*
X0110988Y0122707D03*
X0110988Y0135207D03*
X0122012Y0135207D03*
X0165988Y0062707D03*
X0177012Y0062707D03*
X0067012Y0062707D03*
X0055988Y0062707D03*
X0055870Y0045955D03*
X0066894Y0045955D03*
D17*
X0060988Y0037077D02*
X0055870Y0042195D01*
X0055870Y0045955D01*
X0060988Y0037077D02*
X0088547Y0037077D01*
X0088547Y0049754D01*
X0096500Y0057707D01*
X0106264Y0057707D01*
X0106500Y0057470D01*
X0106264Y0062707D02*
X0091500Y0062707D01*
X0081500Y0052707D01*
X0074748Y0045955D01*
X0066894Y0045955D01*
X0067012Y0062707D02*
X0071500Y0067195D01*
X0071500Y0067707D01*
X0076500Y0072707D01*
X0106264Y0072707D01*
X0116500Y0072707D01*
X0116500Y0087707D01*
X0099000Y0105207D01*
X0099000Y0135207D01*
X0091500Y0142707D01*
X0099000Y0135207D02*
X0110988Y0135207D01*
X0110988Y0122707D01*
X0122012Y0122707D02*
X0122012Y0110246D01*
X0122406Y0109852D01*
X0116500Y0103947D02*
X0116500Y0097707D01*
X0126500Y0097707D01*
X0134000Y0105207D01*
X0134000Y0135207D01*
X0141500Y0142707D01*
X0122012Y0135207D02*
X0122012Y0122707D01*
X0110594Y0109852D02*
X0116500Y0103947D01*
X0136500Y0092707D02*
X0136500Y0082707D01*
X0126736Y0082707D01*
X0126736Y0077707D01*
X0126736Y0082707D02*
X0126500Y0082707D01*
X0126736Y0087707D02*
X0116500Y0087707D01*
X0106500Y0087943D02*
X0106264Y0087707D01*
X0101185Y0087707D01*
X0080673Y0108219D01*
X0066500Y0108219D01*
X0056461Y0118258D01*
X0041500Y0118258D01*
X0061500Y0132707D02*
X0061500Y0152707D01*
X0071500Y0142707D02*
X0051500Y0142707D01*
X0017500Y0113207D02*
X0014000Y0117707D01*
X0010500Y0113207D01*
X0014000Y0117707D02*
X0014000Y0072707D01*
X0051500Y0067195D02*
X0051500Y0078258D01*
X0051500Y0067195D02*
X0055988Y0062707D01*
X0081500Y0062707D02*
X0086500Y0067707D01*
X0106264Y0067707D01*
X0116500Y0067707D02*
X0116500Y0043770D01*
X0106264Y0033533D01*
X0106264Y0025266D01*
X0125949Y0025266D02*
X0139059Y0025266D01*
X0156500Y0042707D01*
X0156500Y0058219D01*
X0152012Y0062707D01*
X0126736Y0062707D01*
X0126736Y0067707D02*
X0160988Y0067707D01*
X0165988Y0062707D01*
X0177012Y0062707D02*
X0191500Y0062707D01*
X0201500Y0072707D01*
X0201500Y0078258D01*
X0215500Y0076707D02*
X0219000Y0073207D01*
X0222500Y0076707D01*
X0219000Y0073207D02*
X0219000Y0117207D01*
X0191500Y0118258D02*
X0176539Y0118258D01*
X0166500Y0108219D01*
X0152012Y0108219D01*
X0136500Y0092707D01*
X0156500Y0082707D02*
X0166500Y0092707D01*
X0166500Y0097195D01*
X0126736Y0067707D02*
X0116500Y0067707D01*
X0116500Y0072707D01*
X0106264Y0082707D02*
X0076500Y0082707D01*
X0066500Y0092707D01*
X0066500Y0097195D01*
X0076500Y0082707D02*
X0080988Y0082707D01*
X0126736Y0057707D02*
X0136500Y0057707D01*
X0146500Y0047707D01*
X0161500Y0142707D02*
X0181500Y0142707D01*
D18*
X0116500Y0097707D03*
X0156500Y0082707D03*
X0146500Y0047707D03*
X0088547Y0037077D03*
X0081500Y0052707D03*
X0081500Y0062707D03*
X0076500Y0082707D03*
D19*
X0026500Y0062707D02*
X0021500Y0062707D01*
X0021500Y0067707D01*
X0016500Y0067707D01*
X0016500Y0062707D01*
X0011500Y0062707D01*
X0011500Y0067707D01*
X0006500Y0067707D01*
X0006500Y0062707D01*
X0001500Y0062707D01*
X0001500Y0122707D02*
X0003500Y0122707D01*
X0003500Y0127707D01*
X0006500Y0127707D01*
X0006500Y0122707D01*
X0009500Y0122707D01*
X0009500Y0127707D01*
X0012500Y0127707D01*
X0012500Y0122707D01*
X0015500Y0122707D01*
X0015500Y0127707D01*
X0018500Y0127707D01*
X0018500Y0122707D01*
X0021500Y0122707D01*
X0021500Y0127707D01*
X0024500Y0127707D01*
X0024500Y0122707D01*
X0026500Y0122707D01*
X0206500Y0122707D02*
X0211500Y0122707D01*
X0211500Y0127707D01*
X0216500Y0127707D01*
X0216500Y0122707D01*
X0231500Y0122707D01*
X0226500Y0067707D02*
X0211500Y0067707D01*
X0211500Y0062707D01*
X0206500Y0062707D01*
X0226500Y0062707D02*
X0231500Y0062707D01*
X0226500Y0062707D02*
X0226500Y0067707D01*
M02*
