<?xml version="1.0" encoding="UTF-8" standalone="no"?>
<svg
   xmlns:dc="http://purl.org/dc/elements/1.1/"
   xmlns:cc="http://creativecommons.org/ns#"
   xmlns:rdf="http://www.w3.org/1999/02/22-rdf-syntax-ns#"
   xmlns:svg="http://www.w3.org/2000/svg"
   xmlns="http://www.w3.org/2000/svg"
   xmlns:sodipodi="http://sodipodi.sourceforge.net/DTD/sodipodi-0.dtd"
   xmlns:inkscape="http://www.inkscape.org/namespaces/inkscape"
   id="svg2985"
   height="25"
   width="38.093914"
   version="1.1"
   inkscape:version="0.91 r13725"
   sodipodi:docname="voltera-emblem.svg">
  <metadata
     id="metadata11">
    <rdf:RDF>
      <cc:Work
         rdf:about="">
        <dc:format>image/svg+xml</dc:format>
        <dc:type
           rdf:resource="http://purl.org/dc/dcmitype/StillImage" />
        <dc:title></dc:title>
      </cc:Work>
    </rdf:RDF>
  </metadata>
  <defs
     id="defs9" />
  <sodipodi:namedview
     pagecolor="#ffffff"
     bordercolor="#666666"
     borderopacity="1"
     objecttolerance="10"
     gridtolerance="10"
     guidetolerance="10"
     inkscape:pageopacity="0"
     inkscape:pageshadow="2"
     inkscape:window-width="1920"
     inkscape:window-height="1027"
     id="namedview7"
     showgrid="false"
     inkscape:zoom="7.3281707"
     inkscape:cx="22.09443"
     inkscape:cy="14.499961"
     inkscape:window-x="-8"
     inkscape:window-y="-8"
     inkscape:window-maximized="1"
     inkscape:current-layer="svg2985"
     fit-margin-top="0"
     fit-margin-left="0"
     fit-margin-right="0"
     fit-margin-bottom="0" />
  <g
     id="layer1"
     transform="matrix(0.79999678,0,0,0.79999678,1941.5772,-1776.5741)">
    <g
       id="g4253"
       transform="matrix(0.057143,0,0,0.057143,-2287.4,2122.7)"
       style="fill-rule:evenodd">
      <path
         id="path4321-7-0-2-0-8"
         d="m -1825.8,1726.4 c -1.724,0 -3.4089,0.079 -5.0879,0.25 -1.679,0.1707 -3.3373,0.4481 -4.9631,0.7813 -3.2509,0.6659 -6.4079,1.6412 -9.3953,2.9063 -2.9876,1.2651 -5.8019,2.7965 -8.4591,4.5937 -2.6568,1.7969 -5.1383,3.8628 -7.3977,6.125 -2.2595,2.2619 -4.2916,4.7148 -6.0868,7.375 -1.7948,2.6599 -3.3559,5.5089 -4.6196,8.5 -1.2635,2.9909 -2.2378,6.1514 -2.9029,9.4063 -0.3327,1.6274 -0.5787,3.2565 -0.7491,4.9374 -0.1705,1.681 -0.281,3.3992 -0.281,5.125 l 0,100 c 0,4.3147 -0.2293,8.5792 -0.6555,12.781 -0.4263,4.2022 -1.0413,8.3376 -1.8729,12.406 -0.8315,4.0686 -1.8741,8.0546 -3.0901,11.969 -1.216,3.9142 -2.6032,7.7614 -4.1827,11.5 -1.5795,3.7387 -3.353,7.3639 -5.2751,10.906 -1.9221,3.5423 -3.9991,6.9874 -6.2428,10.312 -2.2439,3.3251 -4.6349,6.5382 -7.1794,9.625 -2.5444,3.0869 -5.26,6.0474 -8.0844,8.875 -2.8243,2.8277 -5.7815,5.5152 -8.8648,8.0626 -3.0832,2.5473 -6.2927,4.9411 -9.6139,7.1874 -3.3212,2.2464 -6.7312,4.357 -10.269,6.2813 -3.5384,1.9244 -7.1906,3.6687 -10.925,5.25 -3.7343,1.5814 -7.5771,3.0014 -11.487,4.2187 -3.9096,1.2174 -7.8911,2.23 -11.955,3.0626 -4.0639,0.8325 -8.1945,1.4794 -12.392,1.9062 -4.1973,0.4267 -8.4568,0.6562 -12.767,0.6562 l -99.885,0 c -1.724,0 -3.4089,0.079 -5.0879,0.25 -1.6789,0.1707 -3.3373,0.4481 -4.9631,0.7813 -3.2509,0.6659 -6.4079,1.6412 -9.3953,2.9063 -2.9876,1.2651 -5.8019,2.7965 -8.4591,4.5937 -2.6568,1.7969 -5.1382,3.8628 -7.3977,6.125 -2.2595,2.2619 -4.2916,4.7148 -6.0868,7.375 -1.7948,2.6599 -3.3559,5.5089 -4.6196,8.5 -1.2635,2.9909 -2.2377,6.1514 -2.9029,9.4063 -0.3326,1.6274 -0.5786,3.2565 -0.7491,4.9374 -0.1705,1.681 -0.281,3.3992 -0.281,5.125 l 0,150 c 0,1.7259 0.1105,3.4441 0.281,5.125 0.1705,1.6809 0.4165,3.3101 0.7491,4.9375 0.6652,3.2549 1.6394,6.4153 2.9029,9.4062 1.2637,2.9911 2.8248,5.8401 4.6196,8.5 1.7952,2.6602 3.8273,5.1131 6.0868,7.375 2.2595,2.2622 4.7409,4.3281 7.3977,6.125 2.6572,1.7972 5.4715,3.3287 8.4591,4.5938 2.9874,1.2651 6.1444,2.2715 9.3953,2.9375 1.6258,0.333 3.2842,0.5793 4.9631,0.75 1.679,0.1707 3.3639,0.25 5.0879,0.25 l 149.83,0 c 1.7237,0 3.44,-0.079 5.1191,-0.25 1.6788,-0.1707 3.3375,-0.417 4.963,-0.75 3.2511,-0.666 6.3767,-1.6724 9.3642,-2.9375 2.9875,-1.2651 5.8333,-2.7966 8.4902,-4.5938 2.657,-1.7969 5.1382,-3.8628 7.3978,-6.125 2.2593,-2.2619 4.2916,-4.7148 6.0867,-7.375 1.7951,-2.6599 3.356,-5.5089 4.6197,-8.5 1.2637,-2.9909 2.2375,-6.1513 2.9029,-9.4062 0.3325,-1.6274 0.5785,-3.2566 0.7491,-4.9375 0.1704,-1.6809 0.2498,-3.3991 0.2498,-5.125 l 0,-100 c 0,-4.3147 0.2293,-8.5793 0.6555,-12.781 0.4263,-4.2023 1.0413,-8.3688 1.8728,-12.438 0.8317,-4.0684 1.8742,-8.0547 3.0902,-11.969 1.216,-3.9141 2.6032,-7.7303 4.1827,-11.469 1.5795,-3.7388 3.3528,-7.395 5.2751,-10.938 1.922,-3.5422 3.9991,-6.9876 6.2428,-10.312 2.2437,-3.3252 4.635,-6.5384 7.1793,-9.625 2.5447,-3.0869 5.2601,-6.0476 8.0844,-8.875 2.8244,-2.8277 5.7816,-5.5149 8.8648,-8.0625 3.0833,-2.5473 6.2928,-4.9413 9.6139,-7.1875 3.3212,-2.2464 6.7314,-4.3569 10.27,-6.2812 3.5384,-1.9243 7.1903,-3.6687 10.925,-5.25 3.7342,-1.5814 7.5771,-3.0015 11.487,-4.2188 3.9095,-1.2176 7.8911,-2.2298 11.955,-3.0625 4.0639,-0.8324 8.1945,-1.4796 12.392,-1.9063 4.1972,-0.4266 8.4569,-0.625 12.767,-0.625 l 99.885,0 c 1.7237,0 3.44,-0.079 5.1191,-0.25 1.6788,-0.1706 3.3375,-0.4169 4.963,-0.75 3.2511,-0.6659 6.3767,-1.6723 9.3642,-2.9374 2.9875,-1.2652 5.8333,-2.7966 8.4902,-4.5938 2.657,-1.7969 5.1382,-3.8628 7.3978,-6.125 2.2593,-2.2619 4.2916,-4.7148 6.0867,-7.375 1.7951,-2.6599 3.356,-5.5089 4.6197,-8.5 1.2637,-2.9909 2.2375,-6.1514 2.9029,-9.4062 0.3325,-1.6275 0.5785,-3.2566 0.7491,-4.9376 0.1704,-1.6809 0.2498,-3.3991 0.2498,-5.125 l 0,-150 c 0,-1.7258 -0.08,-3.444 -0.2498,-5.125 -0.1706,-1.6809 -0.4166,-3.31 -0.7491,-4.9374 -0.6654,-3.2549 -1.6392,-6.4154 -2.9029,-9.4063 -1.2637,-2.9911 -2.8246,-5.8401 -4.6197,-8.5 -1.7951,-2.6602 -3.8274,-5.1131 -6.0867,-7.375 -2.2596,-2.2622 -4.7408,-4.3281 -7.3978,-6.125 -2.6569,-1.7972 -5.5027,-3.3286 -8.4902,-4.5937 -2.9875,-1.2652 -6.1131,-2.2404 -9.3642,-2.9063 -1.6256,-0.3332 -3.2842,-0.6105 -4.963,-0.7813 -1.6791,-0.1706 -3.3954,-0.25 -5.1191,-0.25 l -149.83,0 z"
         inkscape:connector-curvature="0"
         style="fill:#efeff5" />
      <path
         id="path4341-9-0-9-7-6-0-5"
         d="m -2376,1726.4 c -1.7257,0 -3.444,0.079 -5.125,0.25 -1.6807,0.1707 -3.3413,0.4481 -4.9687,0.7813 -3.2549,0.6659 -6.384,1.6411 -9.375,2.9062 -2.991,1.2651 -5.84,2.7966 -8.5,4.5938 -2.66,1.7969 -5.1441,3.8628 -7.4063,6.125 -2.2619,2.2619 -4.2966,4.7148 -6.0937,7.375 -1.7971,2.6599 -3.3599,5.5089 -4.625,8.5 -1.2651,2.9909 -2.2401,6.1513 -2.9063,9.4062 -0.3329,1.6274 -0.5792,3.2566 -0.75,4.9375 -0.1705,1.6809 -0.25,3.3991 -0.25,5.125 l 0,150 c 0,1.7259 0.08,3.4441 0.25,5.125 0.1708,1.6809 0.4171,3.3101 0.75,4.9375 0.6662,3.2549 1.6412,6.4153 2.9063,9.4062 1.2651,2.9911 2.8279,5.8401 4.625,8.5 1.7971,2.6602 3.8318,5.1131 6.0937,7.375 2.2622,2.2622 4.7463,4.3281 7.4063,6.125 2.66,1.7972 5.509,3.3287 8.5,4.5937 2.991,1.2651 6.1201,2.2715 9.375,2.9375 1.6274,0.333 3.288,0.5793 4.9687,0.75 1.681,0.1707 3.3993,0.25 5.125,0.25 l 150,0 c 1.726,0 3.4129,-0.079 5.0938,-0.25 1.6809,-0.1707 3.3412,-0.417 4.9688,-0.75 3.2547,-0.666 6.4152,-1.6724 9.4062,-2.9375 2.991,-1.265 5.8086,-2.7965 8.4688,-4.5937 2.6599,-1.7969 5.1441,-3.8628 7.4062,-6.125 2.2621,-2.2619 4.2966,-4.7148 6.0938,-7.375 1.7969,-2.6599 3.3598,-5.5089 4.625,-8.5 1.2649,-2.9909 2.2402,-6.1513 2.9062,-9.4062 0.333,-1.6274 0.5793,-3.2566 0.75,-4.9375 0.1707,-1.6809 0.2812,-3.3991 0.2812,-5.125 l 0,-150 c 0,-1.7259 -0.1105,-3.4441 -0.2812,-5.125 -0.1707,-1.6809 -0.417,-3.3101 -0.75,-4.9375 -0.666,-3.2549 -1.6413,-6.4153 -2.9062,-9.4062 -1.2652,-2.9911 -2.8281,-5.8401 -4.625,-8.5 -1.7972,-2.6602 -3.8317,-5.1131 -6.0938,-7.375 -2.2621,-2.2622 -4.7463,-4.3281 -7.4062,-6.125 -2.6602,-1.7972 -5.4778,-3.3287 -8.4688,-4.5938 -2.991,-1.2651 -6.1515,-2.2403 -9.4062,-2.9062 -1.6276,-0.3332 -3.2879,-0.6106 -4.9688,-0.7813 -1.6809,-0.1707 -3.3678,-0.25 -5.0938,-0.25 l -150,0 z"
         inkscape:connector-curvature="0"
         style="fill:#79ce00" />
    </g>
  </g>
</svg>
