<svg xmlns="http://www.w3.org/2000/svg" height="25" width="38.094"><g fill-rule="evenodd"><path d="M28.2.5a2.287 2.287 0 0 0-.89.18 2.263 2.263 0 0 0-1.003.827 2.288 2.288 0 0 0-.39 1.279v4.571a5.788 5.788 0 0 1-.449 2.224 5.68 5.68 0 0 1-.526.97 5.733 5.733 0 0 1-2.511 2.07 5.675 5.675 0 0 1-2.222.45h-4.566a2.287 2.287 0 0 0-.89.18 2.263 2.263 0 0 0-1.003.828 2.288 2.288 0 0 0-.39 1.278v6.857a2.326 2.326 0 0 0 .39 1.279 2.283 2.283 0 0 0 1.004.827 2.276 2.276 0 0 0 .889.18h6.849a2.315 2.315 0 0 0 .46-.046 2.262 2.262 0 0 0 .817-.344 2.303 2.303 0 0 0 .995-1.661c.007-.077.011-.156.011-.235v-4.571a5.788 5.788 0 0 1 .448-2.224 5.71 5.71 0 0 1 1.224-1.818 5.74 5.74 0 0 1 2.34-1.417 5.648 5.648 0 0 1 1.696-.255h4.566a2.315 2.315 0 0 0 .46-.046 2.261 2.261 0 0 0 .817-.344 2.303 2.303 0 0 0 .995-1.662c.007-.077.011-.155.011-.234V2.786a2.337 2.337 0 0 0-.046-.46A2.279 2.279 0 0 0 35.05.5h-6.85z" fill="#efeff5"/><path d="M3.048.5a2.32 2.32 0 0 0-.462.047 2.262 2.262 0 0 0-1.156.623 2.284 2.284 0 0 0-.668 1.616v6.857a2.334 2.334 0 0 0 .046.46 2.277 2.277 0 0 0 2.24 1.826h6.857a2.292 2.292 0 0 0 .89-.18 2.267 2.267 0 0 0 1.004-.828 2.287 2.287 0 0 0 .391-1.278V2.786a2.323 2.323 0 0 0-.391-1.279 2.284 2.284 0 0 0-1.434-.96A2.285 2.285 0 0 0 9.905.5H3.048z" fill="#79ce00"/></g></svg>