<svg xmlns="http://www.w3.org/2000/svg" width="13mm" height="9mm" viewBox="0 0 46.062992 31.889764"><g fill-rule="evenodd"><path d="M33.898 1.698a2.715 2.715 0 0 0-1.055.214 2.687 2.687 0 0 0-.86.582 2.71 2.71 0 0 0-.795 1.918v5.427a6.873 6.873 0 0 1-.532 2.64 6.745 6.745 0 0 1-.625 1.153 6.807 6.807 0 0 1-2.389 2.172 6.748 6.748 0 0 1-2.537.784 6.849 6.849 0 0 1-.693.035H18.99a2.715 2.715 0 0 0-1.056.214 2.687 2.687 0 0 0-.86.582 2.71 2.71 0 0 0-.795 1.918v8.14a2.761 2.761 0 0 0 .464 1.519 2.71 2.71 0 0 0 1.191.982 2.702 2.702 0 0 0 1.056.213h8.131a2.749 2.749 0 0 0 .547-.054 2.702 2.702 0 0 0 2.163-2.66v-5.426a6.873 6.873 0 0 1 .533-2.641 6.774 6.774 0 0 1 .625-1.153 6.803 6.803 0 0 1 2.981-2.458 6.738 6.738 0 0 1 1.945-.499c.228-.023.459-.034.693-.034h5.42a2.749 2.749 0 0 0 .548-.054c.177-.036.346-.09.508-.16a2.703 2.703 0 0 0 1.655-2.5v-8.14a2.774 2.774 0 0 0-.054-.546 2.705 2.705 0 0 0-2.656-2.168h-8.132z" fill="#efeff5"/><path d="M4.036 1.698a2.755 2.755 0 0 0-.548.056 2.686 2.686 0 0 0-1.372.74 2.712 2.712 0 0 0-.793 1.918v8.14a2.771 2.771 0 0 0 .054.547 2.703 2.703 0 0 0 1.603 1.954 2.69 2.69 0 0 0 1.056.213h8.141a2.721 2.721 0 0 0 1.057-.213 2.69 2.69 0 0 0 .861-.582 2.711 2.711 0 0 0 .796-1.918V4.412a2.758 2.758 0 0 0-.465-1.518 2.711 2.711 0 0 0-.733-.733 2.691 2.691 0 0 0-1.516-.463h-8.14z" fill="#79ce00"/></g></svg>