<svg height="32" viewBox="0 0 32 32" width="32" xmlns="http://www.w3.org/2000/svg"><g clip-rule="evenodd" fill="#121313" fill-rule="evenodd"><path d="M23.091 8.57c.147-.366-.056.134 0 0z"/><path d="M31.714 15.283l-6.989-7.029a.995.995 0 0 0-1.709.734v13.98c-.024.887 1.07 1.38 1.702.742l6.996-6.999a1.035 1.035 0 0 0 0-1.428zM25 20.559v-9.118l4.595 4.556L25 20.559zM19 13a3 3 0 1 0 0 6 3 3 0 0 0 0-6zm0 4a1 1 0 1 1 0-2 1 1 0 0 1 0 2zM11 13a3 3 0 1 0 0 6 3 3 0 0 0 0-6zm0 4a1 1 0 1 1 0-2 1 1 0 0 1 0 2zM3 13a3 3 0 1 0 0 6 3 3 0 0 0 0-6zm0 4a1 1 0 1 1 0-2 1 1 0 0 1 0 2z"/></g></svg>