<svg xmlns="http://www.w3.org/2000/svg" width="260" height="293.585" viewBox="0 0 259.99999 293.58477"><path d="M128.931 153.583c-1.475-4.913-2.949-11.053-4.18-15.966h-.241c-1.228 4.913-2.453 11.177-3.806 15.966l-4.91 17.57h18.299l-5.162-17.57z"/><path d="M243.547 105.014h-7.05V70.999c0-.214-.033-.426-.062-.642-.011-1.35-.442-2.678-1.366-3.727L178.465 1.968c-.017-.017-.034-.023-.045-.04a5.63 5.63 0 0 0-1.148-.961 6.045 6.045 0 0 0-1.512-.703c-.106-.027-.202-.071-.308-.1A5.779 5.779 0 0 0 174.13 0H35.017c-6.352 0-11.513 5.167-11.513 11.513v93.498h-7.048C7.368 105.01 0 112.376 0 121.465v85.571c0 9.085 7.368 16.458 16.456 16.458h7.048v58.578c0 6.347 5.161 11.513 11.513 11.513h189.966c6.347 0 11.513-5.166 11.513-11.513v-58.578h7.05c9.085 0 16.454-7.37 16.454-16.455v-85.57c0-9.09-7.369-16.455-16.453-16.455zM35.017 11.516h133.357v58.903c0 3.18 2.58 5.757 5.757 5.757h50.853v28.84H35.017v-93.5zm128.316 194.897h-20.147l-6.395-21.264h-23.708l-5.89 21.264H87.78l25.304-82.808h24.575l25.675 82.808zM15.652 166.24c0-28.258 20.145-43.982 45.213-43.982 9.702 0 17.082 1.968 20.396 3.68l-3.806 14.87c-3.815-1.603-9.092-3.068-15.724-3.068-14.872 0-26.426 8.96-26.426 27.396 0 16.578 9.835 27.023 26.536 27.023 5.661 0 11.925-1.225 15.614-2.699l2.82 14.623c-3.435 1.72-11.175 3.556-21.251 3.556-28.632 0-43.372-17.813-43.372-41.399zm209.332 112.715H35.017v-55.46h189.966v55.46zm8.876-82.375c-8.724 7.255-21.994 10.693-38.205 10.693-9.702 0-16.584-.619-21.254-1.231v-81.326c6.88-1.109 15.846-1.721 25.308-1.721 15.724 0 25.916 2.82 33.9 8.841 8.605 6.399 14.01 16.592 14.01 31.215 0 15.841-5.773 26.775-13.759 33.53z"/><path d="M201.674 137.37c-4.175 0-6.884.37-8.477.735v54.175c1.599.371 4.18.371 6.512.371 16.957.123 28.007-9.21 28.007-28.988.124-17.205-9.945-26.294-26.042-26.294z"/></svg>