<svg xmlns="http://www.w3.org/2000/svg" width="66.173" height="103.617" viewBox="0 0 62.038 97.141"><path d="M45.25 92.287a.32.32 0 0 1 .319-.32.32.32 0 0 1 .32.32c0 .175-.145 4.683-.32 4.683-.176 0-.32-4.508-.32-4.683zm-.54-1.779l-.64-2.746h-3.145s-.17-.245-.17-3.547c0-2.712-.062-2.998-.789-3.68-.715-.673-.97-1.352-.97-1.352v-5.528l-1.1-.16c-.826-.12-1.258-.427-1.725-1.228-.6-1.03-.624-1.882-.655-24.122l-.034-23.244H31.49v6.384c0 5.828-.05 6.399-.566 6.563-.312.099-1.043.615-1.626 1.148-1.232 1.124-2.84 1.992-4.757 2.564-1.096.328-1.358.55-1.358 1.154v.748H11.04v-.748c0-.603-.263-.826-1.358-1.154-1.749-.523-3.878-1.613-5.591-2.862l-1.359-.99V24.9H.17V.171h55.885l.035 10.702h5.776l-.043 9.6-.97.48c-.794.411-.929.669-.929 1.78 0 1.016-.135 1.335-.617 1.461-.53.139-.65.568-.84 3.006-.148 2.498-.686 4.105-2.636 4.144-.23-.402-.409-.016-.409-.016l.001 23.77h2.9v12.007h-1.126c-1.867 0-2.065.21-2.065 2.196 0 2.327-.828 3.97-2.114 4.197l-.922.162v5.523s-.26.367-.969 1.033c-.728.684-.787.964-.787 3.742 0 3.416-.301 3.804-.301 3.804h-3.026l-.609 2.747c-.304 1.369-.709 2.476-.83 2.476-.123 0-.511-1.115-.863-2.476zm2.312-26.67c.594-1.149.736-4.234.219-4.751-.183-.183-.89-.287-1.572-.23-1.197.097-1.244.146-1.346 1.379-.058.703-.012 2.033.103 2.955.197 1.59.256 1.678 1.135 1.678.722 0 1.046-.229 1.46-1.031zm-.43-36.326c.686-.068 1.297-3.54.837-4.75-.245-.642-.468-.73-1.642-.645l-1.359.099.017 2.498c.017 2.564.289 3.137 1.384 2.923.284-.055.628-.112.764-.125z" stroke="#000" stroke-width=".341"/></svg>