<svg xmlns="http://www.w3.org/2000/svg" width="96.702" height="106.667" viewBox="0 0 90.657908 99.999983"><path d="M1.583 99.732C.912 99.44.17 98.602.006 97.95c-.12-.48 1.491-13.443 2.098-16.874.22-1.247.79-4.043 1.265-6.213 1.525-6.956 1.92-11.221 1.5-16.174-.427-5.028-2.25-12.4-3.663-14.81-.827-1.412-.534-3.102.644-3.706.849-.436 3.294-1.067 5.766-1.49 6.96-1.186 16.869-.994 23.088.45 4.089.95 4.907 1.945 3.927 4.78-.6 1.733-3.312 10.956-3.637 12.368-.552 2.396-.746 5.535-.499 8.096.229 2.371.488 3.51 2.351 10.335.54 1.979 1.308 5.13 1.706 7.003 1.106 5.206 1.372 5.766 3.129 6.584 1.635.761 3.195.588 4.323-.48 1.268-1.198 1.206-.562 1.314-13.562l.099-11.85.53-.8a3.795 3.795 0 0 1 1.393-1.218c.864-.418.872-.418 21.618-.418 16.985 0 20.87.048 21.392.266.843.352 1.841 1.513 2.099 2.44.137.493.207 6.394.208 17.424v16.678l-.489.976c-.54 1.077-1.458 1.807-2.607 2.074-.42.098-19.298.173-43.06.171-34.974-.002-42.415-.049-42.918-.268zM62.86 82.056c.364-.195.381-.476.381-6.312 0-5.887-.014-6.123-.402-6.51-.39-.391-.586-.402-6.329-.346-5.601.054-5.94.078-6.205.44-.226.31-.28 1.499-.28 6.263 0 5.617.018 5.898.395 6.274.377.377.658.395 6.226.395 3.643 0 5.975-.077 6.214-.204zm21.487-.19c.377-.377.395-.658.395-6.275 0-4.764-.054-5.952-.28-6.263-.265-.362-.604-.386-6.214-.44l-5.935-.058-.5.501-.501.5.058 5.935c.054 5.61.078 5.95.44 6.214.31.227 1.498.28 6.263.28 5.617 0 5.897-.018 6.274-.395zM19.11 33.535c-1.22-.252-2.557-.89-3.739-1.782-1.395-1.054-1.777-1.172-3.352-1.04-3.523.295-6.848-1.835-7.878-5.044-.462-1.443-.473-3.905-.024-5.372.672-2.195 2.516-4.143 4.584-4.844.606-.206 1.655-.341 2.723-.353 2-.02 1.95.02 2.386-1.912.827-3.664 2.823-5.554 5.845-5.536.708.004 1.653.107 2.099.227.446.12.936.17 1.09.11.153-.058.938-.91 1.744-1.893 2.472-3.012 3.637-3.63 6.573-3.481l1.802.09 1.11-.954c1.99-1.71 3.87-2.17 5.596-1.371 2.61 1.208 3.057 4.212.97 6.522-.65.718-1.588 1.198-2.884 1.475-.443.094-.804.59-2.12 2.915-.872 1.541-1.623 3.072-1.668 3.401-.046.33-.172 1.41-.281 2.4-.347 3.153-1.47 4.507-4.622 5.579l-.96.326-.041 2.36c-.047 2.623-.296 3.432-1.606 5.216-1.62 2.206-4.802 3.49-7.347 2.962z"/></svg>