<svg xmlns="http://www.w3.org/2000/svg" width="141.932" height="106.667" viewBox="0 0 133.06095 99.999993"><path d="M0 99.424c0-1.459 2.793-5.073 6.538-8.461l4.071-3.683 1.34 1.4 1.34 1.398-4.213 4.13c-2.318 2.272-4.784 4.509-5.48 4.971-1.462.97-3.596 1.116-3.596.245zm7.663-6.3c1.805-1.822 3.117-3.479 2.914-3.682-.376-.375-6.995 5.867-6.995 6.596 0 .916.975.22 4.08-2.914zm5.515-5.62c-1.055-.97-1.919-1.948-1.919-2.176 0-.227 6.227-6.63 13.839-14.228l13.838-13.814 2.096 2.23 2.096 2.23-13.756 13.763c-7.566 7.57-13.873 13.762-14.015 13.76-.143 0-1.123-.795-2.179-1.765zm13.61-14.57c7.076-7.017 12.702-12.92 12.502-13.12-.332-.333-26.016 24.398-26.41 25.43-.69 1.8 2.708-1.206 13.907-12.31zm15.487-14.348c-4.162-4.22-7.466-7.967-7.341-8.325.124-.358.778-.58 1.454-.493l3.3.427c1.192.155 2.764-.021 3.702-.414.897-.376 11.887-10.126 24.422-21.666C80.348 16.575 91.135 6.902 91.784 6.62c.65-.281 1.913-1.13 2.808-1.888C97.685 2.115 102.784-.017 105.909 0c4.89.027 9.686 3.27 12.085 8.172 1.132 2.314 1.334 3.318 1.158 5.751-.373 5.168-1.735 7.108-13.052 18.596-6.302 6.397-10.693 11.273-11.161 12.394-.96 2.297-.995 5.988-.079 8.182.982 2.35 5.5 6.253 7.96 6.877 2.702.686 6.423-.036 8.73-1.693.994-.715 2.904-2.078 4.243-3.03 3.503-2.488 7.069-3.185 10.78-2.105 2.706.786 6.488 3.39 6.488 4.467 0 1.173-1.579.856-4.061-.814-2.23-1.5-3.15-1.812-5.33-1.803-3.014.014-6.013 1.217-8.555 3.435-3.158 2.756-6.026 3.925-9.69 3.951-3.963.028-6.46-1.04-9.478-4.06-2.885-2.885-4.043-5.518-4.055-9.222-.018-5.159 1.176-6.902 12.793-18.68 5.69-5.77 10.723-11.236 11.182-12.146 1.42-2.815 1.576-5.829.434-8.41-1.16-2.62-4.02-5.6-6.511-6.783-2.34-1.11-6.162-1.021-8.691.204-1.943.94-5.91 5.405-5.91 6.651 0 .29-9.73 10.677-21.622 23.085-11.892 12.407-22.015 23.288-22.496 24.18-1.005 1.865-1.152 4.265-.384 6.284.403 1.062.366 1.568-.156 2.089-.576.576-1.918-.56-8.256-6.986z"/></svg>