<svg xmlns="http://www.w3.org/2000/svg" width="320" height="172.212" viewBox="0 0 299.99999 161.44907"><path d="M58.764 0L17.642 113.012h90.246L117.792 0H58.764zM119.245 9.587l-8.505 96.109h2.641l7.263-78.44 9.614-7.554 5.784-.052h.132a3.887 3.887 0 0 0 1.426-.29c.45-.191.848-.453 1.189-.793.34-.34.602-.739.792-1.189.19-.45.29-.96.29-1.479l.74-6.312h-21.366zM23.268 115.31a9.273 9.273 0 0 0-3.618.713 9.196 9.196 0 0 0-2.932 1.98 9.385 9.385 0 0 0-2.007 2.932v.053c-.126.3-.25.608-.344.924L0 161.45h300l-14.579-39.986-.29-.792c-.461-.99-1.06-1.904-1.823-2.668-.84-.84-1.821-1.537-2.931-2.007-1.07-.452-2.257-.668-3.486-.687H23.268z"/><path d="M122.474 31.917h16.603v8.935l-3.346 3.342v41.502l-5.213 4.905h-8.438l-3.968-4.905zM122.244 92.459h8.409v6.757h-2.803l-1.401 6.136-1.402-6.136h-2.803z"/></svg>