<svg xmlns="http://www.w3.org/2000/svg" width="269.771" height="348.449" viewBox="0 0 252.91 326.671"><path d="M113.413 326.179c-14.526-.861-21.957-2.232-32.843-6.06-16.659-5.857-27.456-13.673-30.584-22.14-1.33-3.604-1.684-17.48-2.512-98.61-.767-75.185-1.228-94.655-2.262-95.593-.715-.648-5.124-2.65-9.8-4.448C19.21 93.096 8.875 86.145 3.757 78.038 1.81 74.952 1.247 72.303.626 63.28.21 57.234.114 52.285.414 52.285c.3 0 1.418 1.623 2.486 3.606 6.474 12.022 32.303 24.55 63.513 30.806 22.753 4.56 40.52 5.91 69.5 5.283 32.587-.706 52.588-3.574 75.09-10.769 15.552-4.972 24.038-9.374 34.488-17.89l4.252-3.465-.647 9.846c-.746 11.357-2.101 13.874-11.018 20.46-6.893 5.093-12.129 7.706-24.165 12.057l-10 3.616-.737 38.975c-.405 21.436-1.081 64.625-1.502 95.975l-.765 57-2.546 4.199c-3.48 5.738-8.814 9.81-19.45 14.85-11.158 5.286-22.975 8.239-36 8.995-5.5.319-11.8.681-14 .805-2.2.124-9.175-.08-15.5-.455zm-3-261.562c-18.258-2.891-29.731-6.659-35.524-11.666-3.004-2.596-3.807-4.035-3.996-7.157-.355-5.836 1.081-8.727 5.781-11.64 11.008-6.822 27.17-10.148 49.239-10.132 32.957.024 57.5 8.911 57.5 20.821 0 11.791-25.024 20.626-57.5 20.3-7.15-.072-14.125-.308-15.5-.526z"/><path d="M128.169.527c162.79-1.908 169.628 97.299-3.352 91.638C-48.163 86.505-34.62 2.435 128.17.527z" fill="none" stroke="#000"/></svg>