<svg xmlns="http://www.w3.org/2000/svg" width="74.166" height="99.197" viewBox="0 0 69.531 92.997"><path d="M14.212 83.269l.05-9.728-4.15-4.143-4.15-4.143V54.98l-1.31-.5c-1.526-.583-3.227-2.18-3.981-3.737-.791-1.633-.904-4.793-.223-6.233.733-1.548 2.857-3.578 4.244-4.053 1.656-.567 4.521-.487 5.77.162 3.45 1.795 5.174 5.556 4.164 9.083-.506 1.765-2.9 4.33-4.55 4.875l-1.115.368V63.97l3.854 3.788c2.12 2.083 4.01 4.083 4.2 4.443.242.458.346 3.696.346 10.725v10.07h-3.2l.051-9.728zm-5.13-31.96c1.04-.396 2.58-2.595 2.58-3.687 0-2.254-1.835-4.122-4.05-4.123-3.429-.002-5.265 3.117-3.65 6.2.842 1.607 3.188 2.344 5.12 1.61zm15.18 24.084V57.788l-2.428-2.487-2.428-2.487.062-4.284c.034-2.355.047-10.905.028-18.998l-.035-14.714-1.084-.393c-1.276-.46-3.278-2.19-3.877-3.35C11.846 5.942 15.352.01 21.046 0c4.3-.007 7.49 3.128 7.49 7.36 0 3.131-1.98 6.086-4.752 7.088-.833.3-.99.524-1.119 1.575-.082.673-.123 9.021-.092 18.552l.057 17.327 2.316 2.33 2.315 2.328v36.437h-3V75.393zm-.529-64.811c2.124-1.922 1.78-5.567-.644-6.82-1.839-.952-4.374-.302-5.438 1.392-.946 1.507-.698 3.873.535 5.107 1.477 1.476 4.103 1.628 5.547.32zM34.596 79.5l.015-13.498-1.74-1.712-1.739-1.712.033-6.165c.055-10.334.047-10.516-.437-10.516-.618 0-2.593-1.209-3.423-2.096a7.458 7.458 0 0 1-1.091-8.68c3.755-6.81 14.007-4.171 14.007 3.605 0 2.945-1.413 5.152-4.262 6.656-1.26.664-1.36.808-1.528 2.188-.099.812-.206 4.227-.237 7.589l-.058 6.111 1.813 1.888 1.812 1.887v27.952h-3.18l.015-13.497zm.361-37.356a4.09 4.09 0 0 0 .643-6.348c-2.653-2.653-6.839-.824-6.839 2.988 0 3.105 3.604 5.06 6.196 3.36zm7.004 33.266V57.824l2.475-2.536 2.475-2.536.057-8.752c.03-4.814-.02-9.872-.112-11.24-.167-2.483-.168-2.486-1.181-2.909-2.922-1.22-4.688-3.824-4.67-6.886.018-3.099 1.413-5.428 4.106-6.857 1.583-.84 4.914-.903 6.483-.122 4.466 2.224 5.685 7.651 2.605 11.602-.738.946-2.928 2.406-3.613 2.408-.342 0-.526.235-.53.676l-.05 12.075-.048 11.4-2.498 2.57-2.499 2.57v33.71h-3V75.41zm8.275-48.895c2.315-1.098 2.992-4.324 1.31-6.24-1.758-2.001-4.3-2.093-6.096-.218-.878.916-1.314 2.703-.982 4.025.206.82 1.55 2.267 2.443 2.632.967.394 2.235.319 3.325-.199zm.125 59.354V78.74l5.1-5.093 5.1-5.093V46.588l-1.272-.57c-2.718-1.22-4.347-3.41-4.636-6.234-.69-6.732 7.062-10.774 12.332-6.43 3.778 3.114 3.26 9.736-.948 12.088-.743.415-1.604.755-1.913.755-.54 0-.563.464-.563 11.778v11.779l-5.1 5.093-5.1 5.093V92.997h-3zm13.494-43.197c1.59-.799 2.491-2.331 2.316-3.934-.256-2.332-1.924-3.79-4.297-3.754-1.64.025-2.935.978-3.563 2.622-1.36 3.56 2.154 6.77 5.544 5.066z"/></svg>