<?xml version="1.0" encoding="UTF-8" standalone="no"?>
<!-- Created with Inkscape (http://www.inkscape.org/) -->

<svg
   xmlns:dc="http://purl.org/dc/elements/1.1/"
   xmlns:cc="http://creativecommons.org/ns#"
   xmlns:rdf="http://www.w3.org/1999/02/22-rdf-syntax-ns#"
   xmlns:svg="http://www.w3.org/2000/svg"
   xmlns="http://www.w3.org/2000/svg"
   xmlns:sodipodi="http://sodipodi.sourceforge.net/DTD/sodipodi-0.dtd"
   xmlns:inkscape="http://www.inkscape.org/namespaces/inkscape"
   width="19.623096mm"
   height="26.245844mm"
   viewBox="0 0 69.530657 92.997084"
   id="svg2"
   version="1.1"
   inkscape:version="0.91 r13725"
   sodipodi:docname="trfaces.svg">
  <defs
     id="defs4" />
  <sodipodi:namedview
     id="base"
     pagecolor="#ffffff"
     bordercolor="#666666"
     borderopacity="1.0"
     inkscape:pageopacity="0.0"
     inkscape:pageshadow="2"
     inkscape:zoom="5.6"
     inkscape:cx="21.621463"
     inkscape:cy="22.066591"
     inkscape:document-units="px"
     inkscape:current-layer="layer1"
     showgrid="false"
     fit-margin-top="0"
     fit-margin-left="0"
     fit-margin-right="0"
     fit-margin-bottom="0"
     inkscape:window-width="1920"
     inkscape:window-height="1027"
     inkscape:window-x="-8"
     inkscape:window-y="1072"
     inkscape:window-maximized="1" />
  <metadata
     id="metadata7">
    <rdf:RDF>
      <cc:Work
         rdf:about="">
        <dc:format>image/svg+xml</dc:format>
        <dc:type
           rdf:resource="http://purl.org/dc/dcmitype/StillImage" />
        <dc:title></dc:title>
      </cc:Work>
    </rdf:RDF>
  </metadata>
  <g
     inkscape:label="Layer 1"
     inkscape:groupmode="layer"
     id="layer1"
     transform="translate(-387.38155,-335.72222)">
    <g
       id="g4225" />
    <path
       style="fill:#000000"
       d="m 401.59369,418.99111 0.0507,-9.72818 -4.15074,-4.1428 -4.15074,-4.14279 0,-5.13826 0,-5.13826 -1.30925,-0.50001 c -1.52585,-0.58273 -3.22688,-2.17918 -3.98139,-3.73661 -0.79109,-1.63296 -0.9041,-4.79307 -0.22287,-6.23266 0.73287,-1.54873 2.85764,-3.57788 4.24395,-4.05298 1.65639,-0.56765 4.52121,-0.48726 5.76956,0.1619 3.45059,1.79435 5.17499,5.55547 4.1643,9.08287 -0.50581,1.76533 -2.89992,4.33017 -4.55037,4.87487 l -1.11393,0.36763 0,4.51357 0,4.51356 3.85387,3.78817 c 2.11962,2.08349 4.00962,4.08305 4.2,4.44345 0.24162,0.45742 0.34613,3.69574 0.34613,10.725 l 0,10.06972 -1.59992,0 -1.59992,0 0.0507,-9.72819 z m -5.13037,-31.96058 c 1.04077,-0.39569 2.57955,-2.59446 2.57955,-3.6859 0,-2.2548 -1.83434,-4.12253 -4.05,-4.12374 -3.42833,-0.002 -5.26424,3.11753 -3.64908,6.20017 0.84183,1.60668 3.18738,2.34408 5.11953,1.60947 z m 15.17955,24.08425 0,-17.60452 -2.42759,-2.48709 -2.42759,-2.48709 0.062,-4.28339 c 0.0341,-2.35586 0.0465,-10.90502 0.0276,-18.99812 l -0.0344,-14.71474 -1.0844,-0.39212 c -1.27587,-0.46136 -3.27744,-2.19103 -3.87689,-3.35024 -2.65427,-5.1328 0.85227,-11.06562 6.54593,-11.07524 4.29979,-0.007 7.49036,3.12752 7.49036,7.35939 0,3.13168 -1.98101,6.08629 -4.75276,7.08857 -0.83218,0.30091 -0.99043,0.52373 -1.11849,1.57481 -0.082,0.67336 -0.12337,9.02171 -0.0919,18.55189 l 0.0573,17.32758 2.31539,2.32905 2.31539,2.32905 0,18.21837 0,18.21836 -1.5,0 -1.5,0 0,-17.60452 z m -0.52795,-64.81069 c 2.12398,-1.92217 1.77989,-5.56684 -0.64389,-6.82023 -1.83943,-0.9512 -4.3748,-0.30206 -5.43829,1.39239 -0.94607,1.50736 -0.69808,3.8733 0.53525,5.10663 1.47622,1.47622 4.10261,1.62831 5.54693,0.32121 z m 10.86248,68.9178 0.0154,-13.49741 -1.73952,-1.71208 -1.73952,-1.71208 0.0326,-6.16551 c 0.0547,-10.33316 0.0472,-10.51551 -0.43644,-10.51551 -0.61867,0 -2.59324,-1.20889 -3.423,-2.09565 -2.20091,-2.35213 -2.64287,-5.86779 -1.09133,-8.68122 3.75533,-6.80959 14.00718,-4.17017 14.00718,3.60626 0,2.94419 -1.41341,5.15106 -4.26237,6.65519 -1.25906,0.66473 -1.35946,0.80857 -1.52756,2.18846 -0.099,0.81232 -0.20585,4.22711 -0.23755,7.58841 l -0.0576,6.11145 1.81255,1.88758 1.81255,1.88759 0,13.97596 0,13.97597 -1.59047,0 -1.59046,0 0.0155,-13.49741 z m 0.36152,-37.35518 c 2.19719,-1.43965 2.50576,-4.48561 0.6431,-6.34826 -2.65325,-2.65325 -6.83915,-0.8243 -6.83915,2.98824 0,3.10434 3.60373,5.05858 6.19605,3.36002 z m 7.00395,33.26593 0,-17.58665 2.475,-2.53566 2.475,-2.53566 0.0562,-8.75268 c 0.0309,-4.81398 -0.0192,-9.87147 -0.11142,-11.23888 -0.16752,-2.48423 -0.16845,-2.48652 -1.18112,-2.90964 -2.9222,-1.22098 -4.68761,-3.82439 -4.66994,-6.88669 0.0179,-3.09828 1.41248,-5.42715 4.10624,-6.85704 1.58276,-0.84015 4.91368,-0.9026 6.48227,-0.12153 4.46654,2.22406 5.68514,7.65138 2.60508,11.60227 -0.73751,0.94602 -2.9279,2.40586 -3.61235,2.40754 -0.34274,9e-4 -0.52654,0.23561 -0.52944,0.67628 -0.002,0.37125 -0.0257,5.805 -0.0516,12.075 l -0.0472,11.4 -2.49835,2.56952 -2.49835,2.56952 0,16.85548 0,16.85548 -1.5,0 -1.5,0 0,-17.58666 z m 8.27493,-48.89528 c 2.31431,-1.09821 2.99165,-4.32409 1.31008,-6.23931 -1.75803,-2.00227 -4.3005,-2.09357 -6.09653,-0.21892 -0.87744,0.91585 -1.31337,2.70332 -0.98163,4.02506 0.20594,0.82051 1.54895,2.26751 2.44315,2.6323 0.96627,0.3942 2.23466,0.31824 3.32493,-0.19913 z m 0.12507,59.35363 0,-7.12831 5.1,-5.09338 5.1,-5.09338 0,-10.98275 0,-10.98274 -1.27227,-0.57057 c -2.7176,-1.21874 -4.34711,-3.40969 -4.63639,-6.23384 -0.68953,-6.73176 7.06244,-10.77413 12.33186,-6.43062 3.77865,3.11467 3.25967,9.73723 -0.94732,12.08856 -0.7433,0.41544 -1.60445,0.75534 -1.91367,0.75534 -0.54007,0 -0.56221,0.46387 -0.56221,11.77831 l 0,11.77831 -5.1,5.09338 -5.1,5.09338 0,6.52831 0,6.52831 -1.5,0 -1.5,0 z m 13.49402,-43.19716 c 1.58904,-0.79836 2.49114,-2.33096 2.31546,-3.9338 -0.25559,-2.33191 -1.92355,-3.78888 -4.297,-3.75345 -1.63913,0.0245 -2.93506,0.9781 -3.56275,2.62168 -1.3594,3.55954 2.15353,6.76915 5.54429,5.06557 z"
       id="path4296"
       inkscape:connector-curvature="0"
       sodipodi:nodetypes="ccccccssssssscccscsccccccscscccccsscsscsccscccccccccsssssccccsssssscscccccccccssssccccsssssssccscccccccccssssssccccccssssssccccccccsscss" />
  </g>
</svg>
