<?xml version="1.0" encoding="UTF-8" standalone="no"?>
<!-- Created with Inkscape (http://www.inkscape.org/) -->

<svg
   xmlns:dc="http://purl.org/dc/elements/1.1/"
   xmlns:cc="http://creativecommons.org/ns#"
   xmlns:rdf="http://www.w3.org/1999/02/22-rdf-syntax-ns#"
   xmlns:svg="http://www.w3.org/2000/svg"
   xmlns="http://www.w3.org/2000/svg"
   xmlns:sodipodi="http://sodipodi.sourceforge.net/DTD/sodipodi-0.dtd"
   xmlns:inkscape="http://www.inkscape.org/namespaces/inkscape"
   width="17.508392mm"
   height="27.41527mm"
   viewBox="0 0 62.03761 97.14072"
   id="svg2"
   version="1.1"
   inkscape:version="0.91 r13725"
   sodipodi:docname="drill.svg">
  <defs
     id="defs4" />
  <sodipodi:namedview
     id="base"
     pagecolor="#ffffff"
     bordercolor="#666666"
     borderopacity="1.0"
     inkscape:pageopacity="0.0"
     inkscape:pageshadow="2"
     inkscape:zoom="2.8284271"
     inkscape:cx="39.567476"
     inkscape:cy="65.327778"
     inkscape:document-units="px"
     inkscape:current-layer="layer1"
     showgrid="false"
     fit-margin-top="0"
     fit-margin-left="0"
     fit-margin-right="0"
     fit-margin-bottom="0"
     inkscape:window-width="1920"
     inkscape:window-height="1027"
     inkscape:window-x="-8"
     inkscape:window-y="1072"
     inkscape:window-maximized="1"
     showguides="true"
     inkscape:guide-bbox="true"
     inkscape:snap-bbox="true"
     inkscape:snap-smooth-nodes="false"
     inkscape:snap-midpoints="true"
     inkscape:object-nodes="true"
     inkscape:snap-intersection-paths="true"
     inkscape:object-paths="false">
    <sodipodi:guide
       position="62.3734,-6.5426777"
       orientation="0,1"
       id="guide4134" />
  </sodipodi:namedview>
  <metadata
     id="metadata7">
    <rdf:RDF>
      <cc:Work
         rdf:about="">
        <dc:format>image/svg+xml</dc:format>
        <dc:type
           rdf:resource="http://purl.org/dc/dcmitype/StillImage" />
        <dc:title></dc:title>
      </cc:Work>
    </rdf:RDF>
  </metadata>
  <g
     inkscape:label="Layer 1"
     inkscape:groupmode="layer"
     id="layer1"
     transform="translate(-319.40894,-540.66669)">
    <path
       style="fill:#000000;stroke:#000000;stroke-width:0.34079796"
       d="m 364.65814,632.95334 c 0,-0.17572 0.14378,-0.3195 0.3195,-0.3195 0.17573,0 0.3195,0.14378 0.3195,0.3195 0,0.17572 -0.14377,4.68367 -0.3195,4.68367 -0.17572,0 -0.3195,-4.50795 -0.3195,-4.68367 z m -0.53915,-1.77824 -0.64068,-2.74601 -3.14482,0 c 0,0 -0.17042,-0.24552 -0.17042,-3.5475 0,-2.71237 -0.0611,-2.99781 -0.78772,-3.68045 -0.71568,-0.67234 -0.97001,-1.35105 -0.97001,-1.35105 l 0,-5.52851 -1.10112,-0.15975 c -0.82577,-0.1198 -1.25748,-0.42718 -1.72413,-1.22784 -0.60054,-1.03037 -0.6237,-1.88215 -0.65563,-24.12211 l -0.0331,-23.24379 -3.99372,0 0,6.38325 c 0,5.82865 -0.0492,6.3993 -0.566,6.56332 -0.3113,0.0988 -1.04302,0.61534 -1.62606,1.14786 -1.23133,1.12465 -2.83966,1.9917 -4.75702,2.56452 -1.09543,0.32726 -1.35787,0.55027 -1.35787,1.15384 l 0,0.74817 -6.07047,0 -6.07046,0 0,-0.74817 c 0,-0.60351 -0.26255,-0.82669 -1.35787,-1.15423 -1.7485,-0.52287 -3.87792,-1.61301 -5.59121,-2.86238 l -1.35834,-0.99019 0,-12.80599 -2.563,0 0,-24.731 55.88429,0 0.0352,10.703 5.77656,0 -0.043,9.60007 -0.97095,0.48007 c -0.794,0.41051 -0.92836,0.66809 -0.92836,1.77969 0,1.01591 -0.13482,1.33496 -0.61748,1.46117 -0.5293,0.13842 -0.64926,0.56764 -0.83996,3.00533 -0.14795,2.49788 -0.68587,4.10483 -2.63541,4.14396 -0.23064,-0.40183 -0.4088,-0.016 -0.4088,-0.016 l 9.1e-4,23.76971 2.9,0 0,12.00799 -1.12619,0 c -1.86733,0 -2.06508,0.21027 -2.06508,2.19578 0,2.32715 -0.82765,3.97018 -2.11395,4.1966 l -0.92178,0.16217 0,5.52346 c 0,0 -0.26123,0.3668 -0.96942,1.03212 -0.72847,0.68436 -0.78735,0.96421 -0.78735,3.74203 0,3.41682 -0.30089,3.8049 -0.30089,3.8049 l -3.02569,-5e-5 -0.60899,2.74622 c -0.30363,1.36919 -0.70884,2.47612 -0.83088,2.47612 -0.12204,0 -0.51019,-1.11425 -0.86257,-2.47612 z m 2.31182,-26.67079 c 0.5938,-1.14828 0.73601,-4.2339 0.21897,-4.75095 -0.18262,-0.18262 -0.89014,-0.28628 -1.57226,-0.23036 -1.19634,0.0981 -1.24395,0.14689 -1.34553,1.37966 -0.0579,0.7029 -0.0116,2.03281 0.10286,2.95536 0.19738,1.59038 0.25626,1.67736 1.13548,1.67736 0.72169,0 1.04552,-0.22861 1.46048,-1.03107 z m -0.42899,-36.32576 c 0.68477,-0.0676 1.29568,-3.53941 0.83569,-4.74927 -0.24425,-0.64244 -0.46731,-0.73012 -1.64144,-0.64518 l -1.35877,0.0983 0.0168,2.49815 c 0.0172,2.56421 0.28841,3.13697 1.38387,2.92321 0.28397,-0.0554 0.6277,-0.11175 0.76384,-0.1252 z"
       id="path4147"
       inkscape:connector-curvature="0"
       sodipodi:nodetypes="ssssscccscccsssccssssscccssscccccccccscccccccsssccssccssccsscccsscssccccc" />
  </g>
</svg>
