<svg xmlns="http://www.w3.org/2000/svg" width="41.688" height="107.271" viewBox="0 0 11.029655 28.38197"><path d="M1.972 25.678s-.257-.42.126-.812c.275-.28.517-20.873.25-21.142-.092-.092-.5-.227-.908-.301C.412 3.236.264 3.109.264 2.407.264 1.54.7 1.27 3.071.66c2.952-.758 5.944-.385 6.317.789.095.299.396.544.668.544.668 0 .82.318.624 1.3-.142.71-.328.867-1.321 1.117l-1.157.291-.016 2.02c-.022 2.896-.493 14.13-.68 16.242-.11 1.222-.058 1.91.16 2.173.532.641.095 2.396-.685 2.751-.488.26-1.413.324-2.349.03" fill="none" stroke="#f0f000" stroke-width=".529"/></svg>