<svg xmlns="http://www.w3.org/2000/svg" width="50.132" height="152.062" viewBox="0 0 13.263807 40.232909"><path d="M1.83 29.139l.183-3.194-.825-.603c-.75-.549-.825-.735-.825-2.056 0-1.293.073-1.486.661-1.755.653-.297.662-.345.662-3.49 0-3.159-.007-3.194-.725-3.767-.769-.612-.807-.917-.558-4.468.082-1.176.158-1.321.687-1.302.688.024.761-.363.207-1.095C1.013 7.033.907 6.132.9 4.057c-.008-2.73.017-2.855.645-3.266C2.3.296 6.31.081 7.705.459 9.02.816 9.415 2.025 9.31 5.371c-.065 2.097-.003 2.74.274 2.847.23.088.303.361.201.765-.186.741.287 2.259.723 2.322.168.025.66.054 1.092.066 1.005.028 1.592 1.097 1.34 2.442-.147.78-.36 1.001-1.414 1.463-.683.3-1.63.534-2.102.521l-.86-.022v6.4l.77-.154c.551-.11.814-.039.925.252.111.289.441.381 1.142.32.86-.076 1.031.007 1.348.663.222.457.298 1.096.197 1.638-.142.754-.386.996-1.613 1.596-.857.42-1.71.657-2.094.584-.594-.114-.655-.033-.728.961-.101 1.384.122 4.69.114 5.524m-.187 6.042c-1.277.214-4.112.575-5.28.205" fill="none" stroke="#f0f000" stroke-width=".529"/></svg>