<svg width="190.386" height="58.001" viewBox="0 0 50.373448 15.345807" xmlns="http://www.w3.org/2000/svg"><path d="M30.794 14.85c0-.127-.357-.303-.794-.39-.86-.172-.999-.656-.536-1.875l.258-.679h.803c.985 0 16.002-7.45 16.234-8.053.11-.289.512-.413 1.335-.413 1.694 0 2.015.187 2.015 1.175v.854l-8.679 4.542c-4.773 2.497-8.88 4.541-9.128 4.541-.247 0-.45.12-.45.265s-.238.264-.529.264c-.29 0-.529-.104-.529-.231zm-17-9.105c-.466 0-7.693 3.277-9.104 4.034-.555.297-1.218.54-1.475.54-.257 0-.467.119-.467.265s-.179.264-.397.264-.397-.104-.397-.231c0-.128-.37-.306-.823-.397l-.824-.164.186-.993c.102-.546.24-1.049.308-1.117.068-.069.801-.155 1.63-.193l1.507-.068 9.507-3.846m6.454-2.623l.728-.951h1.194c1.307 0 1.829.339 1.829 1.186 0 .56-.853 1.129-1.588 1.129" fill="none" stroke="#f0f000" stroke-width=".529"/></svg>