<svg xmlns="http://www.w3.org/2000/svg" width="197.696" height="59.666" viewBox="0 0 52.306935 15.786516"><path d="M30.69 14.754c-.145-1.017.687-1.802 1.42-1.802.775 0 16.022-8.653 16.431-8.91 1.24-1.028 3.554-.42 3.5.871-.078.687-16.547 10.258-16.547 10.258-1.737.55-2.685.514-4.803-.417zM14.52 6.072c-.437 0-9.66 4.042-9.75 4.273-.048.125-.243.226-.432.226-.19 0-.686.178-1.103.395-.853.446-1.115.467-1.684.138-.218-.127-.62-.3-.892-.385-.4-.126-.462-.319-.325-1.004.232-1.163.412-1.285 2.043-1.387l12.278-4.931m4.276-1.77S21.6.26 22.69.264c.774.324 1.336.474 1.348 1.458.003.265-.684.574-1.199.574" fill="none" stroke="#f0f000" stroke-width=".529"/></svg>