<svg width="52.248" height="152.455" viewBox="0 0 13.824294 40.337421" xmlns="http://www.w3.org/2000/svg"><path d="M2.236 29.15c.073-1.88.137-3.199-.288-3.34-.854-.285-1.404-1.08-1.532-2.214L.28 22.381l.593-.527c.326-.29.817-.72 1.09-.957l.496-.43v-5.82h-.489c-1.279 0-2.039-2.77-1.063-3.875.29-.328.39-.777.301-1.351l-.132-.86h.691c.823 0 .825-.014.21-1.267l-.482-.982.151-2.643.151-2.644.671-.32C3.338.289 6.14.128 7.837.396c.986.156 1.492.404 1.937.947l.602.736.01 2.696c.006 1.606-.103 2.766-.268 2.868-.176.108-.186.284-.028.478.137.17.254.84.261 1.49.016 1.43.567 1.961 1.83 1.764l.86-.135.265.495c.307.574.347 2.377.062 2.81-.364.552-2.42 1.424-3.359 1.424h-.936v6.086h.794c.436 0 .793.119.793.264s.522.265 1.159.265h1.158l.322.776c.525 1.269.135 2.273-1.182 3.046-.655.383-1.563.676-2.1.676h-.944l-.036.86c-.088 2.13.1 5.293.45 7.537.52 3.346.51 3.428-.455 3.927-1.142.59-4.439.91-5.887.436" fill="none" stroke="#f0f000" stroke-width=".529"/></svg>