<svg width="47.841" height="143.051" viewBox="0 0 12.658099 37.849014" xmlns="http://www.w3.org/2000/svg"><path d="M1.941 27.12l-.09-2.58-.68-.533-.678-.534v-2.595l.662-.433.661-.434v-5.989l-.5-.159c-.757-.24-1.11-1.411-1.043-3.457.068-2.054.314-2.595 1.07-2.355l.512.163-.381-.752c-.21-.413-.462-1.883-.56-3.265L.736 1.683l.349-.477C1.52.61 3.089.233 4.99.266c2.337.04 2.926.257 3.487 1.285l.506.926-.062 2.56C8.88 6.798 8.966 7.721 9.198 8c.185.224.258.533.163.688-.096.154-.037.695.13 1.202l.304.92h1.028c.746 0 1.104.141 1.303.512.373.698.344 1.939-.057 2.474-.377.501-2.335 1.248-3.275 1.248h-.628v5.82h.794c.437 0 .794.129.794.286 0 .165.397.25.95.203.698-.06 1.05.053 1.323.427.396.541.494 1.931.17 2.423-.348.529-2.402 1.424-3.266 1.424h-.844l.173 2.845c.095 1.564.392 4.003.66 5.42l.488 2.575-.422.375c-.957.849-4.042.87-5.867.55" fill="none" stroke="#f0f000" stroke-width=".529"/></svg>