<svg xmlns="http://www.w3.org/2000/svg" width="127.771" height="81.736" viewBox="0 0 33.805729 21.625999"><path d="M28.662 21.23c-.505-.097-.595-.284-.595-1.234 0-.616.112-1.232.25-1.37.138-.139.323-1.68.412-3.427.16-3.111.784-7.618 1.22-8.797.15-.404.438-.596.895-.596.45 0 .756.198.92.596.477 1.156 1.065 6.076 1.065 8.918 0 2.231.102 3.056.452 3.666.59 1.03.228 1.493-1.59 2.033-1.327.394-1.879.432-3.029.21zm-9.327-2.163c-.536-.15-.677-.377-.745-1.201-.047-.56.043-1.144.198-1.3.165-.164.283-1.45.283-3.089 0-2.408.654-7.304 1.21-9.057.172-.54 1.24-.628 1.636-.135.515.641 1.107 5.403 1.14 9.169.02 2.215.128 3.658.258 3.447.18-.292.263-.266.414.127.104.27.069.684-.078.919-.461.74-3.166 1.442-4.316 1.12zm-9.26-2.122c-.817-.222-1.024-1.356-.416-2.283.321-.49.416-1.376.417-3.885 0-3.266.593-7.719 1.11-8.341.399-.48 1.212-.41 1.493.13.498.953 1.1 5.66 1.1 8.598 0 2.383.086 3.116.397 3.374.966.801.135 1.886-1.72 2.242-.51.098-1.104.216-1.323.262-.218.045-.694.002-1.058-.097zm-9.194-2.14c-.557-.234-.838-.797-.397-.797.254 0 .299-.4.559-5.027.215-3.84.647-7.019 1.104-8.136.29-.71 1.192-.787 1.541-.132.451.847 1.063 4.919 1.243 8.268.127 2.366.291 3.437.576 3.76.22.25.327.642.238.872-.334.871-3.676 1.69-4.864 1.191z" fill="none" stroke="#f0f000" stroke-width=".529"/></svg>