<svg width="118.617" height="76.369" viewBox="0 0 31.384309 20.205757" xmlns="http://www.w3.org/2000/svg"><path d="M26.738 14.08c.013-1.958.218-3.933.595-5.758l.575-2.778.728-.084.727-.084.229.613c.55 1.472 1.135 6.993.956 9.014-.135 1.532-.093 2.168.164 2.478.585.705.539 1.389-.124 1.823-.685.449-3.885.839-4.201.512-.336-3.44.305-.732.351-5.736zm-9.108 3.854l-.49-.136.167-.968c.092-.532.277-2.634.412-4.672.294-4.437.997-8.029 1.651-8.437l.458-.285.39.392c.214.216.646 1.821.96 3.568l.573 3.175-.163 2.354c-.089 1.295-.057 2.486.07 2.646.128.16.315.562.416.892l.185.6-.88.367c-1.026.428-3.046.699-3.75.504zM9.04 15.98c-.337-.135-.534-.372-.438-.527.3-.487.43-1.588.67-5.676.275-4.657.74-7.244 1.376-7.646l.45-.283.432.434c.634.633 1.404 5.197 1.417 8.4l.012 2.757.438.484c.485.718.088 1.16-.1 1.333-.259.228-1.101.547-1.872.709-1.616.339-1.578.339-2.385.015zM.722 14.237c-.497-.143-.624-.757-.21-1.013.14-.086.19-.32.114-.518-.076-.2-.011-.44.144-.537.175-.107.283-1.36.284-3.268 0-3.504.579-7.622 1.149-8.192l.382-.382.49.285.491.285c.81.78.436 2.007 1.059 8.076.076 1.595.255 3.018.4 3.162.485.486.266 1.198-.491 1.59-.82.423-3.07.726-3.812.512z" fill="none" stroke="#f0f000" stroke-width=".529"/></svg>