<svg width="35.637" height="97.429" viewBox="0 0 9.4289386 25.777971" xmlns="http://www.w3.org/2000/svg"><path d="M5.093 25.5c-.11-.11-.198-.788-.198-1.505V22.69l-.53-.138c-.29-.076-.529-.278-.529-.449s-.238-.777-.529-1.348c-.291-.57-.53-1.357-.53-1.747V18.3l-1.256-.23-1.257-.23V15.2l.596-.084c.327-.047.595-.196.595-.331s.298-.246.661-.246h.662V9.6L1.52 9.357.264 9.115V6.493l.662-.155.661-.155.08-1.233.08-1.232.515-.164.514-.163-.057-1.32c-.04-.922.06-1.394.331-1.566C3.484.231 6.733.161 7.386.412l.419.16V3.6l.595-.02.596-.022.079 1.523.08 1.523-.635.241-.634.241-.056 6.248-.056 6.247-.628 1.354c-.345.746-.785 1.452-.977 1.57-.191.119-.468.886-.613 1.706-.146.82-.354 1.4-.463 1.289z" fill="none" stroke="#ff392e" stroke-width=".529"/></svg>