<svg width="156.178" height="67.941" viewBox="0 0 41.321635 17.976404" xmlns="http://www.w3.org/2000/svg"><path d="M21.973 17.04C5.737 13.22.9 12.01.65 11.708c-.159-.193-.309-.926-.334-1.629L.271 8.801l3.19-1.288 3.192-1.288-.08-1.064-.078-1.065 5.027-1.914c2.765-1.053 5.384-1.916 5.82-1.918.437-.002 4.664.794 9.393 1.768l8.6 1.77.132 1.189.132 1.189 2.293.428c1.261.235 2.487.503 2.725.594l.431.165-.079 1.642-.079 1.642-7.011 3.38c-3.856 1.859-7.31 3.486-7.673 3.615-.477.169-1.658 0-4.233-.606z" fill="none" stroke="#f0f000" stroke-width=".529"/></svg>