<svg id="svg4251" xmlns:rdf="http://www.w3.org/1999/02/22-rdf-syntax-ns#" xmlns="http://www.w3.org/2000/svg" height="16.933mm" width="8.4919mm" version="1.1" xmlns:cc="http://creativecommons.org/ns#" xmlns:dc="http://purl.org/dc/elements/1.1/" viewBox="0 0 30.089479 60.000001">
 <g id="layer1" transform="translate(-237.4 -470)">
  <g id="g4399" transform="matrix(1.875 0 0 1.875 222.45 470.05)">
   <g id="Arrow_Dotted_Right-6" fill-rule="evenodd" clip-rule="evenodd" fill="#121313">
    <path id="path4371" d="m23.406 23.067c.366.147-.134-.056 0 0z"/>
    <path id="path4373" d="m16.693 31.69 7.029-6.989c.518-.494.344-1.369-.315-1.634-.134-.056-.276-.079-.419-.075h-13.98c-.887-.024-1.38 1.07-.742 1.702l6.999 6.996c.385.382 1.042.382 1.428 0zm-5.276-6.714h9.118l-4.556 4.595-4.562-4.595z"/>
    <path id="path4375" d="m18.976 18.976c0-1.657-1.343-3-3-3s-3 1.343-3 3 1.343 3 3 3 3-1.343 3-3zm-4 0c0-.552.448-1 1-1s1 .448 1 1-.448 1-1 1-1-.448-1-1z"/>
    <path id="path4377" d="m18.976 10.976c0-1.657-1.343-3-3-3s-3 1.343-3 3 1.343 3 3 3 3-1.343 3-3zm-4 0c0-.552.448-1 1-1s1 .448 1 1-.448 1-1 1-1-.448-1-1z"/>
    <path id="path4379" d="m18.976 2.976c0-1.657-1.343-3-3-3s-3 1.343-3 3 1.343 3 3 3 3-1.343 3-3zm-4 0c0-.552.448-1 1-1s1 .448 1 1-.448 1-1 1-1-.448-1-1z"/>
   </g>
  </g>
 </g>
</svg>
