<svg id="svg4251" xmlns:rdf="http://www.w3.org/1999/02/22-rdf-syntax-ns#" xmlns="http://www.w3.org/2000/svg" height="8.4921mm" width="16.933mm" version="1.1" xmlns:cc="http://creativecommons.org/ns#" xmlns:dc="http://purl.org/dc/elements/1.1/" viewBox="0 0 59.999997 30.090181">
 <g id="layer1" transform="translate(-265.43 -499.63)">
  <g id="layer1-7" transform="translate(161.43 9.3308)">
   <g id="g4289" transform="matrix(1.875 0 0 1.875 104 475.39)">
    <g id="Arrow_Dotted_Right" fill-rule="evenodd" clip-rule="evenodd" fill="#121313">
     <path id="path4261" d="m23.091 8.57c.147-.366-.056.134 0 0z"/>
     <path id="path4263" d="m31.714 15.283-6.989-7.029c-.494-.518-1.369-.344-1.634.315-.056.134-.079.276-.075.419v13.98c-.024.887 1.07 1.38 1.702.742l6.996-6.999c.381-.385.381-1.042 0-1.428zm-6.714 5.276v-9.118l4.595 4.556-4.595 4.562z"/>
     <path id="path4265" d="m19 13c-1.657 0-3 1.343-3 3s1.343 3 3 3 3-1.343 3-3-1.343-3-3-3zm0 4c-.552 0-1-.448-1-1s.448-1 1-1 1 .448 1 1-.448 1-1 1z"/>
     <path id="path4267" d="m11 13c-1.657 0-3 1.343-3 3s1.343 3 3 3 3-1.343 3-3-1.343-3-3-3zm0 4c-.552 0-1-.448-1-1s.448-1 1-1 1 .448 1 1-.448 1-1 1z"/>
     <path id="path4269" d="m3 13c-1.657 0-3 1.343-3 3s1.343 3 3 3 3-1.343 3-3-1.343-3-3-3zm0 4c-.552 0-1-.448-1-1s.448-1 1-1 1 .448 1 1-.448 1-1 1z"/>
    </g>
   </g>
  </g>
 </g>
</svg>
