<svg xmlns="http://www.w3.org/2000/svg" width="50" height="50.002" viewBox="0 0 50.000006 50.001671"><path d="M.722 49.97a1.02 1.02 0 0 1-.637-.552.778.778 0 0 1-.081-.406c.002-.463-.3-.13 3.989-4.424l3.84-3.846-1.557-1.563c-1.663-1.67-1.799-1.827-2.081-2.404-.63-1.29-.628-2.926.005-4.193.278-.558.365-.657 2.273-2.572l1.814-1.822 6.763 6.762 6.762 6.761-1.806 1.8c-1.113 1.11-1.89 1.858-2.024 1.953-1.329.933-3.262 1.072-4.756.34-.578-.282-.735-.417-2.405-2.08l-1.563-1.557-3.846 3.84c-3.475 3.47-3.862 3.846-4.017 3.91-.207.087-.501.11-.672.053zm15.75-16.443l-6.763-6.763.728-.718c.47-.464.792-.755.908-.824.25-.147.603-.258 1.242-.393 1.519-.32 2.204-.724 3.623-2.135l.668-.665 1.208 1.187c.664.652 3.163 3.142 5.552 5.532l4.343 4.345-.692.707c-.978 1-1.345 1.475-1.663 2.152-.197.418-.314.793-.455 1.458-.135.638-.25 1-.395 1.247-.067.114-.362.439-.823.906l-.72.728-6.761-6.763zm7.369-7.388l-5.548-5.548 2.064-2.063 2.064-2.064 5.559 5.56 5.559 5.559-2.075 2.052-2.076 2.052-5.547-5.548zm5.498-5.602l-5.65-5.652.15-.328c.083-.18.282-.666.44-1.079.598-1.547.768-1.919 1.046-2.286.077-.1.848-.89 1.713-1.755l1.573-1.57 6.761 6.76 6.762 6.762-1.665 1.66c-1.508 1.501-1.686 1.669-1.885 1.77-.29.147-.51.215-1.228.383-.976.227-1.5.434-2.063.813a2.35 2.35 0 0 1-.28.173c-.016 0-2.567-2.543-5.675-5.651zm7.455-7.332L30.03 6.442l.885-.876c.486-.481.982-.945 1.102-1.03a5.201 5.201 0 0 1 1.101-.559c1.201-.398 2.633-.304 3.708.244.548.28.71.42 2.352 2.056l1.563 1.555 3.846-3.839C48.883-.295 48.549.006 49.012.004c.28 0 .507.091.7.284.192.193.284.42.284.7-.001.463.3.128-3.998 4.432l-3.847 3.853 1.612 1.618c1.71 1.717 1.795 1.814 2.062 2.373.608 1.273.598 2.907-.025 4.154-.248.498-.43.719-1.352 1.65l-.892.9-6.762-6.763z"/></svg>