<svg xmlns="http://www.w3.org/2000/svg" width="108.197" height="106.667" viewBox="0 0 101.4345 100"><path d="M29.73 99.626c-2.407-1.227-2.876-4.166-.957-5.992.508-.483 1.077-.879 1.265-.879.278 0 .341-.484.346-2.63l.006-2.629 2.8-3.72 2.798-3.722v-4.362h-1.87v-3.74H28.51v-5.609h-3.74v-1.87H19.847l-2.792 1.87-2.79 1.87H7.43l-1.008 1.036c-1.637 1.685-3.702 1.747-5.289.16C-.3 67.976-.376 65.875.95 64.365c1.794-2.043 4.988-1.538 6.095.963l.449 1.015h6.303l2.79-1.87 2.792-1.87h5.39v-1.87h3.74v-3.74h-3.74v-1.87h-9.86l-1.007 1.037c-1.637 1.684-3.702 1.746-5.289.16-1.433-1.434-1.509-3.534-.183-5.044 1.794-2.043 4.988-1.539 6.094.962l.45 1.015h9.795v-1.87h3.74v-3.74h-3.74v-1.87H7.43L6.422 46.81c-1.628 1.676-3.596 1.743-5.242.177-1.482-1.41-1.578-3.525-.23-5.061 1.794-2.043 4.988-1.538 6.095.962l.449 1.015h17.275v-1.87h3.74v-3.74h-3.74V36.425h-3.52l-2.791-1.87-2.791-1.87H9.3L8.292 33.72c-1.628 1.676-3.596 1.742-5.242.177-1.482-1.41-1.579-3.526-.23-5.062 1.794-2.042 4.988-1.538 6.095.963l.449 1.015h6.77l2.791 1.87c2.779 1.861 2.798 1.87 4.317 1.87h1.527v-1.87h3.74v-5.61h5.609v-3.74h1.87v-5.27l-1.87-1.859-1.87-1.859V7.263l-.715-.297c-.394-.163-.998-.667-1.344-1.12-.822-1.078-.896-3.157-.147-4.16.761-1.02 1.603-1.534 2.713-1.66 1.357-.152 2.53.357 3.378 1.469.559.732.673 1.108.673 2.205 0 1.075-.117 1.476-.628 2.146-.346.453-.95.957-1.344 1.12l-.716.297v6.382l1.87 1.859 1.87 1.859v5.971h1.87v3.74h3.74v-3.74h1.87V11.003l-.716-.297c-.393-.163-.998-.667-1.344-1.12-.822-1.078-.895-3.157-.146-4.16.761-1.02 1.603-1.535 2.712-1.66 1.358-.153 2.53.357 3.378 1.469.56.732.674 1.108.674 2.205 0 1.075-.118 1.476-.629 2.146-.345.453-.95.957-1.344 1.12l-.715.297v12.331h1.87v3.74h3.74v-3.74h1.87v-7.753l1.87-2.737c1.822-2.667 1.87-2.773 1.87-4.13 0-1.326-.035-1.41-.706-1.706-.389-.172-.993-.69-1.344-1.15-.832-1.09-.91-3.163-.157-4.172.916-1.226 1.663-1.61 3.141-1.61 1.479 0 2.226.384 3.141 1.61.75 1.003.676 3.082-.146 4.16-.346.453-.95.957-1.344 1.12-.706.293-.716.32-.716 2.002v1.704l-1.87 2.728-1.87 2.728v7.206h1.87v3.74h3.74v-3.74h1.87l.006-2.045.006-2.045 2.8-3.721 2.798-3.721V7.32l-.706-.313c-.388-.172-.993-.69-1.344-1.15-.832-1.09-.91-3.163-.156-4.172.916-1.226 1.663-1.61 3.141-1.61s2.225.384 3.141 1.61c.75 1.003.676 3.082-.146 4.16-.346.453-.95.957-1.344 1.12l-.716.297-.006 2.601-.006 2.601-2.799 3.721-2.799 3.721v3.427h1.87v3.74h5.61v5.61h3.74v1.87h4.455l2.79-1.87 2.792-1.87h6.702l.408-.925c1.114-2.524 4.104-3.123 6.02-1.206 1.53 1.53 1.52 3.623-.027 5.17-1.614 1.614-3.59 1.565-5.286-.132l-1.037-1.037H87.63l-2.79 1.87-2.792 1.87h-4.922v1.87h-3.74v3.74h3.74V43.902h16.74l.407-.924c1.114-2.524 4.104-3.124 6.02-1.207 1.53 1.53 1.52 3.624-.027 5.17-1.614 1.614-3.59 1.565-5.286-.131l-1.037-1.038H77.127v1.87h-3.74v3.74h3.74v1.87h9.26l.407-.924c1.114-2.525 4.104-3.124 6.02-1.207 1.53 1.53 1.52 3.623-.027 5.17-1.614 1.614-3.59 1.565-5.286-.132l-1.037-1.037h-9.337v1.87h-3.74v3.74h3.74v1.87h6.906l1.86 1.87 1.858 1.87h6.115l.408-.925c1.114-2.524 4.104-3.123 6.02-1.207 1.53 1.53 1.52 3.624-.027 5.17-1.614 1.614-3.59 1.565-5.286-.131l-1.037-1.037H87.05l-1.86-1.87-1.858-1.87h-6.205v1.87h-3.74v5.609h-5.61v3.74h-1.87v6.205l1.87 1.86 1.87 1.858v3.57c0 3.018.054 3.57.35 3.57.193 0 .766.415 1.273.922 1.574 1.574 1.579 3.59.013 5.156-1.546 1.546-3.64 1.557-5.17.027-1.545-1.545-1.52-3.724.059-5.226.508-.483 1.077-.879 1.264-.879.282 0 .341-.554.341-3.219v-3.22l-1.87-1.858-1.87-1.86v-6.906h-1.87v-3.74h-3.74v3.74h-1.87v6.662c0 5.766.048 6.662.351 6.662.193 0 .766.414 1.273.921 1.573 1.574 1.578 3.59.013 5.156-1.547 1.546-3.64 1.557-5.17.027-1.545-1.545-1.52-3.724.058-5.226.508-.483 1.077-.878 1.265-.878.29 0 .34-.982.34-6.662v-6.662H52.818v-3.74h-3.74v3.74h-1.87v8.692l-1.87 2.716c-1.851 2.689-1.87 2.731-1.87 4.186 0 1.15.076 1.47.35 1.47.193 0 .766.414 1.273.921 1.574 1.574 1.579 3.59.013 5.156-1.546 1.546-3.64 1.557-5.17.027-1.545-1.545-1.52-3.724.059-5.226.508-.483 1.077-.879 1.264-.879.269 0 .341-.373.341-1.754v-1.755l1.87-2.699 1.87-2.7V75.693h-1.87v-3.74h-3.74v3.74h-1.87l-.006 2.513-.006 2.513-2.799 3.72-2.799 3.722v4.481l.706.313c1.694.75 2.548 3.108 1.742 4.807-.88 1.855-3.246 2.744-4.967 1.865zm8.128-26.739c0-.935 0-.935-.935-.935s-.935 0-.935.935 0 .935.935.935.935 0 .935-.935zm9.35 0c0-.935 0-.935-.935-.935s-.935 0-.935.935 0 .935.935.935.935 0 .935-.935zm9.35 0c0-.935 0-.935-.936-.935-.935 0-.935 0-.935.935s0 .935.935.935.935 0 .935-.935zm9.349 0c0-.935 0-.935-.935-.935s-.935 0-.935.935 0 .935.935.935.935 0 .935-.935zm5.61-23.374V28.944H30.378V70.082H71.517zm-37.399 0v-16.83h33.659v33.66H34.118zm-5.61 14.025c0-.935 0-.935-.935-.935s-.935 0-.935.935 0 .935.935.935.935 0 .935-.935zm46.749 0c0-.935 0-.935-.935-.935s-.935 0-.935.935 0 .935.935.935.935 0 .935-.935zm-46.749-9.35c0-.935 0-.935-.935-.935s-.935 0-.935.935 0 .935.935.935.935 0 .935-.935zm46.749 0c0-.935 0-.935-.935-.935s-.935 0-.935.935 0 .935.935.935.935 0 .935-.935zm-46.749-9.35c0-.935 0-.935-.935-.935s-.935 0-.935.935 0 .935.935.935.935 0 .935-.935zm46.749 0c0-.935 0-.935-.935-.935s-.935 0-.935.935 0 .935.935.935.935 0 .935-.935zm-46.749-9.35c0-.934 0-.934-.935-.934s-.935 0-.935.935 0 .935.935.935.935 0 .935-.935zm46.749 0c0-.934 0-.934-.935-.934s-.935 0-.935.935 0 .935.935.935.935 0 .935-.935zM37.858 26.14c0-.935 0-.935-.935-.935s-.935 0-.935.935 0 .935.935.935.935 0 .935-.935zm9.35 0c0-.935 0-.935-.935-.935s-.935 0-.935.935 0 .935.935.935.935 0 .935-.935zm9.35 0c0-.935 0-.935-.936-.935-.935 0-.935 0-.935.935s0 .935.935.935.935 0 .935-.935zm9.349 0c0-.935 0-.935-.935-.935s-.935 0-.935.935 0 .935.935.935.935 0 .935-.935z"/></svg>