<svg xmlns="http://www.w3.org/2000/svg" width="97.524" height="64" viewBox="0 0 91.429 60"><g fill-rule="evenodd"><path d="M68.598 0c-.197 0-.39.009-.582.029a5.7 5.7 0 0 0-.567.089 5.68 5.68 0 0 0-2.04.857 5.756 5.756 0 0 0-2.07 2.514 5.696 5.696 0 0 0-.417 1.64c-.02.192-.032.388-.032.585v11.429a14.472 14.472 0 0 1-.642 4.246c-.14.448-.298.887-.478 1.315-.18.427-.383.841-.603 1.246a14.29 14.29 0 0 1-1.534 2.279 14.396 14.396 0 0 1-3.036 2.757c-.38.256-.769.498-1.173.718-.405.22-.822.419-1.249.6a14.123 14.123 0 0 1-2.68.832 14.223 14.223 0 0 1-2.874.293H37.205c-.197 0-.39.009-.581.028-.192.02-.382.051-.567.09a5.68 5.68 0 0 0-2.04.857 5.757 5.757 0 0 0-2.07 2.514 5.697 5.697 0 0 0-.417 1.64c-.02.191-.032.388-.032.585v17.143a5.815 5.815 0 0 0 .117 1.15c.076.372.188.733.332 1.075a5.72 5.72 0 0 0 1.224 1.814 5.659 5.659 0 0 0 1.812 1.225 5.69 5.69 0 0 0 1.64.421c.193.02.385.029.582.029h17.123a5.789 5.789 0 0 0 1.153-.114 5.654 5.654 0 0 0 1.07-.336 5.69 5.69 0 0 0 2.511-2.068c.205-.304.384-.63.528-.971a5.697 5.697 0 0 0 .446-2.225V42.857c0-.493.026-.98.075-1.46s.12-.957.214-1.422c.095-.465.214-.92.353-1.368a14.143 14.143 0 0 1 1.795-3.74c.256-.38.53-.746.82-1.1a14.402 14.402 0 0 1 3.036-2.756c.38-.257.77-.498 1.174-.718.404-.22.821-.42 1.248-.6a14.12 14.12 0 0 1 2.68-.832c.464-.095.936-.17 1.415-.218.48-.049.967-.072 1.46-.072H85.72a5.789 5.789 0 0 0 1.152-.114 5.653 5.653 0 0 0 1.07-.336 5.691 5.691 0 0 0 2.512-2.067 5.697 5.697 0 0 0 .974-3.196V5.713a5.842 5.842 0 0 0-.115-1.15 5.697 5.697 0 0 0-.331-1.075 5.717 5.717 0 0 0-1.224-1.814A5.69 5.69 0 0 0 86.873.118a5.704 5.704 0 0 0-.567-.09A5.802 5.802 0 0 0 85.72 0H68.598z" fill="#384953"/><path d="M5.714 0c-.197 0-.393.009-.585.029-.193.02-.382.05-.568.089a5.656 5.656 0 0 0-2.043.857A5.762 5.762 0 0 0 .446 3.489 5.693 5.693 0 0 0 0 5.714v17.143a5.835 5.835 0 0 0 .114 1.15c.076.372.188.733.332 1.075a5.716 5.716 0 0 0 1.225 1.814 5.698 5.698 0 0 0 1.818 1.225 5.665 5.665 0 0 0 1.64.422c.192.02.388.028.585.028h17.143a5.73 5.73 0 0 0 1.15-.114 5.7 5.7 0 0 0 2.89-1.56 5.71 5.71 0 0 0 1.557-2.89c.038-.186.066-.372.085-.564.02-.192.032-.389.032-.586V5.714a5.808 5.808 0 0 0-.117-1.15 5.693 5.693 0 0 0-.333-1.075 5.718 5.718 0 0 0-1.225-1.814 5.667 5.667 0 0 0-2.89-1.557 5.713 5.713 0 0 0-.567-.09A5.74 5.74 0 0 0 22.857 0H5.714z" fill="#79ce00"/></g></svg>