<svg xmlns="http://www.w3.org/2000/svg" height="14" width="15.581" viewBox="0 0 15.581203 14"><g transform="scale(.93333)" fill="#fff"><path d="M16.35 2.829H6.615c-.317 0-.497.245-.403.547l1.54 4.512c.076.243.344.44.599.44h6.382a.666.666 0 0 0 .6-.44l1.341-4.618c.076-.244-.069-.442-.324-.442z"/><circle cy="13.525" cx="7.495" r="1.456"/><circle cy="13.544" cx="13.657" r="1.456"/><path d="M15.406 9.81H6.889L3.48 0H.826a.825.825 0 1 0 0 1.649h1.482l3.41 9.81h9.689a.825.825 0 0 0 0-1.649z"/></g></svg>