<svg xmlns="http://www.w3.org/2000/svg" width="56.16" height="161.038" viewBox="0 0 14.858798 42.607741"><path d="M2.332 30.75c.167-3.315.143-3.638-.265-3.638-.247 0-.741-.292-1.098-.65-1.278-1.277-.713-3.72.984-4.26.433-.137.483-.49.483-3.414v-3.26l-.679-.17c-1.362-.343-1.854-3.33-.687-4.18.296-.215.46-.674.452-1.264-.01-.794.073-.923.583-.905.727.026.732-.059.065-1.152-.438-.72-.528-1.334-.528-3.62 0-3.753.264-3.98 4.63-3.98 3.027 0 3.665.189 4.344 1.287.462.747.551 1.319.551 3.52 0 1.637-.115 2.743-.306 2.934-.232.232-.225.404.03.71.184.223.261.598.171.834s-.04.892.113 1.459c.269.999.312 1.03 1.443 1.03.904 0 1.257.131 1.577.588.496.707.538 2.066.081 2.628-.648.797-2.248 1.546-3.302 1.546H9.918l-.167 1.39c-.092.763-.168 2.267-.169 3.34l-.002 1.951.77-.154c.56-.112.814-.04.93.266.124.322.407.386 1.221.277.962-.129 1.095-.072 1.45.614.458.885.499 1.676.122 2.38-.421.787-2.44 1.843-3.524 1.843-.908 0-.971.054-1.012.86-.104 2.088.088 5.326.484 8.176.236 1.696.359 3.267.273 3.491-.321.837-4.065 1.29-6.422 1.04" fill="none" stroke="#f0f000" stroke-width=".529"/></svg>