<svg xmlns="http://www.w3.org/2000/svg" width="36.868" height="100.921" viewBox="0 0 9.7547395 26.702347"><path d="M5.13 25.33c-.107-.834-.122-1.807-.033-2.162.138-.552.05-.67-.61-.814-.584-.129-.873-.424-1.19-1.217-.23-.577-.42-1.343-.42-1.704 0-.566-.12-.656-.875-.656-1.372 0-1.82-.482-1.722-1.85.083-1.148.107-1.176 1.275-1.458l1.19-.288.075-2.654.075-2.654-1.265-.245-1.266-.244V8.073c0-1.18.066-1.326.662-1.466.575-.135.672-.319.742-1.413.068-1.053.192-1.31.755-1.566.6-.273.659-.423.533-1.362C2.815.471 3.095.256 5.672.256c2.168 0 2.255.023 2.504.68.142.373.182 1.156.089 1.74-.131.82-.087 1.048.198 1.008.935-.13 1.03.019 1.03 1.624 0 1.35-.08 1.633-.493 1.74-.64.168-.826 2.038-.829 8.364-.002 5.355-.237 6.375-1.584 6.884-.764.288-.8.371-.817 1.897-.028 2.377-.396 3.031-.64 1.137z" fill="none" stroke="#f0f000" stroke-width=".529"/></svg>