<svg xmlns="http://www.w3.org/2000/svg" width="494.513" height="304.146" viewBox="0 0 130.83908 80.472305"><path d="M11.624 61.718S1.343 59.656.798 59.039c-.844-.906-.699-2.702.55-6.813 1.671-5.497 1.672-5.498 3.144-6.02.746-.266 1.216-.58 1.145-.765C5.448 44.949 16.628 8.649 17.44 7.16c1.037-1.905 2.96-3.555 4.375-3.755.622-.087 7.44-.83 15.153-1.65L50.99.264l8.97.32c4.933.176 9.134.384 9.336.461.63.241 1.205 1.704 1.342 3.407l.131 1.635 2.381.114c2.697.129 3.108.402 3.108 2.064 0 1.424-.492 1.923-1.944 1.972-1.005.034-1.414.21-2.22.953-.545.502-1.027.928-1.073.948-.045.02-.002.926.097 2.015.145 1.597.263 1.974.61 1.949.346-.025.444.291.508 1.644.07 1.46.015 1.691-.423 1.806-.45.118-.52.498-.674 3.725-.095 1.976-.173 4.95-.173 6.607 0 2.288-.105 3.218-.438 3.86-.405.784-1.202 3.399-1.073 3.523.03.03 12.2 1.494 27.044 3.253 14.843 1.76 27.438 3.27 27.989 3.356 1.96.309 2.397.978 4.184 6.41 1.418 4.313 1.643 5.276 1.762 7.554l.137 2.61-1.955 1.846c-1.075 1.016-2.193 1.944-2.484 2.064-.61.251-12.062 10.191-12.385 10.75-.118.203-1.42 1.44-2.892 2.746-2.352 2.087-2.792 2.372-3.622 2.349-.52-.015-13.223-2.542-16.716-3.248M38.133 36.373c2.556-.772 3.299-1.1 3.355-1.482.114-.777 1.135-1.69 2.091-1.87 1.542-.289 1.586-1.302.136-3.123l-1.059-1.33v-4.706c0-2.588-.072-4.894-.16-5.125-.089-.23-.373-.418-.632-.418s-.753-.228-1.097-.506c-.606-.49-.627-.64-.717-5.157l-.092-4.653-.701.168c-.386.092-.788.215-.893.274-.441.246-.786 2.706-2.048 14.637-.732 6.912-1.396 12.955-1.476 13.428-.08.473-.11.859-.067.857.043 0 1.555-.448 3.36-.993zm46.741 39.525l-5.103-.945m-8.597-1.705l-7.607-1.512m-7.303-1.418l-2.03-.392m-1.97-.378l-.886-.186m-8.224-1.614l-4.331-.836" fill="none" stroke="#f0f000" stroke-width=".529"/></svg>