<svg xmlns="http://www.w3.org/2000/svg" height="239.047" viewBox="0 0 239.618 239.0471" width="239.618"><path d="M94.304 204.883c-2.65-3.744-6.004-6.472-10.062-8.19h85.877c-3.897 1.72-7.097 4.33-9.594 7.84-2.494 3.51-3.744 7.45-3.744 11.816 0 6.71 2.069 12.168 6.201 16.38 4.135 4.212 9.557 6.318 16.263 6.318 6.241 0 11.583-2.066 16.029-6.2 4.446-4.133 6.669-9.478 6.669-16.03 0-4.68-1.247-8.775-3.744-12.285-2.494-3.51-5.77-6.12-9.828-7.839h11.7V177.74H72.307V151.3h141.805l25.506-88.92L43.76 51.612 33.698 20.257c-.622-1.558-1.171-2.728-1.639-3.51-.468-.779-1.323-1.638-2.574-2.574-1.246-.779-2.61-1.755-4.095-2.925a151.459 151.459 0 0 0-4.797-3.627 76.266 76.266 0 0 0-6.435-4.563C12.052 1.734 10.764.915 10.297.601l1.872.468-1.872-.936c-.779-.31-1.908-.077-3.393.702A31.003 31.003 0 0 0 2.808 3.41C1.405 3.723.585 4.385.351 5.4.118 6.414 0 7.543 0 8.79v3.276c0 .936.274 1.953.819 3.042.548 1.093 1.443 2.187 2.69 3.276.468.468 1.251 1.134 2.34 1.99 1.094.858 2.224 1.754 3.394 2.69 1.17.936 2.303 1.872 3.393 2.808 1.094.936 2.029 1.638 2.809 2.106l37.441 116.064v52.65h13.572c-3.897 1.718-7.214 4.445-9.945 8.19-2.728 3.743-4.095 7.954-4.095 12.635 0 3.122.665 5.967 1.989 8.541a24.441 24.441 0 0 0 5.147 6.786c2.106 1.952 4.526 3.473 7.254 4.563 2.731 1.094 5.499 1.64 8.308 1.64 2.965 0 5.85-.546 8.657-1.64 2.809-1.09 5.266-2.574 7.371-4.445 2.106-1.873 3.825-4.132 5.148-6.787 1.327-2.65 1.989-5.535 1.989-8.657.001-4.68-1.323-8.892-3.977-12.636zm101.322-22.698v10.062H57.332v-48.906L19.189 25.172c-.468-.31-1.323-.936-2.573-1.872a109.06 109.06 0 0 1-3.861-3.042A186.468 186.468 0 0 1 9.011 17.1c-1.17-1.013-1.989-1.755-2.457-2.223-1.404-.936-2.105-1.872-2.105-2.808V8.792c0-.622.08-.936.233-.936.314-.779.899-1.638 1.755-2.574.859-.936 1.444-1.323 1.755-1.17l1.872.936c.157 0 .899.508 2.224 1.521 1.327 1.017 2.848 2.187 4.563 3.51a202.958 202.958 0 0 1 5.266 4.212 126.563 126.563 0 0 0 4.563 3.627c.782.625 1.367 1.17 1.755 1.638.392.468.742 1.093 1.053 1.872L40.486 56.06l193.282 10.763-23.166 79.795H67.862v35.567h127.764zM219.26 77.587v-.936a107.112 107.112 0 0 0-11.934-1.17 298.287 298.287 0 0 0-11.7-.234v15.21h19.89c.157 0 .314-.27.468-.819a8.11 8.11 0 0 1 .468-1.287c.157-.468.392-1.17.702-2.106a68.78 68.78 0 0 0 .936-3.042c.314-1.09.585-2.066.819-2.925.234-.855.351-1.52.351-1.989v-.702zm-12.168 2.574c2.34 0 4.76.157 7.254.468a18.729 18.729 0 0 0-.819 2.691c-.234 1.017-.504 1.913-.819 2.691h-12.636v-6.084c2.34.157 4.68.234 7.02.234zm-11.466 17.55v14.508h13.806c.314-.936.549-1.558.702-1.872.157-.468.432-1.287.819-2.457.392-1.17.742-2.417 1.053-3.744.314-1.324.666-2.61 1.053-3.86.392-1.248.666-2.107.819-2.575h-18.252zm16.848-11.232c0 .157-.077.314-.234.468.157 0 .234-.154.234-.468zm-5.382 18.603a33.296 33.296 0 0 1-.936 2.691h-6.084v-5.616h7.956c-.311.936-.622 1.912-.936 2.925zm.468 14.626h-11.934v16.38h7.254l4.68-16.38zm-7.488 9.593v-5.148h1.638l-1.638 5.148zm-7.956 100.386c-3.587 3.276-7.875 4.914-12.87 4.914-5.458 0-9.788-1.715-12.987-5.147-3.195-3.43-4.797-7.799-4.797-13.104 0-4.68 1.678-8.658 5.031-11.935 3.356-3.275 7.528-4.914 12.519-4.914 4.995 0 9.324 1.602 12.987 4.797 3.667 3.2 5.499 7.371 5.499 12.52 0 5.304-1.792 9.593-5.382 12.87zm-3.978-155.142c-.468 0-1.323-.037-2.574-.117a849.617 849.617 0 0 0-3.978-.234 274.249 274.249 0 0 1-3.861-.234c-1.17-.077-1.989-.117-2.457-.117-.311 0-.778-.036-1.404-.117-.622-.077-1.013-.117-1.17-.117v16.848h15.444V74.545zm0 23.166h-15.444v14.508h15.444V97.711zm0 21.997h-15.444v16.38h15.444v-16.38zm-4.446-40.717v7.02h-6.552v-7.488c.625 0 1.25.04 1.872.117.625.08 1.25.117 1.872.117.625.157 1.561.234 2.808.234zm0 28.782h-6.552v-5.616h6.552v5.616zm0 23.868h-6.552v-7.488h6.552v7.488zm-35.1-41.184h15.678V73.843c0-.153-.702-.35-2.106-.585-1.404-.234-2.494-.35-3.276-.35h-2.106c-1.089 0-2.143-.038-3.159-.118a38.67 38.67 0 0 0-2.925-.117h-2.106v17.784zm15.678 7.254h-15.678v14.508h15.678V97.711zm0 21.997h-15.678v16.38h15.678v-16.38zM159.473 76.3c.234-.702.351-1.364.351-1.989v11.7h-6.786v-8.658h5.849c.158 0 .352-.35.586-1.053zm.351 31.473h-6.786v-5.616h6.786v5.616zm0 23.868h-6.786v-7.488h6.786v7.488zm-18.486-59.67H125.66v18.486h15.678V71.971zm0 25.74H125.66v14.508h15.678V97.711zm0 21.997H125.66v16.38h15.678v-16.38zm-4.446-33.697h-6.786v-9.594h6.786v9.594zm0 21.762h-6.786v-5.616h6.786v5.616zm0 23.868h-6.786v-7.488h6.786v7.488zm-19.422-60.84a170.482 170.482 0 0 0-15.444-.702v20.358h15.444V70.801zm0 26.91h-15.444v14.508h15.444V97.711zm0 21.997h-15.444v16.38h15.444v-16.38zm-7.722-44.929c1.093 0 2.187.081 3.275.234v10.998h-6.552V74.545c1.095.157 2.187.234 3.277.234zm3.276 32.994h-6.552v-5.616h6.552v5.616zm0 23.868h-6.552v-7.488h6.552v7.488zM78.86 90.457h15.912V70.1c0-.154-.388-.31-1.17-.468a15.548 15.548 0 0 1-1.872-.468c-.468 0-1.287-.037-2.457-.117a59.06 59.06 0 0 0-3.86-.117c-1.247 0-2.534-.037-3.861-.117-1.323-.077-2.223-.117-2.691-.117v21.762zm15.912 7.254H78.86v14.508h15.912V97.711zm0 21.997H78.86v16.38h15.912v-16.38zm-6.669 110.096c-3.82 3.2-8.149 4.797-12.986 4.797-2.184 0-4.366-.428-6.553-1.287a18.84 18.84 0 0 1-5.85-3.627 19.507 19.507 0 0 1-4.212-5.499 14.312 14.312 0 0 1-1.638-6.669c0-2.493.508-4.833 1.521-7.02a18.862 18.862 0 0 1 4.095-5.733 19.586 19.586 0 0 1 5.851-3.86 17.066 17.066 0 0 1 6.786-1.405c4.994 0 9.359 1.756 13.104 5.266 3.745 3.51 5.616 7.762 5.616 12.753-.001 4.993-1.909 9.088-5.734 12.284zm2.925-155.96h.702c.157 0 .234.08.234.233h.234l-1.17-.234zm-3.042-.118a20.57 20.57 0 0 0 2.106.117v12.168H83.54V73.61h1.872c.936 0 1.795.04 2.574.117zm2.106 34.047H83.54v-5.616h6.552v5.616zm0 23.868H83.54v-7.488h6.552v7.488zM70.67 68.227c-3.897-.468-7.137-.739-9.711-.819a324.704 324.704 0 0 0-9.478-.117h-1.403c-.779 0-1.558.04-2.34.117-.779.08-1.558.117-2.341.117h-1.17l7.254 22.932h19.188v-22.23zm0 29.484H54.056c0 .157.081.391.234.702.157.468.391 1.287.702 2.457a95.84 95.84 0 0 0 2.223 7.137c.392 1.093.665 1.872.819 2.34.157.314.314.702.468 1.17.157.468.314.702.468.702h11.7V97.711zm0 21.997h-9.36c0 1.25.392 3.041 1.17 5.381.314.783.666 1.836 1.054 3.16.391 1.326.782 2.573 1.17 3.744.391 1.17.899 2.537 1.521 4.094h4.446v-16.379zm-11.7-47.854c2.029.081 4.446.274 7.254.585v13.572H54.758l-4.446-14.274h1.17c2.965 0 5.463.04 7.488.117zm1.17 30.303h6.084v5.616h-4.446a12.828 12.828 0 0 1-.701-2.457c-.154-.855-.388-1.598-.702-2.223v.468c-.001-.622-.078-1.09-.235-1.404zm2.223 26.092a22.501 22.501 0 0 1 1.988-4.096h1.872v7.488h-4.68c.001-.779.276-1.908.82-3.392zm-.351-19.54c.157.157.234.314.234.468v.234c0-.31-.077-.545-.234-.702z"/></svg>