<svg xmlns="http://www.w3.org/2000/svg" height="36.257" width="234.667" viewBox="0 0 219.99999 33.991342"><defs><clipPath id="a"><path d="M0 607h786V0H0v607z"/></clipPath></defs><path d="M38.8-.036a3.24 3.24 0 0 0-.65.067 3.218 3.218 0 0 0-2.329 1.91 3.227 3.227 0 0 0-.254 1.26v6.475a8.198 8.198 0 0 1-.364 2.406 8.051 8.051 0 0 1-.271.744 8.09 8.09 0 0 1-7.45 4.943h-6.466a3.24 3.24 0 0 0-.651.067 3.218 3.218 0 0 0-2.328 1.91 3.228 3.228 0 0 0-.255 1.26v9.712a3.294 3.294 0 0 0 .554 1.811 3.234 3.234 0 0 0 .873.874 3.206 3.206 0 0 0 1.807.552h9.7a3.28 3.28 0 0 0 .653-.064c.21-.043.413-.109.607-.19a3.14 3.14 0 0 0 1.028-.694 3.234 3.234 0 0 0 .93-1.957c.01-.109.016-.22.016-.332v-6.474a8.198 8.198 0 0 1 .364-2.408 8.014 8.014 0 0 1 1.481-2.742 8.159 8.159 0 0 1 1.72-1.562 8.049 8.049 0 0 1 2.89-1.218 8.058 8.058 0 0 1 1.629-.163H48.5a3.28 3.28 0 0 0 .653-.065 3.224 3.224 0 0 0 2.565-2.84c.01-.11.015-.221.015-.333V3.202a3.31 3.31 0 0 0-.064-.652A3.228 3.228 0 0 0 48.5-.036h-9.7z" fill-rule="evenodd" fill="#efeff5"/><path d="M3.171-.036a3.287 3.287 0 0 0-.654.067A3.204 3.204 0 0 0 .881.913 3.235 3.235 0 0 0-.05 2.87c-.011.109-.016.22-.016.332v9.711a3.306 3.306 0 0 0 .064.652 3.225 3.225 0 0 0 1.912 2.33 3.21 3.21 0 0 0 1.261.256h9.712a3.247 3.247 0 0 0 .651-.065 3.23 3.23 0 0 0 1.637-.884 3.235 3.235 0 0 0 .949-2.289V3.202a3.29 3.29 0 0 0-.554-1.811 3.235 3.235 0 0 0-.874-.874 3.21 3.21 0 0 0-1.81-.553H3.172z" fill-rule="evenodd" fill="#79ce00"/><g clip-path="url(#a)" transform="matrix(.24647 0 0 -.24647 45.443 58.986)" fill="#efeff5"><path d="M155.33 209.35l-32.988-77.721h-11.146L78.043 209.35h10.598l28.48-67.284 27.773 67.284h10.436zM224.5 139.24c18.55 0 27.827 10.49 27.827 31.468 0 20.686-9.277 31.032-27.827 31.032-18.954 0-28.429-10.346-28.429-31.032 0-20.978 9.475-31.468 28.429-31.468m-39.026 31.145c0 26.341 13.01 39.511 39.026 39.511 25.614 0 38.425-13.17 38.425-39.511 0-26.199-12.811-39.296-38.425-39.296-26.016 0-39.026 13.097-39.026 39.296M311 209.35v-69.568h40.653v-8.153h-50.705v77.721H311zM422.02 209.35v-8.151h-24.455v-69.57h-10.057v69.57h-24.46v8.151h58.972zM507.06 209.35v-8.151h-40.768v-26.091h38.864v-8.15h-38.864v-27.176h41.581v-8.153h-51.632v77.721h50.819zM545.35 131.63v77.721h33.159c14.783 0 22.171-6.215 22.171-18.642 0-10.11-7.226-17.588-21.683-22.446l26.683-36.633h-13.26l-24.731 34.95v6.577c14.859 2.35 22.283 8.06 22.283 17.119 0 7.172-4.129 10.761-12.388 10.761h-22.175V131.63H545.35zM630.66 131.63l32.991 77.721h11.146l33.152-77.721h-10.6l-28.48 67.285-27.773-67.285H630.66z"/></g></svg>