<svg xmlns="http://www.w3.org/2000/svg" viewBox="0 0 201.561 201.561"><g fill="#010002"><path d="M151.582 31.866H53.955c-10.246 0-18.589 8.349-18.589 18.596v97.627c0 10.25 8.342 18.599 18.589 18.599h97.627c10.243 0 18.592-8.349 18.592-18.599V50.462c.004-10.246-8.346-18.596-18.592-18.596zm0 128.814H53.955c-6.936 0-12.587-5.647-12.587-12.594V50.462c0-6.936 5.647-12.594 12.587-12.594h97.627c6.936 0 12.587 5.655 12.587 12.594v97.627c0 6.943-5.647 12.591-12.587 12.591zM180.557 61.027h17.987a3.01 3.01 0 0 0 3.01-3.003 3.01 3.01 0 0 0-3.01-3.003h-17.987a3.01 3.01 0 0 0-3.003 3.003 3.01 3.01 0 0 0 3.003 3.003zM198.544 71.398h-17.987c-1.653 0-3.003 1.342-3.003 2.999s1.349 3.003 3.003 3.003h17.987a3.008 3.008 0 0 0 3.01-3.003 3.006 3.006 0 0 0-3.01-2.999zM198.544 88.083h-17.987a3.006 3.006 0 0 0-3.003 3.01 3.006 3.006 0 0 0 3.003 2.999h17.987a3.005 3.005 0 0 0 3.01-2.999 3.01 3.01 0 0 0-3.01-3.01zM198.544 104.452h-17.987a3.015 3.015 0 0 0-3.003 3.017 3 3 0 0 0 3.003 2.992h17.987a3 3 0 0 0 3.01-2.992 3.016 3.016 0 0 0-3.01-3.017zM198.544 119.566h-17.987a3.01 3.01 0 0 0-3.003 3.006 3.002 3.002 0 0 0 3.003 3.003h17.987a3.003 3.003 0 0 0 3.01-3.003 3.012 3.012 0 0 0-3.01-3.006zM198.544 135.936h-17.987a3.013 3.013 0 0 0 0 6.023h17.987a3.016 3.016 0 0 0 3.01-3.017 3.013 3.013 0 0 0-3.01-3.006zM20.986 55.018H3.01a3.007 3.007 0 0 0-3.003 3.003 3.008 3.008 0 0 0 3.003 3.003h17.977a3.008 3.008 0 0 0 3.01-3.003 3.01 3.01 0 0 0-3.011-3.003zM20.986 71.398H3.01a3.002 3.002 0 1 0 0 6.002h17.977a3.006 3.006 0 0 0 3.01-3.003 3.004 3.004 0 0 0-3.011-2.999zM20.986 88.083H3.01a3.004 3.004 0 0 0 0 6.009h17.977a3.003 3.003 0 0 0 3.01-2.999 3.008 3.008 0 0 0-3.011-3.01zM20.986 104.452H3.01a3.012 3.012 0 0 0-3.003 3.017 2.998 2.998 0 0 0 3.003 2.992h17.977a2.999 2.999 0 0 0 3.01-2.992 3.015 3.015 0 0 0-3.011-3.017zM20.986 119.566H3.01a3.008 3.008 0 0 0-3.003 3.006 3 3 0 0 0 3.003 3.003h17.977a3.001 3.001 0 0 0 3.01-3.003 3.01 3.01 0 0 0-3.011-3.006zM20.986 135.936H3.01a3.012 3.012 0 0 0 0 6.023h17.977a3.012 3.012 0 0 0-.001-6.023zM143.229 177.558a3.015 3.015 0 0 0-3.006 3.017v17.98c0 1.653 1.349 3.006 3.006 3.006s3.01-1.353 3.01-3.006v-17.98a3.018 3.018 0 0 0-3.01-3.017zM126.852 177.558c-1.65 0-2.999 1.353-2.999 3.017v17.98a3.011 3.011 0 0 0 2.999 3.006 3.014 3.014 0 0 0 3.013-3.006v-17.98a3.015 3.015 0 0 0-3.013-3.017zM110.175 177.558a3.016 3.016 0 0 0-3.01 3.017v17.98a3.013 3.013 0 0 0 3.01 3.006 3.007 3.007 0 0 0 2.999-3.006v-17.98a3.008 3.008 0 0 0-2.999-3.017zM93.798 177.558a3.012 3.012 0 0 0-3.006 3.017v17.98a3.01 3.01 0 0 0 3.006 3.006 3.013 3.013 0 0 0 3.003-3.006v-17.98a3.012 3.012 0 0 0-3.003-3.017zM78.692 177.558a3.014 3.014 0 0 0-3.01 3.017v17.98a3.009 3.009 0 0 0 3.01 3.006 3.011 3.011 0 0 0 2.999-3.006v-17.98c0-1.665-1.349-3.017-2.999-3.017zM62.315 177.558a3.016 3.016 0 0 0-3.01 3.017v17.98a3.013 3.013 0 0 0 3.01 3.006 3.01 3.01 0 0 0 2.999-3.006v-17.98a3.011 3.011 0 0 0-2.999-3.017zM143.229 23.996a3.008 3.008 0 0 0 3.01-3.003V3.01c0-1.657-1.353-3.01-3.01-3.01s-3.006 1.349-3.006 3.01v17.98a3.007 3.007 0 0 0 3.006 3.006zM126.852 23.996a3.006 3.006 0 0 0 3.013-3.003V3.01A3.015 3.015 0 0 0 126.852 0a3.01 3.01 0 0 0-2.999 3.01v17.98a3.007 3.007 0 0 0 2.999 3.006zM110.175 23.996a2.999 2.999 0 0 0 2.999-3.003V3.01A3.008 3.008 0 0 0 110.175 0a3.012 3.012 0 0 0-3.01 3.01v17.98a3.008 3.008 0 0 0 3.01 3.006zM93.798 23.996a3.005 3.005 0 0 0 3.003-3.003V3.01A3.013 3.013 0 0 0 93.798 0a3.008 3.008 0 0 0-3.006 3.01v17.98a3.006 3.006 0 0 0 3.006 3.006zM78.692 23.996a3.003 3.003 0 0 0 2.999-3.003V3.01A3.012 3.012 0 0 0 78.692 0a3.01 3.01 0 0 0-3.01 3.01v17.98a3.006 3.006 0 0 0 3.01 3.006zM62.315 23.996a3.002 3.002 0 0 0 2.999-3.003V3.01A3.008 3.008 0 0 0 62.315 0a3.012 3.012 0 0 0-3.01 3.01v17.98a3.008 3.008 0 0 0 3.01 3.006z"/><path d="M63.396 49.678c-3.275 0-5.93 2.663-5.93 5.93s2.656 5.923 5.93 5.923c3.264 0 5.927-2.656 5.927-5.923-.004-3.267-2.663-5.93-5.927-5.93zM72.024 128.746h62.15V66.005h-62.15v62.741zm55.68-56.278v49.807H78.488V72.468h49.216z"/></g></svg>