<svg xmlns="http://www.w3.org/2000/svg" height="66.127" width="53.333" viewBox="0 0 49.999963 61.993795"><path d="M23.16 61.25c-.505-.397-.918-.868-.918-1.045 0-.178 1.529-.319 3.397-.313l3.397.01-1.138 1.035c-1.405 1.278-3.348 1.407-4.738.313zm-2.99-3.262c-.31-.375-.317-.684-.025-1.23.37-.693.624-.723 5.3-.631 4.135.081 4.967.188 5.275.677.265.42.24.732-.092 1.132-.643.775-9.82.82-10.458.052zm-1.05-3.49c-.23-.278-.317-.83-.19-1.227.221-.7.421-.719 6.56-.627l6.333.095.118.832c.064.457-.092.965-.349 1.127-.256.162-3.073.298-6.259.3-4.644.005-5.876-.094-6.213-.5zm-.697-3.484c-.23-.278-.365-.788-.299-1.132.11-.575.703-.634 7.155-.72 6.67-.09 7.053-.06 7.398.585.277.516.233.81-.183 1.226-.78.781-13.426.818-14.07.041zm-.08-3.936c-.912-1.061-5.018-7.827-6.304-10.386-6.283-12.501-.65-25.618 11.66-27.156 2.493-.312 5.899.34 8.542 1.635 2.67 1.307 5.9 4.585 7.163 7.27 1.78 3.783 2.08 9.41.742 13.954-1.258 4.27-7.703 15.118-8.982 15.118-1.393 0-1.469-1.049-.219-3.022 5.401-8.523 6.729-11.285 7.35-15.29.485-3.125.205-6.299-.79-8.968-1.043-2.795-4.544-6.276-7.424-7.381-2.865-1.1-6.867-1.11-9.68-.026-2.605 1.003-5.725 3.866-6.957 6.383-1.695 3.46-1.977 8.528-.705 12.626.773 2.488 2.609 6.044 5.367 10.394 2.5 3.942 2.661 4.355 1.975 5.04-.582.582-1.126.522-1.74-.191zm4.059-4.007c-.484-1.267-4.587-14.036-4.532-14.105.035-.045.675.23 1.42.61.747.38 1.687.691 2.09.691.644 0 .729-.198.71-1.655-.02-1.538.039-1.654.849-1.654.81 0 .87.116.849 1.654-.02 1.575.024 1.655.927 1.655.908 0 .947-.071.893-1.655-.05-1.47.03-1.667.727-1.766.896-.127 1.564 1.116 1.248 2.323-.296 1.133 1.42 1.403 3.093.486.825-.452 1.321-.57 1.321-.317 0 .87-4.605 14.169-4.906 14.169-.49 0-.45-.157 1.597-6.271 1.053-3.149 1.916-5.887 1.916-6.086 0-.233-2-.36-5.677-.36h-5.678l2.02 6.23c1.11 3.427 2.018 6.288 2.018 6.359 0 .333-.738.077-.885-.308zm.885-14.525c0-.372-.157-.773-.348-.891-.198-.123-.349.17-.349.676 0 .49.157.891.349.891.191 0 .348-.304.348-.676zm3.484-.264c0-.701-.1-.84-.394-.546-.217.217-.3.64-.186.94.32.831.58.654.58-.394zM.302 32.892c-.76-.915-.157-1.43 2.619-2.236 2.413-.7 2.755-.728 3.228-.255.785.785.046 1.467-2.315 2.135-1.086.307-2.226.631-2.535.72-.308.09-.757-.074-.997-.363zm46.35-.203c-1.235-.364-2.483-.9-2.776-1.193-.476-.476-.474-.588.015-1.078.496-.496.79-.475 3.192.223 2.658.772 3.382 1.397 2.646 2.284-.474.571-.291.585-3.078-.236zM3.084 19.087c-1.05-.373-2.142-.91-2.426-1.194-.456-.457-.45-.582.046-1.08.518-.517.742-.502 2.811.186 2.787.928 3.506 1.425 3.203 2.216-.291.76-1.224.726-3.634-.128zm40.253.128c-.303-.79.417-1.288 3.203-2.216 2.04-.678 2.3-.697 2.794-.203.796.796.119 1.432-2.447 2.298-2.6.878-3.25.9-3.55.12zm-32.55-11.41c-1.558-2.285-1.697-3.32-.446-3.32.806 0 3.932 4.355 3.651 5.086-.442 1.153-1.682.47-3.206-1.765zm25.277 1.766c-.103-.269.532-1.53 1.411-2.804 1.22-1.767 1.77-2.29 2.325-2.211 1.198.172 1.02 1.092-.646 3.356-1.556 2.114-2.683 2.72-3.09 1.66zM24.761 6.168c-.49-.49-.585-5.076-.12-5.81.164-.259.593-.413.953-.344.583.112.655.47.655 3.252 0 2.521-.102 3.146-.53 3.228-.291.057-.722-.09-.958-.326z"/></svg>