<?xml version="1.0" encoding="UTF-8" standalone="no"?>
<svg
   xmlns:dc="http://purl.org/dc/elements/1.1/"
   xmlns:cc="http://creativecommons.org/ns#"
   xmlns:rdf="http://www.w3.org/1999/02/22-rdf-syntax-ns#"
   xmlns:svg="http://www.w3.org/2000/svg"
   xmlns="http://www.w3.org/2000/svg"
   xmlns:sodipodi="http://sodipodi.sourceforge.net/DTD/sodipodi-0.dtd"
   xmlns:inkscape="http://www.inkscape.org/namespaces/inkscape"
   height="25"
   id="Capa_1"
   version="1.1"
   viewBox="0 0 24.999999 25"
   width="25"
   xml:space="preserve"
   inkscape:version="0.91 r13725"
   sodipodi:docname="arrow.svg"><metadata
     id="metadata39"><rdf:RDF><cc:Work
         rdf:about=""><dc:format>image/svg+xml</dc:format><dc:type
           rdf:resource="http://purl.org/dc/dcmitype/StillImage" /><dc:title></dc:title></cc:Work></rdf:RDF></metadata><defs
     id="defs37" /><sodipodi:namedview
     pagecolor="#ffffff"
     bordercolor="#666666"
     borderopacity="1"
     objecttolerance="10"
     gridtolerance="10"
     guidetolerance="10"
     inkscape:pageopacity="0"
     inkscape:pageshadow="2"
     inkscape:window-width="1920"
     inkscape:window-height="1027"
     id="namedview35"
     showgrid="false"
     fit-margin-top="0"
     fit-margin-left="0"
     fit-margin-right="0"
     fit-margin-bottom="0"
     inkscape:zoom="10.261093"
     inkscape:cx="-7.1137563"
     inkscape:cy="8.1902484"
     inkscape:window-x="-8"
     inkscape:window-y="1072"
     inkscape:window-maximized="1"
     inkscape:current-layer="Capa_1" /><path
     d="m 5.9799253,21.7901 c -0.7271699,0.734778 -0.7271699,1.924445 0,2.659224 0.72717,0.733691 1.9054245,0.734779 2.6336818,0 L 19.020073,13.829816 c 0.72717,-0.734778 0.72717,-1.925532 0,-2.660311 L 8.6136071,0.55108374 c -0.7282573,-0.7347784 -1.9054248,-0.7347784 -2.6336818,0 -0.7271699,0.73477836 -0.7271699,1.92444586 0,2.65922426 L 14.514118,12.499933 5.9799253,21.7901 Z"
     id="path3"
     inkscape:connector-curvature="0"
     style="fill:#ffffff" /><g
     id="g5"
     transform="translate(-4.999975e-4,-21.00025)" /><g
     id="g7"
     transform="translate(-4.999975e-4,-21.00025)" /><g
     id="g9"
     transform="translate(-4.999975e-4,-21.00025)" /><g
     id="g11"
     transform="translate(-4.999975e-4,-21.00025)" /><g
     id="g13"
     transform="translate(-4.999975e-4,-21.00025)" /><g
     id="g15"
     transform="translate(-4.999975e-4,-21.00025)" /><g
     id="g17"
     transform="translate(-4.999975e-4,-21.00025)" /><g
     id="g19"
     transform="translate(-4.999975e-4,-21.00025)" /><g
     id="g21"
     transform="translate(-4.999975e-4,-21.00025)" /><g
     id="g23"
     transform="translate(-4.999975e-4,-21.00025)" /><g
     id="g25"
     transform="translate(-4.999975e-4,-21.00025)" /><g
     id="g27"
     transform="translate(-4.999975e-4,-21.00025)" /><g
     id="g29"
     transform="translate(-4.999975e-4,-21.00025)" /><g
     id="g31"
     transform="translate(-4.999975e-4,-21.00025)" /><g
     id="g33"
     transform="translate(-4.999975e-4,-21.00025)" /></svg>