<?xml version="1.0" encoding="UTF-8" standalone="no"?>
<!-- Created with Inkscape (http://www.inkscape.org/) -->

<svg
   xmlns:dc="http://purl.org/dc/elements/1.1/"
   xmlns:cc="http://creativecommons.org/ns#"
   xmlns:rdf="http://www.w3.org/1999/02/22-rdf-syntax-ns#"
   xmlns:svg="http://www.w3.org/2000/svg"
   xmlns="http://www.w3.org/2000/svg"
   xmlns:sodipodi="http://sodipodi.sourceforge.net/DTD/sodipodi-0.dtd"
   xmlns:inkscape="http://www.inkscape.org/namespaces/inkscape"
   width="300"
   height="174.98663"
   viewBox="0 0 300 174.98663"
   id="svg2"
   version="1.1"
   inkscape:version="0.91 r13725"
   sodipodi:docname="hot.svg">
  <defs
     id="defs4" />
  <sodipodi:namedview
     id="base"
     pagecolor="#ffffff"
     bordercolor="#666666"
     borderopacity="1.0"
     inkscape:pageopacity="0.0"
     inkscape:pageshadow="2"
     inkscape:zoom="1.4"
     inkscape:cx="274.47844"
     inkscape:cy="210.19828"
     inkscape:document-units="px"
     inkscape:current-layer="layer1"
     showgrid="false"
     inkscape:window-width="1920"
     inkscape:window-height="1027"
     inkscape:window-x="-8"
     inkscape:window-y="-8"
     inkscape:window-maximized="1"
     fit-margin-top="0"
     fit-margin-left="0"
     fit-margin-right="100"
     fit-margin-bottom="0"
     units="px" />
  <metadata
     id="metadata7">
    <rdf:RDF>
      <cc:Work
         rdf:about="">
        <dc:format>image/svg+xml</dc:format>
        <dc:type
           rdf:resource="http://purl.org/dc/dcmitype/StillImage" />
        <dc:title></dc:title>
      </cc:Work>
    </rdf:RDF>
  </metadata>
  <g
     inkscape:label="Layer 1"
     inkscape:groupmode="layer"
     id="layer1"
     transform="translate(-69.965634,-660.08337)">
    <path
       style="fill:#000000"
       d="m 74.288353,834.67386 c -1.828628,-0.53005 -3.946697,-3.07985 -4.250981,-5.11748 -0.139029,-0.93101 -0.06975,-2.17272 0.153943,-2.75937 0.897899,-2.35475 94.474825,-164.06272 95.507785,-165.04465 2.42931,-2.30928 6.49751,-2.20818 8.70738,0.21639 1.33323,1.46277 94.38139,162.46177 95.1839,164.69444 0.78746,2.19079 0.33204,4.28431 -1.33289,6.12719 -0.78523,0.86916 -1.97224,1.67988 -2.7936,1.90802 -1.84083,0.51131 -189.409955,0.48722 -191.175537,-0.0245 z M 252.10636,821.94483 c 0,-0.43019 -81.88957,-142.12212 -82.13819,-142.12212 -0.25022,0 -82.134447,141.68495 -82.134447,142.11791 0,0.13843 36.961347,0.2517 82.136317,0.2517 45.17497,0 82.13632,-0.11137 82.13632,-0.24749 z m -122.0311,-11.2907 0,-2.54232 39.69922,0 39.69922,0 0,2.54232 0,2.54231 -39.69922,0 -39.69922,0 0,-2.54231 z m 18.84652,-7.50328 c -0.2828,-0.11314 -0.68394,-0.6522 -0.89142,-1.19792 -0.31713,-0.8341 -0.12999,-1.40409 1.17435,-3.57689 2.85095,-4.74915 3.31854,-6.34276 3.34059,-11.385 0.0236,-5.39954 -0.43081,-6.94921 -4.72933,-16.12829 -4.47484,-9.5556 -4.96124,-11.24185 -4.99393,-17.31292 -0.0246,-4.56722 0.0785,-5.37541 1.01271,-7.94213 1.35635,-3.72643 4.04298,-8.22009 5.24087,-8.76589 1.27179,-0.57947 2.79973,0.12562 3.13081,1.44475 0.19171,0.76382 -0.13047,1.57861 -1.3865,3.50643 -2.50386,3.84308 -3.51702,7.13035 -3.52691,11.44331 -0.01,4.37346 1.00552,7.91166 4.18635,14.58533 3.24581,6.80999 4.38426,9.67203 5.21366,13.10697 1.40108,5.80259 0.77536,11.1784 -1.95853,16.8266 -2.41582,4.99109 -3.74346,6.22347 -5.81272,5.39565 z m 19.50745,-0.4911 c -0.99829,-0.99829 -1.01624,-1.75615 -0.0732,-3.09232 2.94621,-4.17454 4.53834,-9.39768 4.25084,-13.94532 -0.2486,-3.93228 -1.362,-7.24926 -5.12263,-15.26096 -1.61743,-3.44579 -3.39185,-7.82164 -3.94316,-9.7241 -2.24488,-7.74661 -0.7911,-15.80538 4.04792,-22.43889 1.37456,-1.88431 2.65557,-2.17003 3.94557,-0.88003 1.04632,1.04632 0.99508,1.46914 -0.45284,3.7369 -1.91002,2.99151 -3.35159,6.42422 -3.8484,9.16393 -0.8833,4.87117 0.21293,9.27582 4.67407,18.78032 4.84417,10.32053 6.06295,15.23457 5.18273,20.89634 -0.91187,5.86542 -4.62035,13.19654 -6.80302,13.4486 -0.66516,0.0768 -1.34821,-0.17484 -1.85785,-0.68447 z m 19.75031,-0.11072 c -0.80594,-1.15065 -0.76488,-1.82778 0.19633,-3.23754 3.00002,-4.39995 4.49112,-9.34213 4.13592,-13.7082 -0.31179,-3.83239 -1.43344,-7.19141 -4.82607,-14.45282 -4.82388,-10.32474 -6.0155,-15.04202 -5.2287,-20.69889 0.86189,-6.19675 4.91398,-13.9157 7.30509,-13.9157 2.02811,0 2.74084,2.31921 1.32414,4.30877 -1.64523,2.31052 -3.59252,7.05538 -4.01458,9.78217 -0.76799,4.96162 0.0922,8.28557 4.80515,18.56802 3.55908,7.765 4.48237,10.41268 5.09709,14.61679 0.49052,3.3547 0.12803,7.02872 -1.03667,10.50708 -0.84059,2.51041 -3.15536,6.89317 -4.28365,8.11061 -1.13936,1.2294 -2.66009,1.2818 -3.47405,0.11971 z"
       id="path4192"
       inkscape:connector-curvature="0" />
  </g>
</svg>
