<?xml version="1.0" encoding="UTF-8" standalone="no"?>
<!-- Created with Inkscape (http://www.inkscape.org/) -->

<svg
   xmlns:dc="http://purl.org/dc/elements/1.1/"
   xmlns:cc="http://creativecommons.org/ns#"
   xmlns:rdf="http://www.w3.org/1999/02/22-rdf-syntax-ns#"
   xmlns:svg="http://www.w3.org/2000/svg"
   xmlns="http://www.w3.org/2000/svg"
   xmlns:sodipodi="http://sodipodi.sourceforge.net/DTD/sodipodi-0.dtd"
   xmlns:inkscape="http://www.inkscape.org/namespaces/inkscape"
   width="300"
   height="176.94894"
   viewBox="0 0 300 176.94894"
   id="svg2"
   version="1.1"
   inkscape:version="0.91 r13725"
   sodipodi:docname="pinch.svg">
  <defs
     id="defs4" />
  <sodipodi:namedview
     id="base"
     pagecolor="#ffffff"
     bordercolor="#666666"
     borderopacity="1.0"
     inkscape:pageopacity="0.0"
     inkscape:pageshadow="2"
     inkscape:zoom="1.4"
     inkscape:cx="22.267609"
     inkscape:cy="142.26719"
     inkscape:document-units="px"
     inkscape:current-layer="layer1"
     showgrid="false"
     inkscape:window-width="1920"
     inkscape:window-height="1027"
     inkscape:window-x="-8"
     inkscape:window-y="-8"
     inkscape:window-maximized="1"
     fit-margin-top="0"
     fit-margin-left="0"
     fit-margin-right="100"
     fit-margin-bottom="0"
     units="px" />
  <metadata
     id="metadata7">
    <rdf:RDF>
      <cc:Work
         rdf:about="">
        <dc:format>image/svg+xml</dc:format>
        <dc:type
           rdf:resource="http://purl.org/dc/dcmitype/StillImage" />
        <dc:title></dc:title>
      </cc:Work>
    </rdf:RDF>
  </metadata>
  <g
     inkscape:label="Layer 1"
     inkscape:groupmode="layer"
     id="layer1"
     transform="translate(-200.00001,-575.41325)">
    <path
       style="fill:#000000"
       d="m 210.30838,751.75215 c -2.4164,-0.82681 -3.97871,-1.78874 -5.69885,-3.50896 -4.42059,-4.42049 -5.78314,-10.57123 -3.55833,-16.0624 0.95279,-2.35201 86.19669,-149.79404 87.643,-151.59184 4.03205,-5.0121 11.67092,-6.63111 17.75071,-3.76223 2.0985,0.99023 4.51015,3.03699 5.8167,4.9368 1.19494,1.73749 86.16464,148.97418 86.67615,150.19376 1.24864,2.97707 1.41339,7.06017 0.40446,10.0197 -1.70532,5.00238 -5.93088,9.02321 -10.61771,10.10326 -0.82778,0.19059 -29.70356,0.28224 -88.9302,0.28196 l -87.70435,-3e-4 -1.78158,-0.60965 z m 178.28666,-5.8986 c 3.91396,-1.79881 6.21955,-6.32924 5.2155,-10.24852 -0.34251,-1.33697 -9.3616,-17.15231 -43.38733,-76.0809 -28.37174,-49.13692 -43.32697,-74.78105 -44.05102,-75.53574 -1.75477,-1.82893 -3.37512,-2.4675 -6.30376,-2.48457 -2.15945,-0.0137 -2.66002,0.0807 -4.01816,0.74749 -0.85332,0.41899 -1.96441,1.2207 -2.46929,1.78149 -0.9004,1.00025 -85.68731,147.50039 -86.89406,150.14093 -0.92386,2.02167 -0.8744,4.95559 0.11713,6.96514 0.40916,0.82906 1.10534,1.94317 1.54699,2.47584 0.95546,1.1522 3.12967,2.39292 4.75911,2.71584 0.64482,0.12783 40.08437,0.21444 87.64333,0.19259 l 86.47115,-0.04 1.37041,-0.62973 z m -93.01391,-7.73532 c -7.05427,-0.97898 -13.4828,-5.58565 -16.62941,-11.91653 -1.67094,-3.36198 -2.33177,-6.12142 -2.33722,-9.75855 -0.005,-3.79153 0.5684,-6.30504 2.21498,-9.70086 1.56495,-3.22701 3.66324,-5.85151 6.2402,-7.80427 9.11245,-6.90556 21.65204,-5.88575 29.4314,2.39356 2.29539,2.4428 3.79198,4.95984 4.92828,8.28861 0.83112,2.43476 0.88972,2.85252 0.90424,6.44078 0.0177,4.34717 -0.33541,6.08274 -1.91694,9.43131 -3.57324,7.56524 -10.48552,12.24482 -18.81025,12.73427 -1.25334,0.0739 -3.06477,0.025 -4.02528,-0.10839 z m 5.53304,-12.37242 c 1.37026,-0.7298 1.7028,-2.36343 0.73237,-3.59734 -1.71702,-2.18271 -5.0643,-0.1661 -3.99033,2.40418 0.59331,1.42001 1.91987,1.90589 3.25796,1.19316 z m -0.15527,-7.19723 c 2.01574,-2.19956 0.51813,-5.64188 -2.45288,-5.63858 -1.25957,10e-4 -2.64251,0.92468 -3.12892,2.08904 -1.45943,3.49268 3.02216,6.3425 5.5818,3.54954 z m 28.98369,3.56453 c -1.60907,-0.71824 -2.28707,-1.89024 -5.87892,-10.16355 -3.92178,-9.03322 -4.98161,-10.84403 -8.05699,-13.76517 -3.52555,-3.34913 -7.9464,-5.6183 -12.74204,-6.54066 -2.38032,-0.45776 -6.70836,-0.50417 -8.91836,-0.0951 l -1.57454,0.29101 -18.96295,-7.99838 c -10.4297,-4.39899 -19.34727,-8.28534 -19.81694,-8.63624 -1.73406,-1.29536 -2.57905,-4.44922 -2.02091,-7.54374 0.35435,-1.96519 0.86232,-2.71509 1.83959,-2.71509 0.70267,0 8.4458,3.12458 23.21314,9.3671 4.97075,2.10118 10.32192,4.18115 11.89131,4.62176 5.87465,1.64955 10.98157,1.67713 16.02858,0.087 4.32167,-1.36213 6.87492,-2.99214 11.26921,-7.1948 4.72381,-4.51767 7.8277,-5.90024 13.18171,-5.87153 2.8578,0.0156 3.39349,0.11868 10.27798,1.98284 3.99458,1.08189 8.06611,2.20439 9.04771,2.49453 l 1.78467,0.52772 9.67632,16.75383 c 5.32196,9.21463 9.63723,16.78732 9.58944,16.82807 -0.0944,0.0813 -1.40894,-0.28548 -20.75503,-5.78385 -7.14674,-2.03116 -13.42104,-3.87143 -13.94283,-4.08947 -1.13821,-0.47555 -2.79295,-0.51299 -3.73356,-0.0845 -0.37668,0.17169 -0.89427,0.75338 -1.15019,1.29264 -0.63729,1.3431 -0.52571,1.69005 3.67614,11.425 1.94932,4.51622 3.62923,8.60172 3.73321,9.07903 0.4254,1.95291 -0.92824,4.58785 -2.86426,5.57555 -1.24855,0.63697 -3.54752,0.71228 -4.79149,0.15714 z M 261.7226,707.27033 c -1.99586,-0.73125 -3.99514,-2.73071 -3.99796,-3.99833 -5.7e-4,-0.28691 3.40239,-2.86327 9.1895,-6.95712 5.05489,-3.57578 9.15568,-6.53049 9.11305,-6.56568 -0.0429,-0.0355 -4.70259,0.48269 -10.35534,1.15085 -8.7455,1.03368 -10.48453,1.17018 -11.66382,0.91511 -2.61747,-0.56604 -4.43893,-2.79047 -4.70506,-5.74582 -0.21659,-2.40603 -0.28908,-2.37703 8.03878,-3.21139 l 7.09668,-0.71115 11.9831,5.03477 c 6.5907,2.76899 11.9866,5.11473 11.99097,5.21241 0.0174,0.39795 -19.41688,14.09203 -20.82222,14.6722 -1.75544,0.72474 -4.21348,0.81021 -5.86768,0.20415 z m 30.51258,-30.81619 c -7.97061,-1.96117 -14.11679,-8.0871 -16.17068,-16.11753 -0.63962,-2.50071 -0.70076,-7.26533 -0.1282,-9.96721 1.38337,-6.5274 5.95042,-12.18109 12.23408,-15.14489 2.79747,-1.31953 4.82691,-1.81166 8.21053,-1.99092 10.89882,-0.57743 20.41882,6.89485 22.6192,17.75369 0.54513,2.69065 0.41092,7.08234 -0.29682,9.71017 -0.65838,2.44442 -2.65534,6.34985 -4.23592,8.28395 -2.84731,3.48439 -7.40146,6.34446 -11.90762,7.47824 -2.84493,0.71562 -7.40315,0.71327 -10.32457,-0.005 z m 6.42558,-18.19015 c 2.62189,-1.09549 2.87911,-4.80593 0.42134,-6.07697 -1.22269,-0.63214 -2.81542,-0.50667 -3.77075,0.29708 -2.45991,2.06988 -1.1939,5.77133 2.09362,6.12049 0.19323,0.0206 0.75832,-0.13284 1.25579,-0.3406 z"
       id="path4147"
       inkscape:connector-curvature="0" />
  </g>
</svg>
