<?xml version="1.0" encoding="UTF-8" standalone="no"?>
<!-- Created with Inkscape (http://www.inkscape.org/) -->

<svg
   xmlns:dc="http://purl.org/dc/elements/1.1/"
   xmlns:cc="http://creativecommons.org/ns#"
   xmlns:rdf="http://www.w3.org/1999/02/22-rdf-syntax-ns#"
   xmlns:svg="http://www.w3.org/2000/svg"
   xmlns="http://www.w3.org/2000/svg"
   xmlns:sodipodi="http://sodipodi.sourceforge.net/DTD/sodipodi-0.dtd"
   xmlns:inkscape="http://www.inkscape.org/namespaces/inkscape"
   width="300"
   height="213.94962"
   viewBox="0 0 300 213.94961"
   id="svg2"
   version="1.1"
   inkscape:version="0.91 r13725"
   sodipodi:docname="prick.svg">
  <defs
     id="defs4" />
  <sodipodi:namedview
     id="base"
     pagecolor="#ffffff"
     bordercolor="#666666"
     borderopacity="1.0"
     inkscape:pageopacity="0.0"
     inkscape:pageshadow="2"
     inkscape:zoom="1.4"
     inkscape:cx="200.22621"
     inkscape:cy="218.70178"
     inkscape:document-units="px"
     inkscape:current-layer="layer1"
     showgrid="false"
     inkscape:window-width="1920"
     inkscape:window-height="1027"
     inkscape:window-x="-8"
     inkscape:window-y="-8"
     inkscape:window-maximized="1"
     fit-margin-top="0"
     fit-margin-left="0"
     fit-margin-right="100"
     fit-margin-bottom="0"
     units="px" />
  <metadata
     id="metadata7">
    <rdf:RDF>
      <cc:Work
         rdf:about="">
        <dc:format>image/svg+xml</dc:format>
        <dc:type
           rdf:resource="http://purl.org/dc/dcmitype/StillImage" />
        <dc:title></dc:title>
      </cc:Work>
    </rdf:RDF>
  </metadata>
  <g
     inkscape:label="Layer 1"
     inkscape:groupmode="layer"
     id="layer1"
     transform="translate(-144.21786,-629.62389)">
    <path
       style="fill:#000000"
       d="m 275.61665,826.18621 c -16.91906,-16.93763 -17.46843,-17.38727 -21.24347,-17.38727 -5.97615,0 -13.17655,-1.62206 -19.51246,-4.39565 -5.21836,-2.28437 -9.69589,-6.4358 -47.29636,-43.85168 -22.84278,-22.73065 -42.05523,-42.59084 -42.69434,-44.13379 -0.99737,-2.40788 -0.90475,-3.28535 0.65375,-6.19317 0.99867,-1.86329 3.34027,-4.20489 5.20356,-5.20356 2.9402,-1.57586 3.76855,-1.65806 6.26948,-0.62214 1.58491,0.6565 11.1888,9.61377 21.34198,19.90504 13.26727,13.44774 19.06277,18.71142 20.60192,18.71142 2.48108,0 5.2522,-2.68969 5.2522,-5.09788 0,-0.91338 -12.06274,-13.95705 -26.80609,-28.98592 -14.74335,-15.02888 -27.05518,-28.31771 -27.35964,-29.53073 -1.31034,-5.22084 4.41899,-11.55559 10.45803,-11.56313 2.43207,-0.003 6.44393,3.63564 29.78518,27.01472 15.2393,15.26398 27.84872,27.1533 28.98392,27.32869 2.45789,0.37976 5.61343,-2.29878 5.61343,-4.7649 0,-1.11193 -11.08987,-13.14632 -28.66051,-31.10153 -25.17499,-25.726 -28.66078,-29.64381 -28.66282,-32.21529 -0.003,-3.65361 3.09619,-7.69971 7.21602,-9.42109 2.71076,-1.13262 3.49794,-1.12547 5.71574,0.052 1.41462,0.75102 15.04473,13.86873 30.28912,29.15047 28.35282,28.42227 29.93582,29.67288 33.3005,26.30821 2.35966,-2.35967 1.73197,-5.23087 -1.97302,-9.02513 l -3.4498,-3.53291 8.24219,-3.78989 c 4.53321,-2.08444 8.7356,-3.78989 9.33866,-3.78989 0.60305,0 5.94594,4.86328 11.8731,10.8073 5.92715,5.94401 11.31215,10.80729 11.96667,10.80729 1.63764,0 1.51334,-2.90684 -0.82985,-19.40614 -1.99336,-14.036 -1.99669,-14.28058 -0.23599,-17.28742 4.0471,-6.91135 11.46812,-9.07058 15.84102,-4.6091 2.05687,2.09854 2.84518,5.96754 8.90213,43.69166 3.65498,22.76407 6.64543,43.84106 6.64543,46.83777 l 0,5.44856 16.91576,17.47486 c 9.30368,9.61118 16.91577,17.71676 16.91577,18.0124 0,0.29564 -11.52743,12.05923 -25.6165,26.14132 l -25.6165,25.6038 -17.36821,-17.38726 z m -48.16899,-147.78054 -4.39765,-4.46479 10.68788,-4.82006 10.68787,-4.82006 4.49574,4.56437 c 2.47267,2.51041 4.30979,4.74341 4.08252,4.96222 -0.67815,0.65291 -19.62796,9.04312 -20.42444,9.04312 -0.40385,0 -2.71321,-2.00916 -5.13192,-4.4648 z m -14.471,-13.76822 c -2.50514,-2.27509 -4.34336,-4.34633 -4.08492,-4.60274 0.25843,-0.25641 5.12171,-2.5769 10.80729,-5.15665 l 10.33741,-4.69046 4.45801,4.31831 c 2.45191,2.37508 4.14348,4.61712 3.75906,4.98233 -0.68271,0.64857 -19.6104,9.28576 -20.34899,9.28576 -0.20518,0 -2.42272,-1.86145 -4.92786,-4.13655 z m -11.63972,-11.41377 c -1.03299,-1.24468 -0.0693,-2.52248 6.69823,-8.88175 4.34764,-4.08536 8.13393,-7.44863 8.41396,-7.47393 0.28004,-0.0253 2.30682,1.78567 4.50395,4.0244 l 3.9948,4.0704 -10.43559,4.85736 c -5.73957,2.67155 -10.78056,4.85736 -11.20218,4.85736 -0.42163,0 -1.30955,-0.65422 -1.97317,-1.45384 z m -6.11805,-10.23192 c -2.81225,-4.29204 1.46575,-11.77132 7.61586,-13.31489 1.66267,-0.4173 7.93652,1.73728 7.93652,2.72558 0,0.12705 -3.15443,3.08795 -7.00983,6.57978 l -7.00982,6.34877 -1.53273,-2.33924 z"
       id="path4205"
       inkscape:connector-curvature="0" />
  </g>
</svg>
