<svg xmlns="http://www.w3.org/2000/svg" viewBox="0 0 463 463"><path d="M231.5 135c17.369 0 31.5-14.131 31.5-31.5S248.869 72 231.5 72 200 86.131 200 103.5s14.131 31.5 31.5 31.5zm0-48c9.098 0 16.5 7.402 16.5 16.5s-7.402 16.5-16.5 16.5-16.5-7.402-16.5-16.5S222.402 87 231.5 87z"/><path d="M332.939 248.331L287 196.648V92.873a55.513 55.513 0 0 0-7.995-28.698l-34.429-56.99a8.36 8.36 0 0 0-.179-.282C241.516 2.581 236.694 0 231.5 0s-10.016 2.581-12.897 6.903a7.461 7.461 0 0 0-.179.282l-34.429 56.991A55.513 55.513 0 0 0 176 92.874v103.775l-45.939 51.682A71.424 71.424 0 0 0 112 295.833V399.5c0 4.142 3.357 7.5 7.5 7.5s7.5-3.358 7.5-7.5v-29.148l53.848-60.579A23.587 23.587 0 0 0 192 317.766V335.5c0 5.853 3.262 10.956 8.063 13.593.458 21.238 3.891 71.455 24.848 109.99a7.5 7.5 0 0 0 13.178 0c20.957-38.535 24.39-88.752 24.848-109.99 4.8-2.637 8.063-7.74 8.063-13.593v-17.734a23.592 23.592 0 0 0 11.152-7.993L336 370.352V399.5c0 4.142 3.357 7.5 7.5 7.5s7.5-3.358 7.5-7.5V295.833c0-17.531-6.414-34.4-18.061-47.502zm-11.21 9.965A56.443 56.443 0 0 1 336 295.833v51.941l-49-55.125v-73.422l34.729 39.069zM196.835 71.931l34.3-56.778c.061-.072.166-.153.365-.153s.304.081.365.153l34.3 56.778A40.505 40.505 0 0 1 272 92.873V144h-81V92.873a40.505 40.505 0 0 1 5.835-20.942zM127 295.833a56.44 56.44 0 0 1 14.271-37.536L176 219.227v73.422l-49 55.125v-51.941zM256 319v16.5a.5.5 0 0 1-.5.5h-48a.5.5 0 0 1-.5-.5V319h49zm-24.5 118.958c-13.051-31.917-15.853-68.562-16.385-86.958h32.769c-.531 18.395-3.333 55.041-16.384 86.958zM263.5 304h-64c-4.687 0-8.5-3.813-8.5-8.5V159h81v136.5c0 4.687-3.813 8.5-8.5 8.5z"/></svg>