<svg xmlns="http://www.w3.org/2000/svg" width="24.5mm" height="24.5mm" viewBox="0 0 86.811024 86.811023" id="svg2"><g id="layer1" transform="translate(-356.5 -221.757)"><g id="g4166" transform="translate(0 -4.349)" color="#000" font-weight="400" font-family="sans-serif" white-space="normal" fill="#010000" stroke-miterlimit="10"><path id="path4139" d="M362.105 287.068c-3.126 0-5.7 2.575-5.7 5.702v1.6c0 3.125 2.574 5.698 5.7 5.698h75.601c3.126 0 5.7-2.573 5.7-5.699v-1.6c0-3.126-2.574-5.7-5.7-5.7h-75.601zm0 3h75.601c1.474 0 2.7 1.228 2.7 2.702v1.6c0 1.473-1.226 2.698-2.7 2.698h-75.601a2.721 2.721 0 0 1-2.7-2.699v-1.6c0-1.473 1.226-2.7 2.7-2.7z" style="line-height:normal;text-indent:0;text-align:start;text-decoration-line:none;text-decoration-style:solid;text-decoration-color:#000;text-transform:none;block-progression:tb;isolation:auto;mix-blend-mode:normal" overflow="visible" stroke-width="3" stroke-linecap="round"/><path id="path4141" d="M364.906 301.568v6a1 1 0 0 0 1 1h8a1 1 0 0 0 1-1v-6h-2v5h-6v-5h-2zm60 0v6a1 1 0 0 0 1 1h8a1 1 0 0 0 1-1v-6h-2v5h-6v-5h-2z" style="line-height:normal;text-indent:0;text-align:start;text-decoration-line:none;text-decoration-style:solid;text-decoration-color:#000;text-transform:none;block-progression:tb;isolation:auto;mix-blend-mode:normal" overflow="visible" stroke-width="2" stroke-linejoin="round"/><path id="path4143" d="M367.911 230.455a1 1 0 0 0-.957.701s-1.004 3.071-2.011 6.71c-1.008 3.637-2.037 7.756-2.037 10.302 0 3.033 2.17 6.034 4.171 8.986 2.002 2.952 3.829 5.87 3.829 7.715 0 1.954-.97 6.183-1.963 9.77-.993 3.586-1.989 6.619-1.989 6.619a1 1 0 0 0 1.903.623s1.004-3.069 2.011-6.707c1.008-3.638 2.038-7.759 2.038-10.305 0-2.955-2.174-5.888-4.172-8.836-1.999-2.948-3.828-5.898-3.828-7.865 0-1.954.97-6.183 1.962-9.77.993-3.586 1.989-6.619 1.989-6.619a1 1 0 0 0-.946-1.324zm16 0a1 1 0 0 0-.957.701s-1.004 3.071-2.011 6.71c-1.008 3.637-2.037 7.756-2.037 10.302 0 3.033 2.17 6.034 4.171 8.986 2.002 2.952 3.829 5.87 3.829 7.715 0 1.954-.97 6.183-1.963 9.77-.993 3.586-1.989 6.619-1.989 6.619a1 1 0 0 0 1.903.623s1.004-3.069 2.011-6.707c1.008-3.638 2.038-7.759 2.038-10.305 0-2.955-2.174-5.888-4.172-8.836-1.999-2.948-3.828-5.898-3.828-7.865 0-1.954.97-6.183 1.962-9.77.993-3.586 1.989-6.619 1.989-6.619a1 1 0 0 0-.946-1.324zm16 0a1 1 0 0 0-.957.701s-1.004 3.071-2.011 6.71c-1.008 3.637-2.037 7.756-2.037 10.302 0 3.033 2.17 6.034 4.171 8.986 2.002 2.952 3.829 5.87 3.829 7.715 0 1.954-.97 6.183-1.963 9.77-.993 3.586-1.989 6.619-1.989 6.619a1 1 0 0 0 1.903.623s1.004-3.069 2.011-6.707c1.008-3.638 2.038-7.759 2.038-10.305 0-2.955-2.174-5.888-4.172-8.836-1.999-2.948-3.828-5.898-3.828-7.865 0-1.954.97-6.183 1.962-9.77.993-3.586 1.989-6.619 1.989-6.619a1 1 0 0 0-.946-1.324zm16 0a1 1 0 0 0-.957.701s-1.004 3.071-2.011 6.71c-1.008 3.637-2.037 7.756-2.037 10.302 0 3.033 2.17 6.034 4.171 8.986 2.002 2.952 3.829 5.87 3.829 7.715 0 1.954-.97 6.183-1.963 9.77-.993 3.586-1.989 6.619-1.989 6.619a1 1 0 0 0 1.903.623s1.004-3.069 2.011-6.707c1.008-3.638 2.038-7.759 2.038-10.305 0-2.955-2.174-5.888-4.172-8.836-1.999-2.948-3.828-5.898-3.828-7.865 0-1.954.97-6.183 1.962-9.77.993-3.586 1.989-6.619 1.989-6.619a1 1 0 0 0-.946-1.324zm16 0a1 1 0 0 0-.957.701s-1.004 3.071-2.011 6.71c-1.008 3.637-2.037 7.756-2.037 10.302 0 3.033 2.17 6.034 4.171 8.986 2.002 2.952 3.829 5.87 3.829 7.715 0 1.954-.97 6.183-1.963 9.77-.993 3.586-1.989 6.619-1.989 6.619a1 1 0 0 0 1.903.623s1.004-3.069 2.011-6.707c1.008-3.638 2.038-7.759 2.038-10.305 0-2.955-2.174-5.888-4.172-8.836-1.999-2.948-3.828-5.898-3.828-7.865 0-1.954.97-6.183 1.962-9.77.993-3.586 1.989-6.619 1.989-6.619a1 1 0 0 0-.946-1.324z" style="line-height:normal;text-indent:0;text-align:start;text-decoration-line:none;text-decoration-style:solid;text-decoration-color:#000;text-transform:none;block-progression:tb;isolation:auto;mix-blend-mode:normal" overflow="visible" stroke-width="2" stroke-linecap="round" stroke-linejoin="round"/></g></g><style id="style4137">.st0{fill:none;stroke:#010000;stroke-width:4;stroke-miterlimit:10}.st0,.st1{stroke-linecap:round}.st1,.st2,.st3{fill:none;stroke:#010000;stroke-width:4;stroke-linejoin:round;stroke-miterlimit:10}.st3{stroke-width:6;stroke-linecap:round}.st4{fill:#010000}.st5,.st6,.st7{stroke:#010000;stroke-miterlimit:10}.st5{fill:none;stroke-linejoin:round;stroke-width:3.8974}.st6,.st7{stroke-width:2}.st6{stroke-linecap:round;stroke-linejoin:round;fill:none}.st7{fill:#010000}.st8{opacity:.75}.st9{stroke-width:2;stroke-linejoin:round}.st10,.st11,.st9{fill:none;stroke:#010000;stroke-miterlimit:10}.st10{stroke-linejoin:round;stroke-width:6}.st11{stroke-width:3}.st11,.st12,.st13{stroke-linejoin:round}.st12{fill:none;stroke:#010000;stroke-miterlimit:10;stroke-width:3.9497}.st13{stroke-width:1.9008}.st13,.st14,.st15,.st16,.st17,.st18,.st19{fill:none;stroke:#010000;stroke-miterlimit:10}.st14{stroke-linejoin:round;stroke-width:1.9935}.st15{stroke-width:4}.st16{stroke-width:1.9048}.st16,.st17,.st18,.st19{stroke-linecap:round;stroke-linejoin:round}.st17{stroke-width:1.934}.st18{stroke-width:1.9684}.st19{stroke-width:1.9343}</style></svg>