<svg xmlns="http://www.w3.org/2000/svg" viewBox="0 0 24.069 24.069"><path d="M14.647 1.587a.875.875 0 1 1 0 1.75.875.875 0 0 1 0-1.75zm.424 10.251l-.272-.523c0-.12-.018-.235-.03-.35V7.251c.403-.104.705-.522.705-1.024 0-.581-.402-1.05-.898-1.05h-1.791c.089-.174.148-.363.148-.571a1.288 1.288 0 0 0-2.577 0c0 .208.062.397.148.571h-.867c-.496 0-.898.469-.898 1.05 0 .502.303.92.705 1.024v3.714c-.013.114-.029.229-.029.35l-.222.424c-2.163 1.056-3.658 3.264-3.658 5.831a6.5 6.5 0 0 0 12.998 0c.002-2.49-1.404-4.642-3.462-5.732zm-5.407 6.516a1.105 1.105 0 1 1 0-2.21 1.105 1.105 0 0 1 0 2.21zm3.185 2.006a.975.975 0 1 1 0-1.95.975.975 0 0 1 0 1.95zm.608-4.193a1.628 1.628 0 1 1 0-3.256 1.628 1.628 0 0 1 0 3.256zM12.126 0a.77.77 0 1 1 0 1.542.77.77 0 0 1 0-1.542z" fill="#010002"/></svg>