<?xml version='1.0' encoding='iso-8859-1'?>
<svg version="1.1" xmlns="http://www.w3.org/2000/svg" viewBox="0 0 463 463" xmlns:xlink="http://www.w3.org/1999/xlink" enable-background="new 0 0 463 463">
  <g>
    <g>
      <path d="m231.5,135c17.369,0 31.5-14.131 31.5-31.5s-14.131-31.5-31.5-31.5-31.5,14.131-31.5,31.5 14.131,31.5 31.5,31.5zm0-48c9.098,0 16.5,7.402 16.5,16.5s-7.402,16.5-16.5,16.5-16.5-7.402-16.5-16.5 7.402-16.5 16.5-16.5z"/>
      <path d="m332.939,248.331l-45.939-51.683v-103.775c0-10.115-2.765-20.038-7.995-28.698l-34.429-56.99c-0.058-0.095-0.117-0.189-0.179-0.282-2.881-4.322-7.703-6.903-12.897-6.903s-10.016,2.581-12.897,6.903c-0.062,0.092-0.121,0.187-0.179,0.282l-34.429,56.991c-5.23,8.66-7.995,18.583-7.995,28.698v103.775l-45.939,51.682c-11.647,13.102-18.061,29.971-18.061,47.502v71.667 32c0,4.142 3.357,7.5 7.5,7.5s7.5-3.358 7.5-7.5v-29.148l53.848-60.579c2.814,3.669 6.684,6.484 11.152,7.993v17.734c0,5.853 3.262,10.956 8.063,13.593 0.458,21.238 3.891,71.455 24.848,109.99 1.313,2.414 3.841,3.917 6.589,3.917s5.275-1.503 6.589-3.917c20.957-38.535 24.39-88.752 24.848-109.99 4.8-2.637 8.063-7.74 8.063-13.593v-17.734c4.468-1.509 8.337-4.324 11.152-7.993l53.848,60.579v29.148c0,4.142 3.357,7.5 7.5,7.5s7.5-3.358 7.5-7.5v-32-71.667c0-17.531-6.414-34.4-18.061-47.502zm-11.21,9.965c9.203,10.353 14.271,23.684 14.271,37.537v51.941l-49-55.125v-73.422l34.729,39.069zm-124.894-186.365l34.3-56.778c0.061-0.072 0.166-0.153 0.365-0.153s0.304,0.081 0.365,0.153l34.3,56.778c3.817,6.319 5.835,13.561 5.835,20.942v51.127h-81v-51.127c0-7.381 2.018-14.623 5.835-20.942zm-69.835,223.902c0-13.853 5.068-27.183 14.271-37.536l34.729-39.07v73.422l-49,55.125v-51.941zm129,23.167v16.5c0,0.276-0.225,0.5-0.5,0.5h-48c-0.275,0-0.5-0.224-0.5-0.5v-16.5h49zm-24.5,118.958c-13.051-31.917-15.853-68.562-16.385-86.958h32.769c-0.531,18.395-3.333,55.041-16.384,86.958zm32-133.958h-64c-4.687,0-8.5-3.813-8.5-8.5v-136.5h81v136.5c0,4.687-3.813,8.5-8.5,8.5z"/>
    </g>
  </g>
</svg>
