<?xml version="1.0" encoding="UTF-8" standalone="no"?>
<!-- Created with Inkscape (http://www.inkscape.org/) -->

<svg
   xmlns:dc="http://purl.org/dc/elements/1.1/"
   xmlns:cc="http://creativecommons.org/ns#"
   xmlns:rdf="http://www.w3.org/1999/02/22-rdf-syntax-ns#"
   xmlns:svg="http://www.w3.org/2000/svg"
   xmlns="http://www.w3.org/2000/svg"
   xmlns:sodipodi="http://sodipodi.sourceforge.net/DTD/sodipodi-0.dtd"
   xmlns:inkscape="http://www.inkscape.org/namespaces/inkscape"
   width="200"
   height="200"
   viewBox="0 0 200 199.99999"
   id="svg2"
   version="1.1"
   inkscape:version="0.91 r13725"
   sodipodi:docname="drilling.svg">
  <defs
     id="defs4" />
  <sodipodi:namedview
     id="base"
     pagecolor="#ffffff"
     bordercolor="#666666"
     borderopacity="1.0"
     inkscape:pageopacity="0.0"
     inkscape:pageshadow="2"
     inkscape:zoom="0.98994949"
     inkscape:cx="187.97346"
     inkscape:cy="6.6551882"
     inkscape:document-units="px"
     inkscape:current-layer="layer1"
     showgrid="false"
     fit-margin-top="0"
     fit-margin-left="0"
     fit-margin-right="0"
     fit-margin-bottom="0"
     inkscape:window-width="1920"
     inkscape:window-height="1027"
     inkscape:window-x="-8"
     inkscape:window-y="-8"
     inkscape:window-maximized="1"
     units="px" />
  <metadata
     id="metadata7">
    <rdf:RDF>
      <cc:Work
         rdf:about="">
        <dc:format>image/svg+xml</dc:format>
        <dc:type
           rdf:resource="http://purl.org/dc/dcmitype/StillImage" />
        <dc:title></dc:title>
      </cc:Work>
    </rdf:RDF>
  </metadata>
  <g
     inkscape:label="Layer 1"
     inkscape:groupmode="layer"
     id="layer1"
     transform="translate(-291.82783,-202.76606)">
    <g
       id="g4138"
       transform="matrix(2.5862725,0,0,2.5862725,273.63518,185.26053)"
       style="fill:#808080;fill-opacity:1;stroke:none;stroke-opacity:1">
      <path
         inkscape:connector-curvature="0"
         d="m 80.4,41.1 -7.4,0 c 0,0 -0.1,0 -0.1,0 -5.6,0.5 -7.2,4.5 -7.3,6.6 l 0,9.2 c 0,11.4 -8.7,20.6 -19.4,20.6 -10.7,0 -19.4,-9.2 -19.4,-20.6 l 0,-9.2 c 0,-0.5 0.1,-2.8 -1.5,-4.6 -1.2,-1.3 -3,-2 -5.4,-2 l -8.9,0 c -0.7,0 -1.2,0.6 -1.2,1.2 l 0,40.6 c 0,0.7 0.6,1.2 1.2,1.2 l 69.4,0 c 0.7,0 1.2,-0.6 1.2,-1.2 l 0,-40.6 c 0,-0.7 -0.5,-1.2 -1.2,-1.2 z"
         id="path4140"
         style="fill:#808080;fill-opacity:1;stroke:none;stroke-opacity:1" />
      <path
         inkscape:connector-curvature="0"
         d="m 35.3,44.7 -2.1,-0.9 c -0.9,-0.4 -1.8,0 -2.2,0.9 -0.4,0.9 0,1.8 0.9,2.2 l 3.5,1.5 0,5.5 c 0,0 0,0 0,0.1 l 0,6.2 c 0,0.4 0.1,0.8 0.4,1.1 l 8.9,10.5 c 0.3,0.4 0.8,0.6 1.3,0.6 0,0 0,0 0,0 0.5,0 1,-0.2 1.3,-0.6 L 55,62.7 c 0.3,-0.4 0.5,-0.9 0.4,-1.5 -0.1,-0.6 -0.5,-0.9 -0.9,-1.2 l -15.7,-7.2 0,-3 4.4,1.9 15.1,6.6 c 0.2,0.1 0.5,0.1 0.7,0.1 0.6,0 1.3,-0.4 1.5,-1 0.4,-0.9 0,-1.8 -0.9,-2.2 l -2.8,-1.2 0,-3.8 c 0,-0.7 -0.4,-1.3 -1,-1.6 l -17,-7.1 0,-3 15.6,6.5 3.8,1.7 c 0.2,0.1 0.5,0.1 0.7,0.1 0.6,0 1.3,-0.4 1.5,-1 0.4,-0.9 0,-1.8 -0.9,-2.2 l -2.8,-1.2 0,-3.7 c 0,-0.7 -0.4,-1.3 -1,-1.6 l -17,-7 0,-3.5 19.4,8.5 c 0.2,0.1 0.5,0.1 0.7,0.1 0.6,0 1.3,-0.4 1.5,-1 0.4,-0.9 0,-1.8 -0.9,-2.2 l -2.7,-1 0,-4.2 c 0,-0.7 -0.4,-1.3 -1,-1.5 l -17,-7.3 0,-3 15.1,6.6 4.4,1.9 c 0.2,0.1 0.5,0.1 0.7,0.1 0.6,0 1.3,-0.4 1.5,-1 0.4,-0.9 0,-1.8 -0.9,-2.2 l -2.8,-1.2 0,-3.2 c 0,-0.7 -0.4,-1.3 -1,-1.6 L 37.7,6.9 C 37.2,6.7 36.6,6.7 36.1,7.1 35.6,7.5 35.3,7.9 35.3,8.5 l 0,1.3 -2.1,-0.9 c -0.9,-0.4 -1.8,0 -2.2,0.9 -0.4,0.9 0,1.8 0.9,2.2 l 3.5,1.5 0,5.5 0,2.6 -2.1,-0.9 c -0.9,-0.4 -1.8,0 -2.2,0.9 -0.4,0.9 0,1.8 0.9,2.2 l 3.5,1.5 0,6.1 0,1.7 -2.1,-0.9 c -0.9,-0.4 -1.8,0 -2.2,0.9 -0.4,0.9 0,1.8 0.9,2.2 l 3.5,1.5 0,6 0,1.9 z"
         id="path4142"
         style="fill:#808080;fill-opacity:1;stroke:none;stroke-opacity:1" />
    </g>
  </g>
</svg>
