<?xml version="1.0" encoding="UTF-8" standalone="no"?>
<!-- Created with Inkscape (http://www.inkscape.org/) -->

<svg
   xmlns:dc="http://purl.org/dc/elements/1.1/"
   xmlns:cc="http://creativecommons.org/ns#"
   xmlns:rdf="http://www.w3.org/1999/02/22-rdf-syntax-ns#"
   xmlns:svg="http://www.w3.org/2000/svg"
   xmlns="http://www.w3.org/2000/svg"
   xmlns:sodipodi="http://sodipodi.sourceforge.net/DTD/sodipodi-0.dtd"
   xmlns:inkscape="http://www.inkscape.org/namespaces/inkscape"
   width="200"
   height="200"
   viewBox="0 0 199.99999 200"
   id="svg2"
   version="1.1"
   inkscape:version="0.91 r13725"
   sodipodi:docname="helloWorld.svg">
  <defs
     id="defs4" />
  <sodipodi:namedview
     id="base"
     pagecolor="#ffffff"
     bordercolor="#666666"
     borderopacity="1.0"
     inkscape:pageopacity="0.0"
     inkscape:pageshadow="2"
     inkscape:zoom="0.7"
     inkscape:cx="256.02498"
     inkscape:cy="88.479115"
     inkscape:document-units="px"
     inkscape:current-layer="layer1"
     showgrid="false"
     fit-margin-top="0"
     fit-margin-left="0"
     fit-margin-right="0"
     fit-margin-bottom="0"
     inkscape:window-width="1920"
     inkscape:window-height="1027"
     inkscape:window-x="-8"
     inkscape:window-y="-8"
     inkscape:window-maximized="1"
     units="px" />
  <metadata
     id="metadata7">
    <rdf:RDF>
      <cc:Work
         rdf:about="">
        <dc:format>image/svg+xml</dc:format>
        <dc:type
           rdf:resource="http://purl.org/dc/dcmitype/StillImage" />
        <dc:title></dc:title>
      </cc:Work>
    </rdf:RDF>
  </metadata>
  <g
     inkscape:label="Layer 1"
     inkscape:groupmode="layer"
     id="layer1"
     transform="translate(-111.33742,-380.40163)">
    <path
       style="fill:#808080;fill-opacity:1;stroke:none;stroke-opacity:1"
       d="m 179.28969,550.56874 c -4.0854,-1.77167 -6.11344,-7.15295 -4.18541,-11.10577 0.78216,-1.6036 71.02803,-75.03251 73.24624,-76.56524 1.29999,-0.89827 1.89937,-1.03863 4.43526,-1.03863 2.51173,0 3.14063,0.14415 4.38625,1.00533 0.79976,0.55293 12.01254,11.06647 24.91729,23.36342 16.21851,15.45465 23.71919,22.85993 24.29232,23.98336 0.65809,1.28996 0.79673,2.13431 0.67201,4.09287 -0.19263,3.02529 -1.62473,5.31483 -4.24344,6.78417 l -1.74192,0.97738 -29.13622,0 -29.13622,0 -1.94094,-0.99879 c -2.85626,-1.4698 -4.29395,-3.95088 -4.2926,-7.40787 7.9e-4,-2.18241 0.17413,-2.86175 1.07846,-4.22828 0.59259,-0.89546 1.81051,-2.11342 2.70649,-2.70657 l 1.62907,-1.07845 17.95964,-0.19548 17.95965,-0.19547 -12.4512,-11.85251 -12.4512,-11.8525 -1.97277,2.07871 c -1.08502,1.1433 -15.81464,16.52689 -32.73249,34.18576 -24.40996,25.47914 -31.08742,32.23815 -32.34712,32.74219 -1.96987,0.78818 -4.84978,0.79354 -6.65115,0.0123 z m -62.48626,-20.54255 c -1.89155,-0.54492 -4.61656,-3.43411 -5.16701,-5.47833 -1.00365,-3.72726 0.58019,-7.69163 3.83804,-9.6067 l 1.84663,-1.08551 25.99828,-0.12429 c 18.85955,-0.0902 26.57835,0.002 28.11087,0.3347 2.87588,0.62483 5.57573,3.25098 6.25555,6.0848 0.92195,3.84309 -0.79423,7.54099 -4.31367,9.2948 l -2.05777,1.02543 -26.60568,-0.0353 c -15.67091,-0.0208 -27.13979,-0.18912 -27.90524,-0.40963 z m 0,-25.02089 c -1.89155,-0.54492 -4.61656,-3.43411 -5.16701,-5.47834 -1.00365,-3.72726 0.58019,-7.69163 3.83804,-9.6067 l 1.84663,-1.08551 35.57659,0 35.57658,0 1.74192,0.97738 c 2.61872,1.46934 4.05081,3.75889 4.24345,6.78418 0.17707,2.78082 -0.56991,4.72604 -2.52874,6.58517 -2.50078,2.3735 -0.73246,2.27203 -38.92292,2.23345 -20.96025,-0.0212 -35.42416,-0.18482 -36.20454,-0.40963 z m 0,-25.0209 c -1.89155,-0.54492 -4.61656,-3.43411 -5.16701,-5.47833 -1.00365,-3.72726 0.58019,-7.69163 3.83804,-9.6067 l 1.84663,-1.08551 43.98204,0 43.98204,0 1.84663,1.08551 c 3.28972,1.9338 4.84039,5.83345 3.79887,9.55342 -0.64531,2.30479 -3.18942,4.96449 -5.31268,5.55406 -1.9589,0.54394 -86.92306,0.52245 -88.81456,-0.0224 z m 166.24674,-0.28592 c -1.86146,-0.85959 -2.58337,-1.66296 -19.2841,-21.4602 -6.75473,-8.00713 -12.41512,-14.55842 -12.57864,-14.55842 -0.16352,0 -6.16022,3.98046 -13.326,8.84548 -7.16577,4.86501 -13.5948,9.08728 -14.28672,9.38283 -1.98499,0.84787 -5.18678,0.68194 -7.18367,-0.37229 -4.89828,-2.586 -5.73708,-9.51756 -1.60245,-13.24213 1.84684,-1.66368 33.67213,-23.24093 35.0541,-23.76635 1.83846,-0.69898 5.02042,-0.47272 6.81398,0.48453 1.25815,0.67148 5.39907,5.32022 17.49931,19.64531 l 15.85116,18.76567 7.71227,0.19547 7.71227,0.19548 1.906,1.17889 c 2.75261,1.70252 4.24112,4.60675 3.96767,7.74131 -0.23978,2.74864 -1.51365,4.86899 -3.85781,6.42131 l -1.62858,1.07845 -10.58532,0.10133 c -9.6781,0.0926 -10.72229,0.0381 -12.18347,-0.63667 z m 3.3154,-37.36719 c -2.83617,-0.78214 -5.66184,-2.51128 -7.80238,-4.77458 -7.74742,-8.19175 -5.28578,-21.33451 4.93873,-26.36802 4.95144,-2.43758 11.82085,-1.93103 16.38345,1.20813 1.87045,1.2869 3.96494,3.51623 5.14877,5.48024 2.5546,4.23813 2.83604,10.66206 0.66801,15.24711 -0.66087,1.39765 -1.91015,3.33286 -2.77617,4.30046 -3.97479,4.44105 -10.85583,6.47982 -16.56041,4.90666 z"
       id="path4227"
       inkscape:connector-curvature="0" />
  </g>
</svg>
