<svg id="Layer_1" xmlns:rdf="http://www.w3.org/1999/02/22-rdf-syntax-ns#" xmlns="http://www.w3.org/2000/svg" xml:space="preserve" height="25" viewBox="0 0 24.999805 25" width="25" version="1.1" xmlns:cc="http://creativecommons.org/ns#" xmlns:dc="http://purl.org/dc/elements/1.1/"><g id="g3" fill="#fff" transform="matrix(.78125 0 0 .78125 450 150)"><path id="path5" d="m-544.88-165.12-7.342-7.342c-1.095 1.701-2.541 3.148-4.242 4.242l7.343 7.342c1.172 1.172 3.071 1.172 4.241 0 1.173-1.169 1.173-3.068 0-4.242z"/><path id="path7" d="m-552-180c0-6.627-5.373-12-12-12s-12 5.373-12 12 5.373 12 12 12 12-5.373 12-12zm-12 9c-4.964 0-9-4.036-9-9 0-4.963 4.036-9 9-9 4.963 0 9 4.037 9 9 0 4.964-4.037 9-9 9z"/><path id="path9" d="m-571-180h2c0-2.757 2.242-5 5-5v-2c-3.86 0-7 3.142-7 7z"/></g></svg>
