<svg width="37.588" height="100.297" viewBox="0 0 9.9451189 26.536901" xmlns="http://www.w3.org/2000/svg"><path d="M1.85 23.88c.04-.888.389-4.365.403-9.15.015-4.602.088-8.465.162-8.586.25-.404-.49-3.681-.831-3.681-.181 0-.371.125-.423.28-.188.565-.93-.049-.903-.749l.027-.706L1.607.785C2.508.442 3.648.275 5.18.262c2.316-.02 3.44.313 3.44 1.02 0 .212.238.387.53.387.373 0 .527.175.524.595-.006.873-.285 1.18-1.32 1.447l-.925.24-.132 5.055c-.64 5.247-.283 5.853-.34 11.301L6.9 25.74l-.767.267c-.795.278-1.548.356-2.237.129" fill="none" stroke="#ff392e" stroke-width=".529"/></svg>