<svg xmlns="http://www.w3.org/2000/svg" width="52.023" height="116.698" viewBox="0 0 13.764 30.876"><path d="M6.35 30.542c-1.013-.154-1.062-.207-1.142-1.22-.046-.582-.195-1.171-.33-1.31-.137-.138-.248-.703-.248-1.256 0-.706-.115-1.005-.386-1.005-.228 0-.505-.437-.672-1.059-.272-1.008-.334-1.058-1.333-1.058-1.4 0-2.107-.71-2.107-2.117 0-1.409.706-2.116 2.112-2.116.933 0 1.072-.083 1.216-.728.09-.4.27-1.144.4-1.654.434-1.689.321-2.075-.751-2.578-.894-.42-1-.579-1.074-1.604-.057-.779-.224-1.188-.53-1.296-.972-.344-1.373-.948-1.373-2.07 0-.671.159-1.25.397-1.448.316-.262.397-1.042.397-3.84 0-3.09.056-3.536.463-3.718C2.235.09 10.4.003 11.666.357l1.166.327v3.505c0 2.793.08 3.572.397 3.834.578.48.521 2.452-.087 3.002-.266.241-.676.438-.911.438-.323 0-.448.309-.509 1.256-.074 1.163-.154 1.291-1.073 1.722-1.118.525-1.155.716-.624 3.24l.334 1.587 1.27.148c1.5.175 1.997.711 1.997 2.152 0 1.346-.728 2.066-2.088 2.066-1.064 0-1.352.291-1.352 1.37 0 .309-.22.59-.529.67-.413.108-.529.36-.529 1.15 0 .557-.119 1.086-.264 1.176-.146.09-.265.628-.265 1.196 0 .751-.14 1.109-.512 1.308-.281.15-.55.257-.595.236-.046-.02-.56-.11-1.142-.198z" fill="none" stroke="red" stroke-width=".265"/></svg>