<svg xmlns="http://www.w3.org/2000/svg" width="101" height="21.852" viewBox="0 0 26.723 5.782"><path d="M1.323 5.385c-.09-.146-.395-.265-.677-.265-.318 0-.514-.18-.514-.476 0-1.052 1.387-1.19 12.303-1.227 5.675-.02 11.182.009 12.237.062l1.919.097V5.65H14.039c-8.083 0-12.61-.094-12.716-.264zm.066-3.37C.698 1.787.133 1.471.133 1.31c0-.16.511-.501 1.134-.757C2.301.129 3.455.094 14.43.157l12.03.069.08.956c.077.934.054.96-1.02 1.132-.604.096-5.998.16-11.986.143-9.06-.027-11.098-.1-12.144-.443z" fill="none" stroke="red" stroke-width=".265"/></svg>