<svg xmlns="http://www.w3.org/2000/svg" width="47.817" height="46.73" viewBox="0 0 12.651 12.364"><g fill="none" stroke="red" stroke-width=".265"><path d="M3.963 11.869c-3.964-1.451-5.131-6.746-2.175-9.862C2.997.733 4.455.132 6.338.132c2.012 0 3.446.637 4.68 2.08 2.086 2.437 1.992 5.834-.223 8.072-1.754 1.773-4.548 2.421-6.832 1.585z"/><path d="M3.963 11.869c-3.964-1.451-5.131-6.746-2.175-9.862C2.997.733 4.455.132 6.338.132c2.012 0 3.446.637 4.68 2.08 2.086 2.437 1.992 5.834-.223 8.072-1.754 1.773-4.548 2.421-6.832 1.585z"/></g></svg>