<svg xmlns="http://www.w3.org/2000/svg" width="210.103" height="160" viewBox="0 0 55.59 42.333"><path d="M.477 41.884C.017 41.424.017.909.477.45.72.207 7.16.132 27.852.132c26.48 0 27.064.011 27.332.512.181.34.273 7.264.273 20.619 0 17.926-.045 20.152-.415 20.522-.373.373-3.216.416-27.332.416-20.581 0-26.99-.075-27.233-.317zm2.196-20.721c0-19.4-.005-19.575-.53-19.575-.523 0-.529.199-.597 19.314-.037 10.623-.008 19.472.066 19.665.073.193.342.31.597.26.437-.083.464-1.218.464-19.664zM53.974 40.46c.257-.67.178-38.303-.081-38.713a.568.568 0 0 0-.658-.206c-.383.147-.423 2.02-.423 19.573 0 10.676.08 19.49.176 19.588.313.313.82.188.986-.242z" fill="none" stroke="red" stroke-width=".265"/></svg>