<svg xmlns="http://www.w3.org/2000/svg" width="66.125" height="166.644" viewBox="0 0 17.495 44.091"><path d="M12.295 43.806c-.727-.119-1.68-.407-2.116-.64-.437-.233-1.032-.426-1.323-.429-.693-.006-2.625-.598-4.295-1.316-1.22-.525-1.403-.725-2.147-2.34C.424 34.758-.475 28.67.587 26.695c.245-.456 1.224-1.512 2.175-2.347 1.484-1.303 1.728-1.643 1.728-2.407 0-.778-.212-1.056-1.69-2.217-.939-.738-1.909-1.77-2.183-2.32C-.433 15.29.39 9.367 2.331 5.087c.782-1.724.879-1.824 2.49-2.554.921-.418 2.504-.935 3.516-1.15C9.35 1.17 10.536.803 10.972.57c.528-.283 1.46-.424 2.779-.423 3.49.004 3.175-.623 3.175 6.323 0 3.337-.11 6.113-.246 6.253-.135.138-.27 1.799-.297 3.69-.042 2.76.041 3.676.418 4.63.392.997.482 2.21.55 7.41.08 6.144-.234 14.977-.542 15.285-.26.26-3.086.303-4.514.07zm2.508-7.682c.174-2.546.426-4.67.558-4.718.309-.113.31-7.199.002-7.686-.18-.284-.275-.23-.425.244-.107.336-.734 1.188-1.394 1.893l-1.2 1.283.176 5.43c.127 3.95.285 5.693.58 6.4.371.886 1.18 2.016 1.325 1.852.034-.037.203-2.151.378-4.698zm-.915-14.645l.435-1.552-.732-.765c-.404-.42-.83-.765-.948-.765-.119 0-.213 1.34-.21 2.977l.006 2.976.507-.659c.278-.362.702-1.357.942-2.212zm.693-8.678c-.194-.31-.303-2.106-.307-5.05-.006-4.521-.011-4.561-.503-3.921-.864 1.125-1.117 2.605-1.264 7.401l-.143 4.67 1.024.683 1.024.683.235-1.992c.165-1.404.145-2.135-.066-2.474z" fill="none" stroke="red" stroke-width=".265"/></svg>