<svg width="30.084" height="23.89" viewBox="0 0 7.959719 6.3208174" xmlns="http://www.w3.org/2000/svg"><path d="M1.853 5.95C1.404 5.82.826 5.48.568 5.194l-.47-.519 1.01.515c1.263.644 4.61.715 5.748.122.536-.28.717-.298.641-.065-.266.816-3.759 1.25-5.644.703zm.238-.81c-.389-.197-.638-.646-.76-1.369C1.231 3.18.906 2.5.608 2.258-1.216.78 3.594-.588 6.51.578c.591.237 1.029.477.972.534.345.565-.368.507.345.565 0 .35-.739 1.118-1.077 1.118-.135 0-.247.387-.25.86-.001.473-.113 1.032-.246 1.243-.305.483-3.343.66-4.163.242z" fill="none" stroke="#ff392e" stroke-width=".529"/></svg>