<svg width="472.706" height="286.609" viewBox="0 0 125.06829 75.83213" xmlns="http://www.w3.org/2000/svg"><path d="M11.229 58.73l-9.861-1.927-.473-.473c-.926-.927-.86-2.152.339-6.183.618-2.081 1.298-4.225 1.51-4.763l.387-.98 1.101-.42c.797-.305 1.114-.582 1.15-1.005.087-1.064 10.671-34.874 11.313-36.141.815-1.609 2.75-3.392 3.894-3.59.486-.083 7.373-.789 15.303-1.567L50.312.266l7.938.336c4.366.184 8.137.415 8.38.513.681.273 1.277 1.793 1.277 3.257 0 1.57.117 1.642 2.649 1.642 2.202 0 2.643.333 2.643 1.997v1.166l-.66.432c-.418.274-.905.37-1.334.262l-.676-.17-1.17 1.001-1.17 1-.009 1.873-.009 1.873.596-.02.595-.022.08 1.523.079 1.523-.635.241-.634.241-.056 6.282-.057 6.281-.476.95c-.262.523-.54 1.45-.618 2.058l-.142 1.107.413.158c.228.087 11.794 1.465 25.703 3.062 13.91 1.597 25.695 2.97 26.19 3.054 1.657.276 2.2 1.168 3.85 6.322 1.624 5.074 2.082 7.935 1.493 9.32-.299.701-3.092 3.037-4.523 3.783-.949.495-12.24 9.257-12.622 9.796-.584.82-5.584 4.493-6.076 4.461-1.697.002-16.424-3.07-16.424-3.07m-5.481-.993l-4.33-.765m-8.74-1.606l-6.613-1.213m-6.84-1.258l-1.666-.295m-10.652-2.224l-3.999-.737m.358-28.45c2.31-.646 3.368-1.058 3.283-1.278-.207-.542.823-1.555 1.883-1.853.62-.174 1.078-.496 1.21-.851l.21-.572-1.173-1.51-1.173-1.511v-9.16l-.416-.415c-.228-.229-.63-.416-.893-.416s-.604-.15-.757-.335c-.153-.185-.364-2.388-.468-4.895l-.19-4.56-.424.005c-1.039.009-1.605.357-1.865 1.148-.243.74-2.922 25.076-2.924 26.563 0 .328.064.596.144.596.08 0 1.678-.43 3.553-.954z" fill="none" stroke="#ff392e" stroke-width=".529"/></svg>
