<?xml version="1.0" encoding="UTF-8" standalone="no"?>
<!-- Created with Inkscape (http://www.inkscape.org/) -->

<svg
   xmlns:dc="http://purl.org/dc/elements/1.1/"
   xmlns:cc="http://creativecommons.org/ns#"
   xmlns:rdf="http://www.w3.org/1999/02/22-rdf-syntax-ns#"
   xmlns:svg="http://www.w3.org/2000/svg"
   xmlns="http://www.w3.org/2000/svg"
   xmlns:sodipodi="http://sodipodi.sourceforge.net/DTD/sodipodi-0.dtd"
   xmlns:inkscape="http://www.inkscape.org/namespaces/inkscape"
   width="28.222223mm"
   height="24.550816mm"
   viewBox="0 0 100 86.991078"
   id="svg4164"
   version="1.1"
   inkscape:version="0.91 r13725"
   sodipodi:docname="dustHazard.svg">
  <defs
     id="defs4166" />
  <sodipodi:namedview
     id="base"
     pagecolor="#ffffff"
     bordercolor="#666666"
     borderopacity="1.0"
     inkscape:pageopacity="0.0"
     inkscape:pageshadow="2"
     inkscape:zoom="2.8"
     inkscape:cx="32.266188"
     inkscape:cy="47.5777"
     inkscape:document-units="px"
     inkscape:current-layer="layer1"
     showgrid="false"
     fit-margin-top="0"
     fit-margin-left="0"
     fit-margin-right="0"
     fit-margin-bottom="0"
     inkscape:window-width="1920"
     inkscape:window-height="1027"
     inkscape:window-x="-8"
     inkscape:window-y="-8"
     inkscape:window-maximized="1" />
  <metadata
     id="metadata4169">
    <rdf:RDF>
      <cc:Work
         rdf:about="">
        <dc:format>image/svg+xml</dc:format>
        <dc:type
           rdf:resource="http://purl.org/dc/dcmitype/StillImage" />
        <dc:title></dc:title>
      </cc:Work>
    </rdf:RDF>
  </metadata>
  <g
     inkscape:label="Layer 1"
     inkscape:groupmode="layer"
     id="layer1"
     transform="translate(-194.12953,-643.20599)">
    <path
       style="fill:#000000"
       d="m 196.69891,730.04242 c -1.71282,-0.52328 -2.84407,-2.21308 -2.51128,-3.75118 0.14076,-0.65058 2.8349,-5.37089 14.43461,-25.29034 1.16705,-2.00411 3.87066,-6.65 6.00801,-10.3242 2.13734,-3.6742 7.19421,-12.36474 11.23747,-19.31232 4.04325,-6.94758 9.15873,-15.74744 11.36774,-19.55525 2.20901,-3.80781 4.29442,-7.22565 4.63427,-7.5952 1.2367,-1.3448 3.44298,-1.34371 4.68978,0.002 0.34112,0.36827 2.6435,4.16766 5.11641,8.44309 2.4729,4.27544 5.86217,10.12379 7.5317,12.99635 1.66952,2.87256 6.1765,10.63392 10.0155,17.24749 3.839,6.61356 9.36201,16.12397 12.27336,21.13424 2.91134,5.01027 6.9447,11.95178 8.96299,15.42557 3.06518,5.27562 3.66971,6.47603 3.67006,7.28767 4.8e-4,1.12696 -0.65852,2.33575 -1.61517,2.9626 -0.63839,0.41831 -2.82555,0.4402 -47.92803,0.47971 -25.99251,0.0228 -47.54185,-0.0449 -47.88742,-0.15056 z m 88.20181,-6.6789 c 0,-0.0593 -0.69975,-1.28903 -1.555,-2.73288 -1.49759,-2.52825 -9.45395,-16.1979 -14.11184,-24.24526 -1.23732,-2.13772 -4.91803,-8.47799 -8.17936,-14.0895 -3.26131,-5.6115 -8.38304,-14.43329 -11.38163,-19.60396 l -5.45198,-9.40123 -0.39941,0.65602 c -0.21968,0.36082 -5.07068,8.69068 -10.78,18.51082 -5.70932,9.82013 -12.70329,21.84479 -15.54215,26.72146 -2.83887,4.87666 -7.14518,12.27469 -9.5696,16.44007 -2.42441,4.16536 -4.40802,7.63611 -4.40802,7.71278 0,0.0767 18.31028,0.13938 40.6895,0.13938 22.37922,0 40.68949,-0.0484 40.68949,-0.1077 z m -41.66118,-3.28347 c -2.37423,-0.55836 -3.7653,-2.26557 -3.7653,-4.62101 0,-1.59106 0.44046,-2.61586 1.53878,-3.5802 1.74644,-1.53339 4.11083,-1.64546 5.99035,-0.28395 2.32353,1.68316 2.59859,5.06855 0.57613,7.09101 -1.15388,1.15388 -2.93235,1.72519 -4.33996,1.39415 z m -0.12134,-12.17454 c -1.04105,-0.43452 -1.70299,-1.24813 -2.05086,-2.52076 -0.18429,-0.67422 -1.12952,-7.14411 -2.1005,-14.37753 l -1.76542,-13.15168 0.44198,-1.15733 c 1.32632,-3.47289 5.28212,-5.31278 8.86442,-4.12293 1.75724,0.58366 3.74091,2.57488 4.24027,4.2564 0.34779,1.17114 0.31539,1.58985 -0.70069,9.05474 -0.58592,4.30475 -1.41291,10.39572 -1.83774,13.53549 -0.8094,5.98199 -1.21603,7.45132 -2.24956,8.12851 -0.78432,0.5139 -2.07502,0.67517 -2.8419,0.35509 z"
       id="path4723"
       inkscape:connector-curvature="0"
       sodipodi:nodetypes="csssssscssssssssccssssscsssssssssssssssscsssssss" />
  </g>
</svg>
