<?xml version="1.0" encoding="UTF-8" standalone="no"?>
<!-- Created with Inkscape (http://www.inkscape.org/) -->

<svg
   xmlns:dc="http://purl.org/dc/elements/1.1/"
   xmlns:cc="http://creativecommons.org/ns#"
   xmlns:rdf="http://www.w3.org/1999/02/22-rdf-syntax-ns#"
   xmlns:svg="http://www.w3.org/2000/svg"
   xmlns="http://www.w3.org/2000/svg"
   xmlns:sodipodi="http://sodipodi.sourceforge.net/DTD/sodipodi-0.dtd"
   xmlns:inkscape="http://www.inkscape.org/namespaces/inkscape"
   width="28.222219mm"
   height="37.058212mm"
   viewBox="0 0 99.999992 131.30862"
   id="svg2"
   version="1.1"
   inkscape:version="0.91 r13725"
   sodipodi:docname="eyeProtection.svg">
  <defs
     id="defs4" />
  <sodipodi:namedview
     id="base"
     pagecolor="#ffffff"
     bordercolor="#666666"
     borderopacity="1.0"
     inkscape:pageopacity="0.0"
     inkscape:pageshadow="2"
     inkscape:zoom="1.979899"
     inkscape:cx="31.678073"
     inkscape:cy="53.300694"
     inkscape:document-units="px"
     inkscape:current-layer="layer1"
     showgrid="false"
     fit-margin-top="0"
     fit-margin-left="0"
     fit-margin-right="0"
     fit-margin-bottom="0"
     inkscape:window-width="1920"
     inkscape:window-height="1027"
     inkscape:window-x="-8"
     inkscape:window-y="1072"
     inkscape:window-maximized="1" />
  <metadata
     id="metadata7">
    <rdf:RDF>
      <cc:Work
         rdf:about="">
        <dc:format>image/svg+xml</dc:format>
        <dc:type
           rdf:resource="http://purl.org/dc/dcmitype/StillImage" />
        <dc:title></dc:title>
      </cc:Work>
    </rdf:RDF>
  </metadata>
  <g
     inkscape:label="Layer 1"
     inkscape:groupmode="layer"
     id="layer1"
     transform="translate(-105.61702,-576.94675)">
    <path
       style="fill:#000000"
       d="m 145.72394,707.84831 c -4.13964,-0.69344 -7.09118,-2.59156 -11.04082,-7.1003 -7.44122,-8.4946 -11.58896,-14.74838 -13.4914,-20.34182 -1.06356,-3.12696 -1.20244,-3.68432 -1.93812,-7.77785 -1.12716,-6.2719 -1.32954,-6.88488 -2.3585,-7.14312 -3.77181,-0.94668 -9.71547,-13.77584 -11.01863,-23.78326 -0.97986,-7.52484 0.83732,-12.0868 5.08514,-12.76604 l 1.82714,-0.29218 0,2.00058 c 0,1.7421 -0.1398,2.05376 -1.0827,2.41222 -2.2367,0.8504 -2.53292,5.24756 -0.85252,12.65576 1.90994,8.42022 5.42903,15.29102 7.83177,15.29102 1.33452,0 2.0793,1.26058 2.66756,4.51494 1.01344,5.60672 2.15172,11.17409 2.54952,12.46987 2.44082,7.95062 12.35356,21.70024 18.05756,25.04702 2.27394,1.3342 6.3793,1.80852 15.85744,1.83212 6.38628,0.016 6.61348,-0.016 9.4239,-1.28952 2.28218,-1.03478 3.5566,-2.0304 6.14082,-4.79748 8.91812,-9.54912 12.93878,-17.4999 15.7331,-31.11203 1.12758,-5.4929 1.14244,-5.52496 2.7073,-5.84502 0.77584,-0.1586 1.78716,-0.62926 2.24736,-1.04574 1.80267,-1.6314 5.54127,-9.69694 6.27341,-13.53402 0.1128,-0.59124 0.37412,-1.75224 0.58068,-2.57998 1.33044,-5.33122 0.85658,-9.67108 -1.22392,-11.20926 -0.97616,-0.7217 -1.21872,-1.25274 -1.2771,-2.79576 -0.0832,-2.20148 0.2161,-2.31416 2.81392,-1.05902 2.21666,1.07096 3.88414,3.0394 4.25662,5.0249 0.36702,1.9564 -0.1398,9.70442 -0.78328,11.97412 -0.26818,0.946 -0.50106,1.823 -0.51752,1.94892 -0.0796,0.60944 -1.86906,4.61644 -4.35806,9.75872 -2.36328,4.8825 -2.99628,5.84128 -4.47132,6.77244 -0.94508,0.5966 -1.91197,1.08472 -2.14867,1.08472 -0.4513,0 -0.54878,0.33422 -1.31686,4.51496 -1.4187,7.72223 -5.2886,16.83465 -9.56166,22.51475 -3.2123,4.27006 -10.15128,11.3484 -12.43962,12.68946 -2.88018,1.68788 -7.69018,2.42814 -15.39818,2.36972 -3.6657,-0.0278 -7.61418,-0.2095 -8.77436,-0.40384 z m 23.6092,-51.51953 c -1.95012,-0.52054 -4.6187,-1.99956 -5.64928,-3.13104 -0.50566,-0.55514 -2.01812,-3.34556 -3.36104,-6.20094 -1.7908,-3.80768 -2.76696,-5.38376 -3.66194,-5.91244 -2.44932,-1.44684 -3.07976,-0.90506 -5.50078,4.72716 -2.09734,4.87922 -3.85868,7.14976 -6.70996,8.64972 -2.16902,1.14104 -2.33888,1.16028 -9.94662,1.1272 -6.95166,-0.0302 -7.9151,-0.1244 -9.4599,-0.92498 -3.41294,-1.76862 -4.91558,-4.12856 -5.81968,-9.13998 -0.31998,-1.77374 -0.60848,-3.32172 -0.64108,-3.43996 -0.1576,-0.57132 -0.60652,-2.4894 -0.83032,-3.5472 -0.1608,-0.75978 -0.8618,-1.56838 -1.96196,-2.26288 l -1.71185,-1.08064 0,-3.21958 0,-3.21956 17.81181,0 17.81184,0 1.21546,1.0111 c 1.87548,1.56012 2.94208,1.99886 4.85932,1.99886 1.83164,0 4.6,-1.15876 5.57498,-2.33354 0.49386,-0.59506 2.67602,-0.67642 18.13854,-0.67642 l 17.57717,0 0,3.64622 0,3.64622 -1.6791,0.8566 c -1.62531,0.82918 -1.69487,0.95682 -2.17245,3.9862 -1.24556,7.90066 -1.87246,9.4795 -4.85578,12.22944 -1.82916,1.68604 -3.43506,2.45378 -6.08098,2.90714 -2.47292,0.4237 -11.68668,0.63956 -12.9464,0.3033 z m 20.33166,-30.4776 c -0.96016,-1.10072 -4.58472,-8.70648 -4.86676,-10.21238 -0.70082,-3.74192 -1.11308,-7.4467 -0.96744,-8.69404 l 0.1642,-1.40574 -1.09584,0.98946 c -3.04312,2.74768 -6.80932,4.46618 -13.54312,6.17966 -3.78284,0.96256 -5.45,1.12236 -13.35246,1.2798 -9.31038,0.1854 -9.41748,0.1642 -6.87554,-1.36442 1.05524,-0.6346 -10.24776,0.033 -15.17888,0.89646 -4.00652,0.70158 -10.6073,2.78888 -11.4341,3.61566 -0.24282,0.24284 -0.52114,2.26228 -0.61848,4.48762 -0.157,3.59132 -0.2727,4.07114 -1.02876,4.26884 -1.8983,0.49642 -2.05884,0.063 -2.05884,-5.55832 l 0,-5.3179 1.26996,-0.65672 c 1.73208,-0.8957 6.79396,-2.46178 13.99488,-4.32984 l 6.01994,-1.5617 9.10586,0.15 c 5.00824,0.0824 9.2325,0.27654 9.38724,0.4313 0.1548,0.1548 0.0492,0.7154 -0.23482,1.24588 l -0.51618,0.9645 3.38382,-0.27122 c 7.9729,-0.63908 17.70664,-5.1337 24.03272,-11.0973 l 2.1591,-2.03538 -0.01,7.60174 -0.01,7.60176 1.8741,3.86996 c 2.58842,5.34496 3.49954,8.06414 3.00072,8.95548 -0.52312,0.93476 -1.77256,0.91888 -2.60298,-0.033 z m 7.13911,0.48724 c -0.3431,-0.1414 -0.35672,-0.77204 -0.048,-2.22354 0.63004,-2.96242 0.595,-14.46388 -0.0534,-17.506 -1.48868,-6.9851 -3.39339,-10.69724 -6.91849,-13.48367 -1.203,-0.95092 -2.8137,-2.55022 -3.57932,-3.55404 -1.71342,-2.24642 -6.03636,-4.6537 -11.98058,-6.67148 -9.18928,-3.1193 -24.43608,-2.966 -34.7757,0.34968 -7.4826,2.3995 -15.8766,6.56944 -18.78084,9.32986 -1.707,1.62248 -3.06982,3.68145 -4.02082,6.07475 -1.37476,3.45976 -1.49661,4.35814 -1.45808,10.74988 0.0298,4.94346 0.22854,6.58666 1.33908,11.07238 l 1.30406,5.26744 -1.6443,0 c -1.88267,0 -1.58345,0.6644 -3.85039,-8.54976 -2.6966,-10.96046 -1.07666,-19.54472 4.81297,-25.50491 6.8452,-6.92716 20.42802,-12.33318 36.03352,-14.34148 7.55858,-0.97272 13.26482,-0.23572 22.30206,2.88044 7.18932,2.479 9.49912,3.79042 13.3337,7.57046 1.85828,1.83184 4.02446,3.90824 4.81374,4.61422 1.76671,1.58026 5.05137,8.35591 5.57163,11.49329 0.2073,1.25012 0.60602,3.24044 0.88606,4.42292 0.64548,2.72574 0.62486,12.1758 -0.0326,14.91616 -0.29128,1.21412 -0.87942,2.34834 -1.41068,2.72046 -0.9553,0.66912 -1.06914,0.69214 -1.84372,0.37294 z"
       id="path4147"
       inkscape:connector-curvature="0"
       sodipodi:nodetypes="ssssssscsssssssssssssssssssscssssssssssssssssscsscccccsssscccssssscsscssssssssscsscssscsscccsscccsssssssssscssssssssssscc" />
  </g>
</svg>
