<?xml version="1.0" encoding="UTF-8" standalone="no"?>
<!-- Created with Inkscape (http://www.inkscape.org/) -->

<svg
   xmlns:dc="http://purl.org/dc/elements/1.1/"
   xmlns:cc="http://creativecommons.org/ns#"
   xmlns:rdf="http://www.w3.org/1999/02/22-rdf-syntax-ns#"
   xmlns:svg="http://www.w3.org/2000/svg"
   xmlns="http://www.w3.org/2000/svg"
   xmlns:sodipodi="http://sodipodi.sourceforge.net/DTD/sodipodi-0.dtd"
   xmlns:inkscape="http://www.inkscape.org/namespaces/inkscape"
   width="56.444443mm"
   height="60.381336mm"
   viewBox="0 0 199.99999 213.94961"
   id="svg4149"
   version="1.1"
   inkscape:version="0.91 r13725"
   sodipodi:docname="pinch - Copy.svg">
  <defs
     id="defs4151" />
  <sodipodi:namedview
     id="base"
     pagecolor="#ffffff"
     bordercolor="#666666"
     borderopacity="1.0"
     inkscape:pageopacity="0.0"
     inkscape:pageshadow="2"
     inkscape:zoom="0.35"
     inkscape:cx="-226.42861"
     inkscape:cy="-305.02691"
     inkscape:document-units="px"
     inkscape:current-layer="layer1"
     showgrid="false"
     fit-margin-top="0"
     fit-margin-left="0"
     fit-margin-right="0"
     fit-margin-bottom="0"
     inkscape:window-width="1920"
     inkscape:window-height="1027"
     inkscape:window-x="-8"
     inkscape:window-y="1072"
     inkscape:window-maximized="1" />
  <metadata
     id="metadata4154">
    <rdf:RDF>
      <cc:Work
         rdf:about="">
        <dc:format>image/svg+xml</dc:format>
        <dc:type
           rdf:resource="http://purl.org/dc/dcmitype/StillImage" />
        <dc:title></dc:title>
      </cc:Work>
    </rdf:RDF>
  </metadata>
  <g
     inkscape:label="Layer 1"
     inkscape:groupmode="layer"
     id="layer1"
     transform="translate(1374.2857,-13.385685)">
    <path
       style="fill:#000000"
       d="m -1242.8869,209.948 c -16.9191,-16.93763 -17.4684,-17.38727 -21.2435,-17.38727 -5.9761,0 -13.1765,-1.62206 -19.5124,-4.39565 -5.2184,-2.28437 -9.6959,-6.4358 -47.2964,-43.85168 -22.8428,-22.73065 -42.0552,-42.59085 -42.6943,-44.1338 -0.9974,-2.407875 -0.9048,-3.285345 0.6537,-6.193165 0.9987,-1.86329 3.3403,-4.20489 5.2036,-5.20356 2.9402,-1.57586 3.7685,-1.65806 6.2694,-0.62214 1.585,0.6565 11.1888,9.61377 21.342,19.905035 13.2673,13.44775 19.0628,18.71143 20.6019,18.71143 2.4811,0 5.2522,-2.68969 5.2522,-5.09788 0,-0.91338 -12.0627,-13.95706 -26.806,-28.985925 -14.7434,-15.02888 -27.0552,-28.31771 -27.3597,-29.53073 -1.3103,-5.22084 4.419,-11.55559 10.458,-11.56313 2.4321,-0.003 6.444,3.63564 29.7852,27.01472 15.2393,15.26398 27.8487,27.153295 28.9839,27.328685 2.4579,0.37976 5.6135,-2.29878 5.6135,-4.7649 0,-1.11193 -11.0899,-13.146315 -28.6605,-31.101525 -25.175,-25.726 -28.6608,-29.64381 -28.6629,-32.21529 0,-3.65361 3.0962,-7.69971 7.2161,-9.42109 2.7107,-1.13262 3.4979,-1.12547 5.7157,0.052 1.4146,0.75102 15.0447,13.86873 30.2891,29.15047 28.3528,28.42227 29.9358,29.67288 33.3005,26.30821 2.3597,-2.35967 1.732,-5.23087 -1.973,-9.02513 l -3.4498,-3.53291 8.2422,-3.78989 c 4.5332,-2.08444 8.7356,-3.78989 9.3387,-3.78989 0.603,0 5.9459,4.86328 11.8731,10.8073 5.9271,5.94401 11.3121,10.80729 11.9666,10.80729 1.6377,0 1.5134,-2.90684 -0.8298,-19.40614 -1.9934,-14.036 -1.9967,-14.28058 -0.236,-17.28742 4.0471,-6.91135 11.4681,-9.07058 15.841,-4.6091 2.0569,2.09854 2.8452,5.96754 8.9021,43.69166 3.655,22.764065 6.6455,43.841065 6.6455,46.837775 l 0,5.44856 16.9157,17.47486 c 9.3037,9.61118 16.9158,17.71676 16.9158,18.0124 0,0.29564 -11.5274,12.05923 -25.6165,26.14132 l -25.6165,25.6038 -17.3682,-17.38726 z m -48.169,-147.780545 -4.3977,-4.46479 10.6879,-4.82006 10.6879,-4.82006 4.4957,4.56437 c 2.4727,2.51041 4.3098,4.74341 4.0826,4.96222 -0.6782,0.65291 -19.628,9.04312 -20.4245,9.04312 -0.4038,0 -2.7132,-2.00916 -5.1319,-4.4648 z m -14.471,-13.76822 c -2.5051,-2.27509 -4.3434,-4.34633 -4.0849,-4.60274 0.2584,-0.25641 5.1217,-2.5769 10.8073,-5.15665 l 10.3374,-4.69046 4.458,4.31831 c 2.4519,2.37508 4.1435,4.61712 3.759,4.98233 -0.6827,0.64857 -19.6104,9.28576 -20.3489,9.28576 -0.2052,0 -2.4228,-1.86145 -4.9279,-4.13655 z m -11.6397,-11.41377 c -1.033,-1.24468 -0.069,-2.52248 6.6982,-8.88175 4.3476,-4.08536 8.1339,-7.448629 8.414,-7.473929 0.28,-0.0253 2.3068,1.78567 4.5039,4.024399 l 3.9948,4.0704 -10.4356,4.85736 c -5.7395,2.67155 -10.7805,4.85736 -11.2022,4.85736 -0.4216,0 -1.3095,-0.65422 -1.9731,-1.45384 z m -6.1181,-10.23192 c -2.8122,-4.292039 1.4658,-11.771319 7.6159,-13.314889 1.6627,-0.4173 7.9365,1.73728 7.9365,2.72558 0,0.12705 -3.1544,3.08795 -7.0098,6.57978 l -7.0098,6.348769 -1.5328,-2.33924 z"
       id="path4205"
       inkscape:connector-curvature="0" />
  </g>
</svg>
