<?xml version="1.0" encoding="UTF-8" standalone="no"?>
<!-- Created with Inkscape (http://www.inkscape.org/) -->

<svg
   xmlns:dc="http://purl.org/dc/elements/1.1/"
   xmlns:cc="http://creativecommons.org/ns#"
   xmlns:rdf="http://www.w3.org/1999/02/22-rdf-syntax-ns#"
   xmlns:svg="http://www.w3.org/2000/svg"
   xmlns="http://www.w3.org/2000/svg"
   xmlns:sodipodi="http://sodipodi.sourceforge.net/DTD/sodipodi-0.dtd"
   xmlns:inkscape="http://www.inkscape.org/namespaces/inkscape"
   width="56.444439mm"
   height="49.938927mm"
   viewBox="0 0 199.99998 176.94895"
   id="svg4149"
   version="1.1"
   inkscape:version="0.91 r13725"
   sodipodi:docname="pinch2.svg">
  <defs
     id="defs4151" />
  <sodipodi:namedview
     id="base"
     pagecolor="#ffffff"
     bordercolor="#666666"
     borderopacity="1.0"
     inkscape:pageopacity="0.0"
     inkscape:pageshadow="2"
     inkscape:zoom="0.35"
     inkscape:cx="212.14283"
     inkscape:cy="-372.00172"
     inkscape:document-units="px"
     inkscape:current-layer="layer1"
     showgrid="false"
     fit-margin-top="0"
     fit-margin-left="0"
     fit-margin-right="0"
     fit-margin-bottom="0"
     inkscape:window-width="1920"
     inkscape:window-height="1027"
     inkscape:window-x="-8"
     inkscape:window-y="1072"
     inkscape:window-maximized="1" />
  <metadata
     id="metadata4154">
    <rdf:RDF>
      <cc:Work
         rdf:about="">
        <dc:format>image/svg+xml</dc:format>
        <dc:type
           rdf:resource="http://purl.org/dc/dcmitype/StillImage" />
        <dc:title></dc:title>
      </cc:Work>
    </rdf:RDF>
  </metadata>
  <g
     inkscape:label="Layer 1"
     inkscape:groupmode="layer"
     id="layer1"
     transform="translate(1154.2857,16.588456)">
    <path
       style="fill:#000000"
       d="m -1143.9774,159.75044 c -2.4164,-0.82681 -3.9787,-1.78874 -5.6988,-3.50896 -4.4206,-4.42049 -5.7831,-10.57123 -3.5583,-16.0624 0.9528,-2.35201 86.1967,-149.794041 87.643,-151.591841 4.032,-5.0121 11.6709,-6.63111 17.7507,-3.76223 2.0985,0.99023 4.5101,3.03699 5.8167,4.9368 1.1949,1.73749 86.16462,148.974181 86.67613,150.193761 1.24864,2.97707 1.41339,7.06017 0.40446,10.0197 -1.70532,5.00238 -5.93088,9.02321 -10.61771,10.10326 -0.82778,0.19059 -29.70356,0.28224 -88.93018,0.28196 l -87.7044,-3e-4 -1.7816,-0.60965 z m 178.28671,-5.8986 c 3.91396,-1.79881 6.21955,-6.32924 5.2155,-10.24852 -0.34251,-1.33697 -9.3616,-17.15231 -43.38731,-76.080911 -28.3718,-49.13692 -43.327,-74.78104 -44.051,-75.53573 -1.7548,-1.82893 -3.3752,-2.4675 -6.3038,-2.48457 -2.1595,-0.0137 -2.66,0.0807 -4.0182,0.74749 -0.8533,0.41899 -1.9644,1.2207 -2.4693,1.78149 -0.9004,1.00025 -85.6873,147.500391 -86.894,150.140931 -0.9239,2.02167 -0.8744,4.95559 0.1171,6.96514 0.4092,0.82906 1.1054,1.94317 1.547,2.47584 0.9555,1.1522 3.1297,2.39292 4.7591,2.71584 0.6448,0.12783 40.0844,0.21444 87.6433,0.19259 l 86.4712,-0.04 1.37041,-0.62973 z m -93.01391,-7.73532 c -7.0543,-0.97898 -13.4828,-5.58565 -16.6294,-11.91653 -1.671,-3.36198 -2.3318,-6.12142 -2.3372,-9.75855 -0.01,-3.79153 0.5684,-6.30504 2.2149,-9.70086 1.565,-3.22701 3.6633,-5.85151 6.2402,-7.80427 9.1125,-6.90556 21.6521,-5.88575 29.4314,2.39356 2.2954,2.4428 3.792,4.95984 4.9283,8.28861 0.8311,2.43476 0.8897,2.85252 0.9043,6.44078 0.018,4.34717 -0.3354,6.08274 -1.917,9.43131 -3.5732,7.56524 -10.4855,12.24482 -18.8102,12.73427 -1.2534,0.0739 -3.0648,0.025 -4.0253,-0.10839 z m 5.533,-12.37242 c 1.3703,-0.7298 1.7028,-2.36343 0.7324,-3.59734 -1.717,-2.18271 -5.0643,-0.1661 -3.9903,2.40418 0.5933,1.42001 1.9198,1.90589 3.2579,1.19316 z m -0.1552,-7.19723 c 2.0157,-2.19956 0.5181,-5.64188 -2.4529,-5.63858 -1.2596,0.001 -2.6425,0.92468 -3.1289,2.08904 -1.4595,3.49268 3.0221,6.3425 5.5818,3.54954 z m 28.9837,3.56453 c -1.6091,-0.71824 -2.2871,-1.89024 -5.879,-10.16355 -3.9217,-9.03322 -4.9816,-10.84403 -8.057,-13.76517 -3.5255,-3.34913 -7.9464,-5.6183 -12.742,-6.540661 -2.3803,-0.45776 -6.7084,-0.50417 -8.9184,-0.0951 l -1.5745,0.29101 -18.9629,-7.99838 c -10.4297,-4.39899 -19.3473,-8.28534 -19.817,-8.63624 -1.734,-1.29537 -2.579,-4.44923 -2.0209,-7.54375 0.3544,-1.96519 0.8623,-2.71509 1.8396,-2.71509 0.7027,0 8.4458,3.12458 23.2131,9.3671 4.9708,2.10119 10.322,4.18116 11.8913,4.62177 5.8747,1.64955 10.9816,1.67713 16.0286,0.087 4.3217,-1.36213 6.8749,-2.99214 11.2692,-7.19481 4.7238,-4.51766 7.8277,-5.90024 13.1817,-5.87153 2.8578,0.0156 3.3935,0.11868 10.278,1.98284 3.9946,1.0819 8.0661,2.20439 9.0477,2.49453 l 1.7847,0.52772 9.67633,16.75384 c 5.32196,9.214631 9.63723,16.787321 9.58944,16.828071 -0.0944,0.0813 -1.40894,-0.28548 -20.75507,-5.78385 -7.1467,-2.03116 -13.421,-3.87143 -13.9428,-4.08947 -1.1382,-0.47555 -2.7929,-0.51299 -3.7336,-0.0845 -0.3766,0.17169 -0.8942,0.75338 -1.1501,1.29264 -0.6373,1.3431 -0.5258,1.69005 3.6761,11.425 1.9493,4.51622 3.6292,8.60172 3.7332,9.07903 0.4254,1.95291 -0.9282,4.58785 -2.8643,5.57555 -1.2485,0.63697 -3.5475,0.71228 -4.7914,0.15714 z m -68.22,-14.84278 c -1.9959,-0.73125 -3.9952,-2.73071 -3.998,-3.99833 -6e-4,-0.28691 3.4024,-2.86327 9.1895,-6.95712 5.0549,-3.57578 9.1557,-6.530491 9.1131,-6.565681 -0.043,-0.0355 -4.7026,0.48269 -10.3554,1.15085 -8.7455,1.03368 -10.4845,1.170181 -11.6638,0.91511 -2.6175,-0.56604 -4.4389,-2.79047 -4.7051,-5.74582 -0.2166,-2.40603 -0.289,-2.37703 8.0388,-3.21139 l 7.0967,-0.71115 11.9831,5.03477 c 6.5907,2.76899 11.9866,5.114731 11.991,5.212411 0.017,0.39795 -19.4169,14.09203 -20.8223,14.6722 -1.7554,0.72474 -4.2134,0.81021 -5.8676,0.20415 z m 30.5125,-30.816191 c -7.9706,-1.96118 -14.1167,-8.08711 -16.1706,-16.11754 -0.6397,-2.50071 -0.7008,-7.26533 -0.1282,-9.96721 1.3833,-6.5274 5.9504,-12.18109 12.234,-15.14489 2.7975,-1.31953 4.827,-1.81166 8.2106,-1.99092 10.8988,-0.57743 20.4188,6.89485 22.6192,17.75369 0.5451,2.69065 0.4109,7.08234 -0.2968,9.71017 -0.6584,2.44442 -2.6554,6.34985 -4.236,8.28395 -2.8473,3.48439 -7.4014,6.34446 -11.9076,7.47825 -2.8449,0.71562 -7.4031,0.71327 -10.3246,-0.005 z m 6.4256,-18.19016 c 2.6219,-1.09549 2.8791,-4.80593 0.4214,-6.07697 -1.2227,-0.63214 -2.8155,-0.50667 -3.7708,0.29708 -2.4599,2.06988 -1.1939,5.77133 2.0936,6.12049 0.1933,0.0206 0.7584,-0.13284 1.2558,-0.3406 z"
       id="path4147"
       inkscape:connector-curvature="0" />
  </g>
</svg>
