<svg xmlns="http://www.w3.org/2000/svg" width="31.982" height="32" viewBox="0 0 29.982796 30.000001"><g fill="#fff"><path d="M188.472-176.998h30v30h-30z"/><path d="M204.496-146.998h-14.368a1.656 1.656 0 0 1-1.656-1.656v-26.688c0-.915.741-1.656 1.656-1.656h26.688c.915 0 1.656.741 1.656 1.656v26.688c0 .915-.741 1.656-1.656 1.656h-7.644v-11.617h3.9l.583-4.528h-4.483v-2.89c0-1.311.364-2.205 2.243-2.205h2.398v-4.05c-.415-.055-1.838-.179-3.494-.179-3.457 0-5.823 2.11-5.823 5.985v3.34h-3.91v4.527h3.91v11.617z" clip-rule="evenodd" fill-rule="evenodd"/><g><path d="M29.968 14.995c0 2.103-.042 4.212.012 6.315.09 3.723-2.248 6.6-5.227 7.88a9.453 9.453 0 0 1-3.753.786c-4.067.006-8.14.06-12.207-.018-3.064-.06-5.584-1.342-7.391-3.868C.453 24.76 0 23.25 0 21.612V8.62c0-3.535 1.722-6.006 4.78-7.614C6.11.31 7.554.014 9.06.008c3.946 0 7.898-.024 11.844.012 3.064.024 5.62 1.197 7.506 3.662 1.052 1.378 1.56 2.961 1.56 4.702v6.611zm-27.738 0v6.648c0 .99.23 1.921.743 2.761 1.348 2.206 3.384 3.282 5.91 3.324 4.055.06 8.116.024 12.178.012.997 0 1.964-.205 2.864-.634 2.454-1.173 3.825-3.04 3.813-5.844-.024-4.29-.006-8.582-.006-12.872 0-1.215-.344-2.327-1.063-3.306-1.39-1.88-3.312-2.804-5.608-2.828-4.05-.048-8.098-.018-12.147-.012-.864 0-1.698.175-2.508.477-2.224.828-4.29 2.925-4.194 6.013.072 2.091.018 4.176.018 6.261z"/><path d="M15.017 21.4c-3.898 0-7.04-3.105-7.046-6.973-.006-3.807 3.16-6.926 7.034-6.926 3.886-.006 7.04 3.107 7.047 6.944 0 3.831-3.149 6.95-7.035 6.956zm0-2.235c2.653 0 4.805-2.121 4.799-4.732-.006-2.587-2.158-4.702-4.799-4.702-2.653 0-4.816 2.11-4.816 4.714.006 2.61 2.163 4.726 4.816 4.72zM22.867 5.386c.816 0 1.481.695 1.481 1.547-.006.852-.677 1.541-1.493 1.535-.803-.006-1.462-.695-1.462-1.529-.006-.852.659-1.553 1.474-1.553z"/></g></g></svg>