<svg xmlns="http://www.w3.org/2000/svg" width="39.111" height="32" viewBox="0 0 36.66658 29.999998"><path d="M.05 26.63c4.035.363 7.67-.653 10.98-3.134-3.462-.305-5.776-2.032-7.068-5.269 1.132.138 2.191.175 3.316-.13-3.73-1.161-5.718-3.6-5.986-7.532 1.117.522 2.17.9 3.41.914C2.49 9.817 1.357 7.662 1.4 4.949a7.036 7.036 0 0 1 1.016-3.535c4.1 4.797 9.245 7.453 15.58 7.895-.036-.275-.058-.493-.087-.718-.523-4.02 2.09-7.677 6.08-8.44 2.504-.478 4.717.182 6.59 1.91.29.26.536.318.9.224A18.097 18.097 0 0 0 35.664.652c-.515 1.698-1.574 2.975-3.011 4.05.326-.059.66-.102.987-.167.34-.073.682-.153 1.023-.247.326-.087.646-.189.965-.298.326-.109.653-.232 1.038-.297-.19.261-.37.537-.574.79a16.918 16.918 0 0 1-2.88 2.838.572.572 0 0 0-.196.406c.058 2.576-.305 5.087-1.14 7.525-1.64 4.804-4.499 8.693-8.787 11.473-2.119 1.371-4.434 2.27-6.908 2.793-2.453.516-4.92.61-7.395.32a20.482 20.482 0 0 1-7.06-2.17c-.588-.298-1.154-.631-1.727-.95.022-.03.036-.059.05-.088z" fill="#fff"/></svg>