<svg xmlns="http://www.w3.org/2000/svg" width="26.667" height="32" viewBox="0 0 24.999999 29.999999"><path d="M21.146 21.944H19.5l.008-.956c0-.425.349-.773.775-.773h.105c.427 0 .777.348.777.773l-.019.956zm-6.175-2.05c-.418 0-.76.282-.76.625v4.651c0 .343.342.623.76.623.42 0 .761-.28.761-.623v-4.651c0-.344-.342-.624-.761-.624M25 17.293v8.848C25 28.263 23.16 30 20.91 30H4.09C1.84 30 0 28.263 0 26.141v-8.848c0-2.122 1.84-3.86 4.09-3.86h16.82c2.25 0 4.09 1.738 4.09 3.86M5.212 27.102l-.001-9.32h2.085v-1.381l-5.558-.008v1.357l1.735.005v9.347h1.74zm6.25-7.932H9.724v4.977c0 .72.044 1.08-.003 1.207-.141.386-.776.796-1.024.041-.042-.132-.005-.53-.006-1.214l-.007-5.011H6.956l.005 4.932c.001.756-.017 1.32.006 1.577.042.452.027.98.447 1.28.782.564 2.281-.083 2.656-.889l-.003 1.028 1.396.002v-7.93zm5.561 5.699l-.004-4.142c0-1.579-1.182-2.524-2.785-1.247l.007-3.08-1.736.003-.008 10.63 1.427-.02.13-.663c1.825 1.674 2.972.527 2.97-1.481m5.44-.549l-1.304.007c0 .051-.003.111-.003.176v.728c0 .389-.322.706-.713.706h-.255a.711.711 0 0 1-.713-.706v-1.913h2.985v-1.124c0-.82-.021-1.641-.09-2.11-.213-1.485-2.297-1.721-3.35-.961-.33.237-.582.555-.729.982-.148.427-.222 1.01-.222 1.751v2.47c.001 4.106 4.989 3.526 4.393-.006m-6.685-13.41c.09.219.229.395.418.529.186.131.425.197.711.197.25 0 .473-.068.666-.207.193-.14.355-.347.488-.624l-.033.682h1.937v-8.24H18.44V9.66a.636.636 0 0 1-1.27 0V3.247h-1.592v5.558c0 .708.013 1.18.034 1.419.021.238.076.466.166.687M9.906 6.257c0-.791.066-1.409.197-1.854.132-.444.369-.8.712-1.07.342-.27.78-.405 1.314-.405.448 0 .832.088 1.153.26.322.173.57.398.743.676.176.279.295.565.359.858.065.297.097.745.097 1.35v2.083c0 .765-.031 1.327-.09 1.684-.06.358-.186.69-.383 1.001a1.811 1.811 0 0 1-.745.686 2.38 2.38 0 0 1-1.052.22c-.441 0-.813-.06-1.12-.188a1.538 1.538 0 0 1-.715-.571 2.536 2.536 0 0 1-.364-.924c-.073-.36-.107-.902-.107-1.625V6.257zm1.517 3.273c0 .467.348.848.77.848.424 0 .77-.381.77-.848V5.143c0-.466-.346-.847-.77-.847-.422 0-.77.381-.77.847V9.53zm-5.362 2.215h1.828l.002-6.32L10.05.011h-2L6.903 4.032 5.738 0H3.76l2.298 5.428.003 6.317z" fill="#fff"/></svg>