<svg xmlns="http://www.w3.org/2000/svg" width="106.726" height="106.667" viewBox="0 0 100.05581 100"><path d="M78.91 97.915c-2.476-1.123-5.402-2.856-6.503-3.853-1.412-1.278-4.246-1.97-9.634-2.353C49.16 90.744 38.517 83.511 36 73.514l-1.097-4.357-5.26 2.573c-4.394 2.148-7.073 2.648-16.266 3.038l-11.006.466 4.572-4.052c3.006-2.663 4.993-5.456 5.8-8.152l1.229-4.1L9.04 53.2C2.5 45.604.707 41.806.102 34.263c-1.119-13.932 6.96-23.501 26.281-31.13 9.01-3.557 24.857-4.189 34.142-1.361 15.637 4.762 25.86 15.472 27.168 28.46.493 4.897-1.667 12.634-4.417 15.819-2.082 2.411-1.668 3.411 1.957 4.722 4.226 1.528 11.298 7.554 13.214 11.258 3.34 6.458 1.608 12.135-6.393 20.96-4.616 5.092-5.067 7.761-2.245 13.296L91.702 100l-4.145-.022c-2.279-.012-6.17-.94-8.646-2.063zM28.386 64.122c3.301-1.573 6.86-3.824 7.909-5.002 1.556-1.75 3.031-2.142 8.044-2.142 16.965 0 32.357-8.949 35.478-20.626 2.734-10.232-3.084-19.65-15.896-25.728C41.457-.036 5.873 13.76 5.873 33.129c0 4.652 4.23 12.834 9.052 17.513 3.772 3.66 3.953 4.12 3.954 10.088 0 7.468.543 7.661 9.506 3.392z"/></svg>