<svg xmlns="http://www.w3.org/2000/svg" height="136.169" width="106.666" viewBox="0 0 100.00001 127.65957"><path d="M76.597 46.81H23.405a2.127 2.127 0 1 0 0 4.255h53.192a2.127 2.127 0 1 0 0-4.256zM23.405 34.043h21.277a2.127 2.127 0 1 0 0-4.255H23.405a2.127 2.127 0 1 0 0 4.255zM76.597 63.831H23.405a2.127 2.127 0 1 0 0 4.255h53.192a2.127 2.127 0 1 0 0-4.255zM76.597 80.853H23.405a2.127 2.127 0 1 0 0 4.255h53.192a2.127 2.127 0 1 0 0-4.255zM76.597 97.874H23.405a2.127 2.127 0 1 0 0 4.256h53.192a2.127 2.127 0 1 0 0-4.256z"/><path d="M68.967 0H0v127.662h100.002V31.035L68.967 0zm1.247 7.264l22.524 22.524H70.214V7.264zM4.255 123.407V4.255H65.96v29.788h29.788v89.364H4.255z"/></svg>