<svg xmlns="http://www.w3.org/2000/svg" width="53.333" height="46.667" viewBox="0 0 50 43.749999"><path d="M44.643 24.107c-2.65 0-4.85 1.935-5.277 4.464h-3.652a5.362 5.362 0 0 0-5.357 5.354v9.825h1.786v-9.825a3.574 3.574 0 0 1 3.571-3.568h3.652c.427 2.53 2.628 4.464 5.277 4.464A5.363 5.363 0 0 0 50 29.464a5.363 5.363 0 0 0-5.357-5.357zm0 8.929a3.576 3.576 0 0 1-3.572-3.572 3.576 3.576 0 0 1 3.572-3.571 3.576 3.576 0 0 1 3.571 3.571 3.576 3.576 0 0 1-3.571 3.572zM20.536 10.714h-3.572a5.363 5.363 0 0 0-5.357-5.357 5.363 5.363 0 0 0-5.357 5.357 5.363 5.363 0 0 0 5.357 5.357 5.361 5.361 0 0 0 5.045-3.571h3.884a3.578 3.578 0 0 1 3.571 3.577V43.75h1.786V16.077a5.366 5.366 0 0 0-5.357-5.363zm-8.929 3.572a3.576 3.576 0 0 1-3.571-3.572 3.576 3.576 0 0 1 3.571-3.571 3.576 3.576 0 0 1 3.572 3.571 3.576 3.576 0 0 1-3.572 3.572z"/><path d="M14.286 24.107h-3.652c-.428-2.53-2.628-4.464-5.277-4.464A5.363 5.363 0 0 0 0 25a5.363 5.363 0 0 0 5.357 5.357c2.65 0 4.85-1.935 5.277-4.464h3.652a3.577 3.577 0 0 1 3.571 3.574V43.75h1.786V29.467a5.365 5.365 0 0 0-5.357-5.36zm-8.929 4.464A3.576 3.576 0 0 1 1.786 25a3.576 3.576 0 0 1 3.571-3.571A3.576 3.576 0 0 1 8.93 25a3.576 3.576 0 0 1-3.572 3.571zm31.13-10.714h2.88c.426 2.53 2.627 4.464 5.276 4.464A5.363 5.363 0 0 0 50 16.964a5.363 5.363 0 0 0-5.357-5.357c-2.65 0-4.85 1.935-5.277 4.464h-2.88a2.553 2.553 0 0 1-2.548-2.55V0h-1.786v13.521a4.34 4.34 0 0 0 4.335 4.336zm8.156-4.464a3.576 3.576 0 0 1 3.571 3.571 3.576 3.576 0 0 1-3.571 3.572 3.576 3.576 0 0 1-3.572-3.572 3.576 3.576 0 0 1 3.572-3.571z"/></svg>